<svg width="120" height="120" viewBox="0 0 120 120" fill="none" xmlns="http://www.w3.org/2000/svg">
<path d="M7.14416 0.000976562C7.14656 0.00114009 7.14951 0.00165185 7.15197 0.00195312C7.16201 0.00305376 7.17303 0.00659162 7.1842 0.0078125C7.22956 0.0175787 7.28502 0.0373466 7.35217 0.0585938C7.37968 0.0678961 7.48688 0.215173 7.61584 0.310547C7.69689 0.151954 7.78964 0.0244165 7.93225 0.0517578C8.575 0.176551 9.12812 0.649448 9.53088 1.11133C9.65491 1.25453 9.49034 1.51636 9.56994 1.62793C9.73218 1.8492 9.94495 1.79132 10.0983 2.03516C10.1474 2.11782 9.92517 2.54969 9.97717 2.62402C10.2593 3.01985 10.6419 3.08718 10.9586 3.37793C12.5593 4.83582 14.1859 5.95884 15.8658 7.16016C16.4185 7.55524 16.9835 8.37953 17.6324 8.52637C17.708 8.54229 17.7999 8.10581 17.8238 8.0791C18.1962 7.67428 17.8608 8.46963 17.9596 8.6582C18.0523 8.83147 18.1575 8.98614 18.2711 9.12305C18.6159 9.55703 19.0803 9.81396 19.5055 9.91113C19.7439 9.96506 19.792 9.02072 19.8619 9.60547C19.8667 9.64607 19.6699 10.054 19.7145 10.1348C19.8158 10.3166 20.1012 10.3864 20.1979 10.4824C20.3851 10.6711 20.4139 10.6821 20.6031 10.7959C20.8593 10.9546 21.1032 11.3521 21.4235 11.417C21.4911 11.4265 21.5576 10.9343 21.6764 10.9111C21.7952 10.8886 22.0341 11.0698 22.0856 11.2246C22.1366 11.3794 21.9855 11.7127 21.9742 11.8027C21.8774 12.5563 22.4797 11.7803 22.527 11.7773C23.3395 11.7687 23.7731 12.6564 24.4078 13.0176C24.899 13.2957 25.4861 13.42 25.942 13.71C26.4927 14.0618 26.8797 14.5731 27.4352 14.8418C27.4937 14.8707 27.5986 14.3042 27.6705 14.3379C28.4344 14.7025 29.1505 15.1809 29.7692 15.959C29.8308 16.0376 29.5857 16.4474 29.6383 16.5537C29.9645 17.1934 30.3877 18.5225 31.3092 16.6543C31.5888 16.9082 31.9351 17.2032 32.0787 17.7686C32.1696 18.1318 31.8351 18.5399 32.1207 18.4482C32.185 18.4281 32.2656 17.9486 32.3512 17.9512C32.7114 17.9655 33.0023 18.3035 33.3834 18.251C33.4312 18.2437 33.4923 18.0878 33.5416 17.9541C33.5749 17.2087 33.6843 16.4641 33.9801 15.6904C34.0184 15.5966 34.8579 15.5142 34.6969 15.3174C34.4633 15.3026 34.1887 15.3024 33.9391 15.2959C33.9356 15.2453 33.9323 15.1948 33.9293 15.1445C33.8196 13.2076 34.0973 11.2716 34.1412 9.33594C34.1423 9.25385 33.6968 9.39551 33.6979 9.23633C33.7044 8.28102 33.5817 7.38687 34.025 6.41602C34.0699 6.32535 34.8526 6.36877 34.734 6.08203C34.7121 6.0258 34.6072 5.61738 34.4371 5.50195C34.4081 5.48769 34.0457 5.5657 34.0348 5.42578C33.9791 4.63596 34.0629 3.80186 34.2867 3.00293C34.3235 2.87252 34.7114 3.0101 34.7428 2.91895C34.9499 2.27174 34.6543 1.56645 35.0084 0.952148C35.2471 0.535739 35.921 0.697624 36.5846 0.470703C36.6782 0.441489 36.6936 0.1867 37.0797 0.169922C38.051 0.135411 39.1147 0.261497 40.15 0.211914C40.2614 0.202852 40.2575 0.114835 40.2926 0.0537109C40.3013 0.0419151 40.3127 0.0233383 40.3287 0.0146484C40.3368 0.00787206 40.3463 0.00721025 40.357 0.00195312C40.3597 0.00107542 40.363 0.00131875 40.3658 0.000976562L40.3678 0H40.4606C40.4618 0.000458201 40.4632 0.000831316 40.4645 0.000976562C40.4669 0.00114009 40.4698 0.00165185 40.4723 0.00195312C40.4823 0.00305383 40.4933 0.00659164 40.5045 0.0078125C40.5499 0.0175788 40.6053 0.0373467 40.6725 0.0585938C40.7 0.0678977 40.8072 0.215173 40.9362 0.310547C41.0172 0.151954 41.1099 0.0244165 41.2526 0.0517578C41.8953 0.176551 42.4484 0.649448 42.8512 1.11133C42.9752 1.25453 42.8106 1.51636 42.8903 1.62793C43.0525 1.8492 43.2653 1.79132 43.4186 2.03516C43.4677 2.11782 43.2455 2.54969 43.2975 2.62402C43.5796 3.01985 43.9622 3.08718 44.2789 3.37793C45.8796 4.83582 47.5063 5.95884 49.1862 7.16016C49.7388 7.55524 50.3038 8.37953 50.9528 8.52637C51.0283 8.54229 51.1202 8.10581 51.1442 8.0791C51.5165 7.67428 51.1811 8.46963 51.2799 8.6582C51.3726 8.83147 51.4778 8.98614 51.5914 9.12305C51.9362 9.55703 52.4006 9.81396 52.8258 9.91113C53.0642 9.96506 53.1123 9.02072 53.1822 9.60547C53.187 9.64607 52.9902 10.054 53.0348 10.1348C53.1361 10.3166 53.4215 10.3864 53.5182 10.4824C53.7055 10.6711 53.7342 10.6821 53.9235 10.7959C54.1796 10.9546 54.4235 11.3521 54.7438 11.417C54.8115 11.4265 54.8779 10.9343 54.9967 10.9111C55.1155 10.8886 55.3545 11.0698 55.4059 11.2246C55.4569 11.3794 55.3058 11.7127 55.2945 11.8027C55.1977 12.5563 55.8 11.7803 55.8473 11.7773C56.6599 11.7687 57.0934 12.6564 57.7281 13.0176C58.2193 13.2957 58.8064 13.42 59.2623 13.71C59.813 14.0618 60.2 14.5731 60.7555 14.8418C60.814 14.8707 60.9189 14.3042 60.9908 14.3379C61.7547 14.7025 62.4708 15.1809 63.0895 15.959C63.1511 16.0376 62.9061 16.4474 62.9586 16.5537C63.2848 17.1934 63.708 18.5225 64.6295 16.6543C64.9091 16.9082 65.2554 17.2032 65.399 17.7686C65.4899 18.1318 65.1554 18.5399 65.441 18.4482C65.5053 18.4281 65.586 17.9486 65.6715 17.9512C66.0317 17.9655 66.3226 18.3035 66.7037 18.251C66.7816 18.2392 66.8942 17.8331 66.9352 17.7715C67.2724 17.2791 67.2062 18.3733 67.2369 18.4756C67.4762 19.2279 67.843 19.1957 68.2213 19.4277C68.3087 19.479 68.377 18.8892 68.4674 18.9209C68.933 19.0974 69.3736 19.4057 69.7301 19.8906C69.8087 19.9998 69.5738 20.4023 69.6031 20.4785C69.7381 20.8046 70.0614 19.9741 70.1949 20.2705C70.2229 20.3327 70.0744 20.707 70.068 20.7539C69.9671 21.4895 70.3756 20.6025 70.4137 20.5957C70.8869 20.5274 70.8085 21.6585 71.2223 21.7295C71.2719 21.7358 71.3329 21.1891 71.4625 21.2393C72.3288 21.5752 73.1577 22.2107 73.8444 23.0713C73.9501 23.2042 73.7414 23.5194 73.733 23.5713C73.6318 24.3561 74.0247 23.4557 74.0787 23.4404C74.4886 23.3689 74.5341 24.3436 75.1246 23.335C75.6564 23.8386 76.2473 24.1569 76.8317 24.4932C77.2919 24.4162 77.7416 24.7037 78.0201 25.0225C78.0733 25.0823 78.0604 25.2101 78.0514 25.3223C78.3944 25.6211 78.7162 25.9857 78.9967 26.4727C79.0035 26.4853 78.9547 26.6203 78.9117 26.749C78.9237 26.7589 78.9371 26.7677 78.9488 26.7793C79.0406 26.8701 79.1327 26.9572 79.2233 27.043C79.3906 26.847 79.5821 26.4076 79.9108 25.9814C80.0528 25.7986 79.9151 26.9941 79.9078 27.0859C79.8977 27.212 79.8449 27.3849 79.7877 27.5557C79.8353 27.5972 79.882 27.6391 79.9293 27.6797C80.1652 27.1467 80.4624 26.4289 80.609 26.5117C80.6158 26.5202 80.444 26.9268 80.4518 26.9814C80.4756 27.1523 80.5969 27.0218 80.6149 27.2051C80.6544 27.6296 80.3435 28.7825 80.7828 28.2607C80.8396 28.1904 81.2209 26.8567 81.4283 27.0488C81.5116 27.1271 81.9176 27.3324 82.0055 27.4834C82.0906 27.6334 81.8764 28.0113 81.8785 28.0342C81.969 28.5707 81.8912 28.8033 81.7975 29.248C81.8527 29.3178 81.9085 29.3947 81.9635 29.4727C82.1008 29.0941 82.2506 28.6661 82.3092 28.585C82.4424 28.4018 82.5147 28.9902 82.5172 29.1816C82.5194 29.3729 82.3657 29.6023 82.3844 29.7207C82.5132 30.496 82.8417 28.8256 83.0485 28.5742C83.5358 27.9788 83.2625 29.5486 83.4449 29.8232C83.4946 29.8974 83.5524 29.5365 83.6178 29.5371C83.8748 29.5444 83.8594 30.0742 84.2418 29.7988C84.305 29.7534 84.7863 28.9914 84.7106 29.71C84.699 29.8134 84.5292 30.146 84.5963 30.2812C84.6971 30.4835 84.9232 30.7064 85.1119 30.6709C85.2515 30.6442 85.3194 29.9739 85.3981 30.2393C85.4324 30.3577 85.2055 30.6421 85.2799 30.835C85.3547 31.0276 85.65 31.1792 85.7682 31.2324C85.8855 31.2848 85.9707 30.7957 85.9899 30.7695C86.1013 30.6272 86.3859 30.5323 86.4088 30.542C87.3855 31.0343 88.022 32.3043 89.0436 32.5869C89.123 32.6089 89.2281 32.1087 89.2428 32.1016C89.5592 32.0443 88.9502 33.2052 88.9879 33.7314C89.2764 32.7452 89.3231 32.9791 89.5328 32.9727C89.6341 32.9682 89.71 32.5663 89.7301 32.5322C90.0396 32.0324 89.8875 32.819 89.861 32.9834C89.767 33.587 90.0714 32.9841 90.0094 33.3877C89.948 33.7892 89.6394 34.2609 89.8131 34.3516C89.9733 34.031 90.1397 33.05 90.317 32.9756C90.983 32.6953 91.664 33.9261 92.0279 34.2207C92.3851 34.5112 92.5437 34.5257 92.7301 34.7803C93.0681 35.2403 93.1345 34.4805 93.486 34.3145C93.8363 34.1484 93.181 35.7391 93.1022 36.1172C93.0219 36.4936 93.1822 36.151 93.1647 36.373C93.1471 36.5949 92.9706 36.7816 93.0543 36.916C93.1392 37.0497 93.6319 36.5799 93.7887 36.2275C94.1212 35.4807 94.2593 34.5772 94.442 35.0254C94.4515 35.0531 94.2608 35.4597 94.3072 35.5381C94.3763 35.6507 94.4493 35.753 94.524 35.8477L94.4987 35.834C94.8607 36.2438 95.2622 36.5137 95.5875 36.959C95.6413 37.0359 95.4412 37.4991 95.4713 37.5488C95.796 38.073 95.8873 37.1659 96.3785 36.3545C95.9765 37.5607 95.8906 38.3791 96.2008 38.543C96.3866 38.6416 96.5072 38.0868 96.735 37.7676C96.8032 37.6733 96.8293 38.1062 96.9244 37.8652C97.2383 37.0774 97.3754 36.0889 97.5992 36.6221C97.6061 36.6519 97.4357 37.0742 97.4762 37.1279C97.7454 37.4676 98.0293 36.6216 98.3971 36.6855C98.6743 36.7311 99.0248 37.5082 99.2985 37.7422C98.9022 39.1254 99.274 38.9486 99.6598 38.0508C99.8523 38.1911 100.085 38.2448 100.239 38.4717C100.29 38.5508 100.136 38.9286 100.131 38.9766C100.067 39.719 100.412 38.8346 100.465 38.8164C101.025 38.6902 101.217 39.5873 101.843 39.1123C101.866 39.0954 102.163 38.1441 102.087 38.9072C102.081 38.9596 101.81 39.3244 102.011 39.4629C102.217 39.6031 102.448 40.3055 102.873 40.0059C102.974 39.9329 103.371 39.2395 103.342 39.9199C103.338 40.0126 103.24 40.2792 103.224 40.4463C103.176 40.9791 103.494 40.0284 103.366 40.9062C103.231 41.7815 103.291 42.5161 103.739 42.0869C103.753 42.0748 104.036 41.3362 104.124 41.3916C104.259 41.4808 104.429 41.7468 104.585 41.8174C104.659 41.8506 104.744 41.3532 104.76 41.3447C105.321 41.3131 105.565 41.9184 106.036 42.3584C106.126 42.4415 106.587 41.9239 106.627 42.5303C106.649 42.8598 106.45 43.5797 106.321 44.1826C106.493 44.27 106.659 44.3921 106.81 44.5195C107.209 43.7329 107.744 42.6027 107.682 43.834C108.457 43.7752 108.85 44.8653 109.669 44.6436C109.706 44.6336 110.035 43.8468 110.102 43.8926C110.201 43.9627 110.149 44.3791 110.214 44.4414C110.502 44.7159 110.881 44.5247 111.163 44.7246C111.275 44.8025 111.121 45.1843 111.251 45.2754C111.377 45.3644 111.623 44.8833 111.734 45.2324C111.811 45.4956 111.645 46.6501 111.781 46.8662C112.1 45.8065 112.228 45.898 112.531 45.7354C112.592 45.7036 112.655 45.3111 112.69 45.2773C112.834 45.134 112.818 45.4801 112.959 45.3164C112.993 45.2762 113.106 44.9179 113.141 44.8662C113.449 44.4145 113.414 45.3467 113.407 45.5098C113.375 46.1234 113.599 45.7018 113.638 45.9756C113.674 46.2483 113.426 46.412 113.506 46.6133C113.668 47.0126 113.984 47.1702 114.22 47.3584C114.228 47.3648 114.235 47.3715 114.243 47.3779C114.339 47.4586 114.471 46.9628 114.491 46.96C114.752 47.0124 114.738 47.6515 115.267 46.8701C114.331 49.2541 115.496 46.7531 115.574 47.4609C115.579 47.518 115.082 48.5978 114.921 48.6807C114.76 48.7632 114.793 48.3203 114.557 48.4658C114.499 48.5012 113.872 49.3729 113.823 49.4209C113.439 49.7667 114.152 48.1314 114.183 48.0322C114.349 47.5084 114.254 47.4804 114.11 47.5898L114.125 47.6016C113.987 47.7183 113.804 47.9739 113.763 47.9951C113.394 48.1926 113.285 47.8292 112.988 47.9658C112.954 47.9822 112.914 48.0333 112.87 48.1035C113.101 48.4445 113.355 48.7852 113.84 49.8662C114.04 50.3335 114.245 51.0156 114.333 51.8213C114.363 51.5741 114.419 51.4271 114.503 51.5117C114.552 51.5618 114.345 52.1793 114.4 52.3789C114.502 52.737 114.663 51.4426 114.749 52.1201C114.78 52.0837 114.813 52.052 114.852 52.0332C114.936 51.9929 115.07 52.3862 115.171 52.3389C115.271 52.2907 115.124 51.7523 115.349 51.8975C115.52 52.0096 116.037 52.9508 116.208 52.9805C115.8 51.9768 115.893 51.9348 115.939 51.5596C115.948 51.4868 115.776 51.1605 115.772 51.1074C115.757 50.8862 115.927 51.1375 115.903 50.9023C115.897 50.8448 115.761 50.5005 115.749 50.4346C115.642 49.8613 116.106 50.5267 116.184 50.6465C116.486 51.0922 116.36 50.6096 116.516 50.7607C116.67 50.9138 116.651 51.2453 116.787 51.3105C116.834 51.333 116.879 51.3464 116.922 51.3525C116.923 51.3519 116.925 51.3492 116.926 51.3486C117.148 51.3687 117.326 51.1998 117.488 51.1064C117.563 51.0591 117.337 50.6372 117.34 50.6143C117.452 50.3897 117.796 50.7788 117.535 49.7939C118.543 52.1204 117.543 49.4984 117.951 49.8311C117.987 49.8699 118.419 50.9853 118.415 51.1943C118.413 51.2593 118.39 51.2744 118.359 51.2764C119.407 52.3942 118.089 50.6209 118.613 50.6299C118.658 50.6317 119.358 51.4958 119.371 51.7402C119.383 51.9837 119.046 51.8726 119.081 52.2334C119.089 52.3186 119.557 53.3744 119.573 53.4541C119.699 54.0773 118.675 52.7683 118.608 52.7031C118.539 52.638 118.481 52.592 118.433 52.5596C118.454 52.6497 118.471 52.7118 118.472 52.7275C118.5 52.9828 118.39 52.81 118.253 52.5264C118.159 52.6555 118.391 53.2476 118.387 53.3389C118.366 53.9366 118.025 54.0118 117.981 54.4766C117.951 54.7799 118.597 55.6753 118.476 55.7822C118.074 56.1361 117.038 55.0645 117.519 56.5449C117.623 56.8604 118.409 57.7316 117.601 57.2969C117.546 57.2666 116.854 56.8208 117.078 57.3916C117.107 57.4639 117.316 57.7412 117.318 57.7881C117.318 57.7933 117.318 57.7988 117.318 57.8037L117.331 57.7871C117.316 58.0806 117.074 57.9795 117.016 58.2637C116.962 58.5474 116.909 58.929 116.68 59.0342C116.542 59.0978 116.039 58.7177 115.902 58.6406C115.505 58.4241 115.807 59.2103 115.404 58.8486C115.004 58.479 114.667 57.5893 114.26 57.5293C114.772 58.2979 115.288 59.0996 115.797 59.8799C115.306 60.4212 114.68 60.703 114.23 61.2686C114.176 61.3384 114.504 61.694 114.452 61.7803C114.226 62.1486 113.803 62.1043 113.603 62.5254C113.447 62.8566 113.493 63.56 113.332 63.9229C112.642 63.1537 112.488 63.8299 112.202 63.9941C112.1 64.053 111.959 63.8024 111.85 63.7861C111.443 63.7331 112.034 64.4335 112.048 64.627C112.11 65.4501 110.986 63.6374 110.702 64.0049C110.689 64.0271 111.062 65.2227 111.069 65.3145C111.121 65.9036 110.838 65.0017 110.68 65.0459C110.398 65.1223 110.123 65.0276 110.045 65.5703C110.023 65.7303 110.216 66.5145 109.802 66.1758C109.748 66.1309 109.568 65.7926 109.543 65.7881C109.501 65.7832 109.469 65.7908 109.444 65.8037C109.449 65.8654 109.425 65.8936 109.38 65.9014C109.333 66.1786 109.691 66.8901 109.732 67.2773C109.784 67.7773 109.141 67.2986 108.975 67.1406C108.546 66.7341 108.941 66.8152 108.919 66.7568C108.826 66.5193 108.751 66.3947 108.687 66.3359C108.691 66.4062 108.691 66.4679 108.682 66.5146C108.663 66.4865 108.643 66.461 108.625 66.4355C108.608 66.5936 108.582 66.7406 108.546 66.877C108.724 67.4399 108.649 67.6453 108.304 67.4219C108.205 67.5684 108.086 67.6919 107.942 67.7871C107.931 67.7843 107.742 67.543 107.66 67.4541C107.658 67.4686 107.655 67.4836 107.646 67.498C107.605 67.5649 107.563 67.6312 107.521 67.6982C107.538 67.7634 107.549 67.823 107.547 67.874C107.543 67.9319 107.532 67.9826 107.52 68.0283C107.557 68.2096 107.604 68.4075 107.629 68.5859C107.69 69.0625 107.501 69.1358 106.917 68.6221C106.904 68.6821 106.868 68.7209 106.819 68.7471C106.753 68.835 106.686 68.9218 106.617 69.0068C106.675 69.101 106.73 69.1891 106.706 69.2412C106.666 69.3286 106.608 69.3775 106.544 69.4141C106.565 69.4476 106.58 69.4686 106.581 69.4727C106.631 69.9298 106.502 70.0572 106.323 70.1348C106.334 70.1698 106.338 70.197 106.326 70.2109C106.11 70.4573 105.866 70.6151 105.617 70.7666C105.549 70.9134 105.488 71.0687 105.448 71.1885C105.381 71.3954 105.188 71.3024 105.159 71.5469C105.155 71.5798 105.403 71.9002 105.41 71.9219C105.571 72.475 105.055 71.5713 104.928 71.4512C104.889 71.4142 104.85 71.3804 104.814 71.3467C104.717 71.4549 104.607 71.6208 104.496 71.79C104.699 72.2096 104.947 72.7219 104.936 72.8125C104.91 73.004 104.652 72.5302 104.633 72.7393C104.634 72.7606 104.811 73.0249 104.749 73.0771C104.455 73.3257 104.069 73.4896 103.816 73.8154C103.78 73.8595 104.102 74.2449 104.055 74.3164C103.832 74.6501 103.539 74.9387 103.163 74.9941C103.069 75.0067 102.921 74.6538 102.852 74.5742C102.435 74.0982 102.805 75.0363 102.795 75.0732C102.58 75.8753 101.911 75.6147 101.584 76.1914C101.556 76.2427 101.532 76.3021 101.511 76.3711C101.501 76.4177 101.814 77.4948 101.304 76.8037C101.269 76.7565 100.751 76.0487 100.977 76.6592C100.992 76.6972 101.267 77.0538 101.156 77.0996C101.046 77.145 101.049 77.5595 100.679 77.2334C100.562 77.1306 100.033 76.433 100.262 77.1768C100.281 77.2319 100.881 78.8262 100.274 77.9102C100.174 77.7571 99.6131 76.7106 99.7653 77.3789C99.7952 77.5085 99.972 77.6932 99.9801 77.9072C99.9919 78.2372 99.6942 78.0993 99.8102 78.6953C99.8315 78.8003 100.112 79.6085 99.7389 79.1475C99.68 79.0739 99.5159 78.704 99.4518 78.7061C99.1447 78.7154 99.0535 79.1532 98.7115 79.1094C98.5915 79.0918 98.3293 78.4899 98.1715 78.4092C98.0136 78.3291 97.7791 78.3282 97.8346 78.6631C97.8891 78.9996 98.4543 79.8281 98.3678 80.0156C97.9883 80.8316 97.1654 80.7824 96.5709 81.1787C96.482 81.238 96.7114 81.5127 96.5914 81.624C96.1542 82.0351 95.4973 83.0084 94.7711 82.5986C94.1907 82.2708 94.397 81.5122 94.0494 81.4658C93.8857 81.4446 94.2462 82.6542 94.232 82.7119C94.1044 83.2856 93.6957 82.9385 93.5055 83.2793C93.4663 83.3499 93.7079 83.7675 93.6725 83.8232C93.5519 84.0157 93.3013 83.9344 93.1705 84.0771C93.1121 84.1434 93.2661 84.4842 93.194 84.502C93.0248 84.5461 92.8351 84.4947 92.569 84.2734C92.5722 84.2994 92.5704 84.3199 92.5582 84.333C92.2504 84.6612 91.8852 84.9628 91.4879 85.1211C91.4984 85.4482 91.4571 85.7149 91.2281 85.3418C91.1566 85.2252 90.9585 84.8458 90.8307 84.665C90.7864 84.6303 90.7556 84.6218 90.732 84.6328C90.7755 84.7452 90.9073 85.0477 90.8697 85.1162C90.8254 85.1935 90.7732 85.2555 90.7194 85.3125C90.7207 85.3294 90.7252 85.3401 90.7233 85.3438C90.6022 85.5836 90.4579 85.7489 90.3024 85.876C90.3493 86.0255 90.4771 86.2723 90.4215 86.3457C90.2142 86.615 89.8678 86.6819 89.5758 86.6807C89.5049 86.6797 89.4524 86.4985 89.4186 86.3633C89.3641 86.3926 89.3105 86.4245 89.2574 86.459C89.2719 86.5438 89.2831 86.6122 89.2789 86.6299C89.1905 86.992 88.9694 86.839 88.8043 86.8906C88.7696 86.9401 88.7361 86.9939 88.7037 87.0518C88.7026 87.0539 88.7034 87.0581 88.7028 87.0635C88.7338 87.209 88.8363 87.4551 88.8375 87.4893C88.8426 87.7779 88.7743 87.5307 88.6988 87.3066C88.6975 87.6386 88.6623 88.1187 88.2877 87.6201C88.264 87.589 88.0139 87.2516 87.9 87.2432C87.8435 87.3047 88.0288 87.6861 88.0192 87.7959C88.0567 87.8854 88.0701 87.9699 87.9977 88.0049C87.8279 88.0858 87.7212 88.5729 87.2936 88.2744C87.2734 88.2604 87.2453 88.2312 87.2106 88.1973C87.0774 88.2144 86.94 88.2113 86.7985 88.1807C86.7698 88.1738 86.7444 88.1184 86.7184 88.0469C86.713 88.1074 86.7164 88.1899 86.732 88.2998C86.7418 88.3577 87.1432 90.1019 86.5514 89.1582C86.4855 89.0527 86.2382 88.5128 86.0944 88.4062C86.0611 88.4459 86.0262 88.4832 85.9908 88.5195C85.9884 88.5541 85.9888 88.5961 85.9908 88.6465C85.9973 88.7919 86.1918 88.9697 86.1461 89.2188C86.0768 89.6011 85.7029 89.504 85.7096 90.1729C85.7115 90.2908 85.8932 91.17 85.4987 90.7139C85.4369 90.6421 85.3069 90.2456 85.2184 90.2607C84.7969 90.3354 84.5643 90.863 84.111 90.8838C83.9508 90.8913 83.7377 90.2496 83.5406 90.1914C83.3435 90.1337 83.0244 90.1837 83.0192 90.5596C83.0142 90.9361 83.5902 91.767 83.4303 92.001C82.8142 92.8987 81.886 93.0991 81.066 93.5439C81.232 93.8776 81.2842 94.085 81.3375 94.248C81.3979 94.4537 81.4309 94.6271 81.4342 94.6406C81.5065 95.0106 81.5005 95.0443 81.5084 95.0859C81.5177 95.1613 81.5128 95.1369 81.5065 95.1191C81.4994 95.0964 81.1293 95.1493 81.111 95.1436C80.9663 95.0449 81.2309 94.8715 81.1285 94.7197C81.09 94.6582 80.7308 94.7702 80.692 94.6768C80.5873 94.422 81.1954 94.0619 80.7799 93.8174C80.7619 93.8066 80.7397 93.7967 80.7135 93.7891C80.6895 93.9026 80.845 94.1044 80.691 94.2344C80.4717 94.4201 80.2114 94.6761 79.9303 94.9307C79.974 94.9964 79.9193 95.0538 79.7438 95.0957C79.6701 95.1591 79.5949 95.2206 79.5192 95.2803C79.5079 95.4285 79.5086 95.5745 79.4 95.8311C79.3137 96.1174 79.0388 95.8035 78.9977 95.8281C78.9778 95.8377 78.96 95.842 78.9391 95.8613C78.8995 95.9015 78.9086 96.0103 78.6754 96.1377C78.5547 96.1973 78.3862 96.1022 78.3639 96.0605C78.3176 96.0087 78.2987 95.9632 78.2867 95.9297C78.273 95.8875 78.2683 95.8585 78.2672 95.8359C78.1915 95.8335 78.1159 95.8238 78.0416 95.8027C77.3047 95.5935 77.7147 94.6812 77.2438 94.7285C77.0176 94.7523 77.313 96.0116 77.2858 96.0811C77.0229 96.76 76.514 96.4927 76.2028 96.9316C76.1385 97.0224 76.4088 97.4157 76.3531 97.4893C76.1605 97.7404 75.8304 97.7223 75.6285 97.9238C75.5384 98.0156 75.7047 98.3493 75.6031 98.3906C75.3618 98.4933 75.1098 98.4896 74.7594 98.3232C74.7276 98.3056 74.673 97.7791 74.5065 97.8828C74.2363 98.0523 73.782 97.969 73.6237 98.5215C73.5767 98.6873 73.9061 99.4863 73.485 99.0781C73.3962 98.9904 73.0488 98.0001 73.1715 98.9893C73.1917 99.1558 73.2816 100.543 72.7994 99.959C72.6721 99.8052 72.2234 99.1115 72.1666 99.3115C72.1626 99.3452 72.3953 99.7298 72.3238 99.8359C72.0662 100.205 71.7243 100.392 71.4508 100.762C71.379 100.861 71.6876 101.213 71.5748 101.347C71.2635 101.714 70.7755 101.914 70.3668 102.021C70.2168 102.058 70.1589 101.625 70.1334 101.591C69.7232 101.039 69.9838 101.985 69.9547 102.074C69.7684 102.599 69.359 102.35 69.1139 102.658C69.0471 102.743 69.2668 103.127 69.2662 103.177C69.2442 103.66 69.0718 102.814 68.9352 102.8C68.8139 102.787 68.6999 102.804 68.5924 102.84C68.361 102.918 68.1585 103.09 67.9752 103.261C67.8784 103.354 68.185 103.765 68.0953 103.843C67.5664 104.307 66.9657 104.653 66.3092 104.753C66.186 104.77 66.1051 104.346 66.0504 104.273C65.6708 103.767 65.7706 104.737 65.7516 104.853C65.664 105.365 65.4476 105.088 65.2672 105.288C64.3985 106.266 63.1044 106.854 62.1217 107.339C60.846 107.97 59.7758 108.231 58.6471 109.1C58.5772 109.154 58.8402 109.611 58.7828 109.665C58.0127 110.331 57.1353 110.664 56.3649 111.357C56.3023 111.413 56.5792 111.831 56.485 111.937C56.2938 112.155 56.0037 112.314 55.7184 112.311C55.581 112.308 55.5731 111.799 55.4381 111.805C55.1222 111.82 54.838 111.966 54.607 112.215C54.506 112.324 54.8614 112.703 54.7154 112.807C53.7349 113.515 52.8028 114.234 51.5553 114.258C51.47 114.258 51.0413 113.293 50.9645 113.582C51.0566 113.868 51.1792 114.194 51.2848 114.495C49.8973 115.604 48.3286 116.196 46.861 117.082C46.8021 117.121 47.0989 117.583 46.983 117.657C46.2833 118.102 45.6867 118.671 44.7799 118.602C44.692 118.592 44.3835 117.635 44.236 117.904C44.2065 117.955 43.9373 118.284 43.9342 118.537C43.9348 118.575 44.1504 118.976 44.0572 119.053C43.4964 119.496 42.8624 119.781 42.1852 119.886C42.0758 119.902 42.0062 119.37 41.9244 119.379C41.3635 119.434 40.9752 120.12 40.3795 119.981C39.9718 119.892 39.7962 119.009 39.3444 118.321C39.2727 118.229 39.1013 118.318 38.9108 117.871C38.453 116.732 38.084 115.399 37.5846 114.192C37.492 113.991 37.3849 114.234 37.2975 113.97C36.8849 114.095 37.2274 114.274 37.0416 114.401C36.851 114.531 36.6702 114.234 36.5426 114.405C36.2789 114.76 36.2561 115.284 36.1852 115.688C36.1588 115.848 36.5573 115.835 36.5651 115.86C36.6142 116.224 36.1557 116.454 36.8912 116.847C34.8791 116.547 37.0523 117.103 36.5797 117.479C36.5383 117.508 35.6034 117.291 35.4879 117.109C35.3737 116.929 35.6987 116.793 35.5153 116.536C35.4716 116.473 34.6377 115.975 34.5885 115.926C34.217 115.539 35.6149 115.854 35.6988 115.859C36.553 115.896 35.6571 115.327 35.6012 115.225C35.3562 114.755 35.5976 114.464 35.4254 114.083C35.3135 113.835 34.3966 113.611 34.4449 113.449C34.6067 112.915 35.916 112.975 34.86 112.219C34.634 112.057 33.6137 111.973 34.4518 111.722C34.5096 111.706 35.2612 111.539 34.8219 111.278C34.7656 111.246 34.4733 111.193 34.4498 111.159C34.3099 110.936 34.5574 110.849 34.4664 110.617C34.3752 110.385 34.2322 110.104 34.3551 109.879C34.4288 109.744 34.9959 109.646 35.1373 109.598C35.5435 109.462 34.9275 109.146 35.4078 109.097C35.7524 109.06 36.2047 109.228 36.5572 109.227C36.5611 109.169 36.5647 109.112 36.5709 109.056C35.9168 108.941 35.2523 108.819 34.5992 108.702C34.688 107.997 34.9922 107.329 35.0113 106.606C35.0127 106.517 34.5942 106.554 34.5836 106.457C34.5472 106.049 34.8671 105.733 34.7779 105.302C34.7104 104.982 34.3312 104.598 34.2184 104.263C33.8358 104.509 33.4255 104.686 32.9889 104.753C32.8656 104.77 32.7848 104.346 32.7301 104.273C32.3505 103.767 32.4503 104.737 32.4313 104.853C32.3437 105.365 32.1273 105.088 31.9469 105.288C31.0781 106.266 29.7841 106.854 28.8014 107.339C27.5257 107.97 26.4555 108.231 25.3268 109.1C25.2569 109.154 25.5198 109.611 25.4625 109.665C24.6924 110.331 23.815 110.664 23.0445 111.357C22.982 111.413 23.2589 111.831 23.1647 111.937C22.9735 112.155 22.6834 112.314 22.3981 112.311C22.2607 112.308 22.2528 111.799 22.1178 111.805C21.8019 111.82 21.5177 111.966 21.2867 112.215C21.1857 112.324 21.5411 112.703 21.3951 112.807C20.4146 113.515 19.4825 114.234 18.235 114.258C18.1496 114.258 17.721 113.293 17.6442 113.582C17.7363 113.868 17.8589 114.194 17.9645 114.495C16.577 115.604 15.0083 116.196 13.5406 117.082C13.4818 117.121 13.7786 117.583 13.6627 117.657C12.963 118.102 12.3664 118.671 11.4596 118.602C11.3717 118.592 11.0632 117.635 10.9156 117.904C10.8862 117.955 10.6169 118.284 10.6139 118.537C10.6145 118.575 10.8301 118.976 10.7369 119.053C10.1761 119.496 9.54212 119.781 8.86486 119.886C8.75552 119.902 8.68584 119.37 8.60412 119.379C8.04321 119.434 7.65485 120.12 7.0592 119.981C6.65151 119.892 6.47586 119.009 6.02404 118.321C5.95236 118.229 5.78096 118.318 5.59045 117.871C5.13272 116.732 4.76368 115.399 4.26428 114.192C4.17165 113.991 4.06456 114.234 3.97717 113.97C3.56457 114.095 3.90714 114.274 3.72131 114.401C3.53064 114.531 3.34988 114.234 3.22228 114.405C2.95861 114.76 2.93576 115.284 2.86486 115.688C2.83849 115.848 3.23702 115.835 3.24475 115.86C3.29389 116.224 2.83537 116.454 3.57092 116.847C1.55875 116.547 3.73195 117.103 3.25939 117.479C3.21801 117.508 2.28307 117.291 2.1676 117.109C2.0534 116.929 2.37842 116.793 2.19494 116.536C2.15128 116.473 1.31739 115.975 1.26818 115.926C0.896718 115.539 2.29454 115.854 2.37853 115.859C3.2327 115.896 2.33675 115.327 2.28088 115.225C2.03587 114.755 2.27729 114.464 2.1051 114.083C1.99317 113.835 1.07625 113.611 1.12463 113.449C1.28639 112.915 2.59565 112.975 1.53967 112.219C1.31369 112.057 0.29334 111.973 1.13146 111.722C1.18929 111.706 1.94088 111.539 1.50158 111.278C1.44532 111.246 1.15302 111.193 1.12951 111.159C0.989604 110.936 1.23713 110.849 1.14611 110.617C1.05488 110.385 0.911903 110.104 1.03478 109.879C1.10844 109.744 1.67561 109.646 1.81701 109.598C2.22317 109.462 1.60714 109.146 2.08752 109.097C2.43206 109.06 2.88443 109.228 3.23693 109.227C3.24077 109.169 3.24436 109.112 3.2506 109.056C2.59653 108.941 1.93202 108.819 1.27892 108.702C1.36765 107.997 1.67184 107.329 1.69103 106.606C1.69238 106.517 1.27387 106.554 1.2633 106.457C1.2269 106.049 1.54674 105.733 1.45764 105.302C1.38683 104.967 0.971363 104.562 0.881464 104.216C1.77499 104.105 1.50637 103.571 1.60705 103.213C1.64231 103.089 1.87771 103.12 1.95959 103.037C2.26241 102.717 1.47565 102.805 1.35705 102.699C0.855056 102.252 2.61962 102.374 2.60119 101.892C2.59968 101.864 1.67596 101.472 1.61877 101.426C1.25062 101.126 1.94815 101.41 2.026 101.245C2.16758 100.946 2.40221 100.744 2.14221 100.362C2.06413 100.249 1.49076 99.9501 1.95178 99.7803C2.01323 99.7573 2.32148 99.7941 2.34142 99.7734C2.66122 99.3954 1.68343 99.3218 1.36096 99.0723C1.26266 98.9968 1.25904 98.9171 1.30627 98.8418C1.41429 98.6618 1.7868 98.5055 1.92346 98.4658C2.43216 98.3119 2.13449 98.619 2.18225 98.6328C2.76571 98.7862 2.67373 98.5316 2.7301 98.335C3.69003 98.3635 3.6416 98.0894 2.78478 98.1377C2.69167 98.1432 2.77474 98.2977 2.7301 98.335C1.79532 98.1076 1.68498 97.8111 2.57385 97.5293C2.69537 97.4905 2.82176 97.4755 2.93615 97.4648C2.93014 97.4336 2.92258 97.4025 2.9176 97.3711C2.89146 97.2145 2.88032 97.0576 2.87853 96.9004C2.68359 96.8631 2.47716 96.8285 2.39025 96.7334C1.98986 96.2972 2.61483 95.7703 2.52209 95.3281C2.48799 95.1697 2.12548 95.3172 2.08947 95.209C1.99399 94.9197 2.26742 94.6679 2.12951 94.377C2.11557 94.3506 1.73871 94.4126 1.73303 94.3223C1.69141 93.6362 1.93274 93.0337 1.93713 92.3057C1.93895 91.9625 1.72714 91.3203 1.76721 90.9619C1.83466 90.321 2.38043 89.5426 2.24377 88.9951C2.15612 88.6454 1.77816 88.7239 1.51916 88.5732C1.01719 88.2779 1.9098 87.7619 2.04846 87.6826C2.05575 87.691 2.14719 87.9866 2.33752 87.8223C2.73792 87.723 2.06296 87.6867 2.04846 87.6826C2.13763 87.6239 2.21992 87.0348 2.14709 86.9053C2.10611 86.8394 1.75046 86.8799 1.734 86.8457C1.40819 86.0399 1.3126 85.2121 1.47619 84.3848C1.48847 84.3708 1.88531 84.3883 1.89709 84.3545C2.07276 83.8769 1.58012 83.5608 1.28674 83.1777C0.993649 82.7886 1.08989 82.4535 1.77795 82.2266C1.69023 81.9351 1.99264 81.5006 2.17639 81.2441C2.35945 81.0038 1.58244 80.9741 1.5631 80.9531C1.06601 80.2887 1.51156 79.8785 1.57873 79.1865C1.61189 78.8466 1.49642 78.1879 1.40978 77.8301C1.34023 77.5449 1.52179 77.3691 1.40392 77.0996C1.38746 77.0634 1.04319 77.1014 1.02697 77.0908C1.01841 77.0846 1.01006 77.0781 1.00256 77.0723C0.645947 76.811 1.46383 76.9375 1.61291 76.8789C2.1644 76.66 2.45833 76.5249 2.19787 76.1494C2.13815 76.0629 0.914599 75.8138 0.840448 75.6523C0.749033 75.4419 1.18737 75.5201 1.08068 75.3086C1.06992 75.2908 0.802197 75.2951 0.813105 75.165C0.863333 74.5599 1.0185 73.86 0.989862 73.2354C0.984279 73.1498 0.557747 73.2623 0.546503 73.1367C0.494161 72.5425 0.508741 71.8868 0.708612 71.3135C0.759452 71.1714 1.06083 71.2587 1.15002 71.2275C1.68728 71.0366 0.908779 70.7697 0.889276 70.7236C0.509857 69.6727 1.21831 68.8395 0.878534 67.7793C0.857605 67.7208 0.0163289 67.2711 0.736933 67.0654C0.785273 67.0513 1.52317 66.8481 1.01818 66.6709C0.985791 66.6608 0.607336 66.7845 0.645136 66.5693C0.683452 66.3551 0.429122 66.0092 0.846308 65.71C0.978015 65.6152 1.71372 65.3892 1.12658 65.1074C1.0811 65.0886 -0.241267 64.6516 0.67248 64.499C0.823803 64.4736 1.79288 64.4976 1.29553 64.165C1.19911 64.1014 0.983562 64.2175 0.848261 64.0498C0.639824 63.7923 0.897784 63.4484 0.465448 63.1289C0.387088 63.0731 -0.268175 62.835 0.230097 62.6445C0.308206 62.6149 0.631909 62.6702 0.668573 62.5713C0.841638 62.0987 0.625063 61.6007 0.848261 61.1143C0.927315 60.9424 1.44943 61.0284 1.58947 60.8486C1.7294 60.666 1.86386 60.3114 1.62463 60.125C1.38509 59.9393 0.551059 60.1444 0.484003 59.8652C0.192936 58.6448 0.681173 57.4439 0.751581 56.2246C0.761901 56.0453 0.463584 56.1944 0.457636 55.9297C0.434482 54.9508 0.153299 53.2613 0.786737 52.4082C1.29412 51.7261 1.68202 52.5823 1.8883 52.0625C1.9864 51.8124 1.02003 51.5427 0.985956 51.4814C0.675603 50.8905 1.10424 50.4771 0.972284 49.9443C0.944862 49.8345 0.551828 49.9422 0.532831 49.8486C0.464662 49.5294 0.640178 49.1932 0.608026 48.8877C0.592535 48.7507 0.291984 48.7756 0.315058 48.6494C0.366859 48.3476 0.493166 48.0805 0.774042 47.7861C0.800069 47.7595 1.17334 47.939 1.18713 47.7158C1.20836 47.3545 1.48519 46.9057 1.19885 46.4902C1.11257 46.3669 0.426645 46.3623 0.900019 46.0967C0.999684 46.0411 1.82151 46.1108 1.10998 45.8027C0.989073 45.7495 0.0333332 45.2315 0.650995 44.9766C0.814401 44.9091 1.4868 44.737 1.38146 44.5889C1.3617 44.5697 0.995443 44.6488 0.959589 44.5264C0.839362 44.0931 0.878826 43.6408 0.7633 43.1943C0.73152 43.0756 0.350606 43.2527 0.315058 43.0762C0.21845 42.5882 0.316027 41.9792 0.435175 41.5039C0.480056 41.3291 0.795137 41.4492 0.829706 41.4365C1.38839 41.2301 0.633498 41.1083 0.589472 41.04C0.326676 40.6153 0.680389 40.2916 0.586542 39.9014C0.561078 39.7948 0.206624 39.8696 0.170526 39.8496C-0.143041 39.6274 0.502648 39.7921 0.573847 39.6514C0.775349 39.259 0.745927 38.8144 0.699823 38.415C0.682367 38.2683 0.265959 38.433 0.254511 38.3018C0.182357 37.5236 0.222061 36.7117 0.451776 35.9502C0.495783 35.8071 0.816707 35.896 0.890253 35.8662C1.40301 35.6606 0.705367 35.3614 0.637323 35.292C0.332663 34.9798 0.616207 34.8524 0.563105 34.5732C0.298904 33.2107 0.487131 31.5351 0.603144 30.2451C0.752478 28.5789 1.05766 27.2753 0.978144 25.6738C0.97204 25.5741 0.54788 25.6747 0.536737 25.5889C0.433601 24.4581 0.59967 23.3542 0.47619 22.2129C0.466133 22.121 0.0618906 22.2532 0.0328311 22.1055C-0.0286917 21.8018 -0.0064784 21.4212 0.122675 21.1045C0.185167 20.9526 0.532665 21.1557 0.588495 21.0029C0.718761 20.6465 0.748172 20.2693 0.683222 19.9131C0.654617 19.7616 0.240052 19.9903 0.23498 19.793C0.193833 18.4015 0.123201 17.094 0.659784 15.6904C0.698065 15.5966 1.53763 15.5142 1.37658 15.3174C1.14304 15.3026 0.868377 15.3024 0.618769 15.2959C0.615266 15.2453 0.611939 15.1948 0.609003 15.1445C0.499314 13.2076 0.776958 11.2716 0.820917 9.33594C0.821994 9.25385 0.376442 9.39551 0.377558 9.23633C0.384126 8.28102 0.261371 7.38687 0.704706 6.41602C0.749574 6.32535 1.5323 6.36877 1.41369 6.08203C1.39178 6.0258 1.28691 5.61738 1.11682 5.50195C1.08774 5.48769 0.725434 5.5657 0.714472 5.42578C0.658831 4.63596 0.742564 3.80186 0.966425 3.00293C1.00317 2.87252 1.39112 3.0101 1.42248 2.91895C1.62961 2.27174 1.33394 1.56645 1.6881 0.952148C1.9268 0.535739 2.60074 0.697624 3.26428 0.470703C3.35793 0.441489 3.3733 0.1867 3.75939 0.169922C4.73067 0.135411 5.79442 0.261497 6.82971 0.211914C6.94112 0.202852 6.93718 0.114835 6.97228 0.0537109C6.98104 0.0419151 6.99242 0.0233383 7.00842 0.0146484C7.01644 0.00787189 7.02601 0.00721011 7.03674 0.00195312C7.0394 0.00107542 7.04268 0.00131875 7.04553 0.000976562L7.04748 0H7.14025C7.14146 0.000458131 7.14293 0.00083134 7.14416 0.000976562ZM2.29357 118.736C2.49742 118.029 4.14588 118.022 3.82482 118.808C3.76655 118.948 3.38043 118.33 3.20568 118.478C2.88961 118.74 3.8283 119.291 3.23596 119.474C3.12723 119.502 2.28406 118.779 2.29162 118.735L2.29357 118.736ZM35.6139 118.736C35.8177 118.029 37.4662 118.022 37.1451 118.808C37.0869 118.948 36.7007 118.33 36.526 118.478C36.2099 118.74 37.1486 119.291 36.5563 119.474C36.4475 119.502 35.6044 118.779 35.6119 118.735L35.6139 118.736ZM6.67736 117.621C6.66604 117.602 6.53308 117.661 6.53478 117.686C6.6565 118.251 6.92952 118.128 6.67736 117.621ZM39.9977 117.621C39.9864 117.602 39.8534 117.661 39.8551 117.686C39.9768 118.251 40.2498 118.128 39.9977 117.621ZM2.69494 113.312C2.42213 113.362 2.6853 113.731 3.02502 113.669C3.29828 113.618 3.03449 113.247 2.69494 113.312ZM36.0153 113.312C35.7424 113.362 36.0056 113.731 36.3453 113.669C36.6186 113.618 36.3548 113.247 36.0153 113.312ZM3.89709 111.493C3.88693 111.527 3.86799 111.561 3.83459 111.596C3.65692 111.778 2.77379 111.825 2.64318 112.079C3.49175 112.253 3.45459 112.44 3.64025 112.823C3.66846 112.881 3.85983 112.887 3.95764 112.905C3.88995 112.7 3.72973 112.371 3.72717 112.174C3.7322 111.932 3.93423 112.287 3.96252 111.989C3.97575 111.85 3.93126 111.668 3.89709 111.493ZM37.2174 111.493C37.2072 111.527 37.1883 111.561 37.1549 111.596C36.9772 111.778 36.0941 111.825 35.9635 112.079C36.8121 112.253 36.7749 112.44 36.9606 112.823C36.9888 112.881 37.1801 112.887 37.2779 112.905C37.2103 112.7 37.05 112.371 37.0475 112.174C37.0525 111.932 37.2545 112.287 37.2828 111.989C37.2961 111.85 37.2516 111.668 37.2174 111.493ZM3.8131 110.82C3.75692 110.839 3.71016 110.871 3.69689 110.94C3.67507 111.057 3.80062 111.178 3.86682 111.306C3.86138 111.253 3.85946 111.203 3.86389 111.157C3.84684 111.039 3.83222 110.927 3.81408 110.821L3.8131 110.82ZM37.1334 110.82C37.0772 110.839 37.0305 110.871 37.0172 110.94C36.9954 111.057 37.1209 111.178 37.1871 111.306C37.1817 111.253 37.1798 111.203 37.1842 111.157C37.1672 111.039 37.1525 110.927 37.1344 110.821L37.1334 110.82ZM2.8756 110.572C3.38295 110.311 1.45411 109.933 1.81017 110.359C1.83069 110.384 2.83607 110.585 2.8756 110.572ZM36.1959 110.572C36.7033 110.311 34.7744 109.933 35.1305 110.359C35.151 110.384 36.1564 110.585 36.1959 110.572ZM3.70373 108.058C3.70908 108.186 3.72724 108.317 3.76037 108.452C3.76331 108.451 3.76658 108.451 3.76916 108.45C4.1096 108.298 3.90054 108.152 3.70373 108.058ZM37.024 108.058C37.0294 108.186 37.0476 108.317 37.0807 108.452C37.0836 108.451 37.0869 108.451 37.0895 108.45C37.4299 108.298 37.2209 108.152 37.024 108.058ZM2.70178 107.475C3.32713 107.263 2.45562 106.945 1.97424 107.087C1.49356 107.228 2.51167 107.538 2.70178 107.475ZM36.0221 107.475C36.6474 107.263 35.7759 106.945 35.2945 107.087C34.8139 107.228 35.832 107.538 36.0221 107.475ZM6.87365 105.249C6.50133 105.272 6.61062 105.44 6.95373 105.371C6.97397 105.366 6.98875 105.243 6.87365 105.249ZM40.194 105.249C39.8216 105.272 39.9309 105.44 40.274 105.371C40.2943 105.366 40.3091 105.243 40.194 105.249ZM3.14123 103.922C2.74444 103.935 2.47485 104.02 2.65588 104.355C2.68791 104.413 2.80446 104.481 2.95959 104.56C2.98366 104.493 3.06542 104.43 3.23986 104.382C3.28882 104.367 4.02244 104.162 3.51623 104.004C3.48465 103.994 3.1197 104.119 3.14123 103.922ZM36.4615 103.922C36.0648 103.935 35.7952 104.02 35.9762 104.355C36.0082 104.413 36.1248 104.481 36.2799 104.56C36.304 104.493 36.3857 104.43 36.5602 104.382C36.6091 104.367 37.3427 104.162 36.8365 104.004C36.805 103.994 36.44 104.119 36.4615 103.922ZM7.67736 103.974C7.54713 104.055 7.32503 103.963 7.25158 104.034C6.95308 104.328 7.3395 104.324 7.73498 104.314C7.75565 104.171 7.7738 104.028 7.7926 103.884C7.74753 103.922 7.70683 103.954 7.67736 103.974ZM40.9977 103.974C40.8674 104.055 40.6453 103.963 40.5719 104.034C40.2734 104.328 40.6598 104.324 41.0553 104.314C41.076 104.171 41.0941 104.028 41.1129 103.884C41.0678 103.922 41.0271 103.954 40.9977 103.974ZM35.2721 102.84C35.0407 102.918 34.8382 103.09 34.6549 103.261C34.5581 103.354 34.8647 103.765 34.775 103.843C34.6291 103.971 34.4764 104.088 34.3199 104.195C35.0705 104.053 34.8314 103.554 34.9274 103.213C34.9626 103.089 35.198 103.12 35.2799 103.037C35.3783 102.933 35.361 102.872 35.2897 102.834C35.2838 102.836 35.2779 102.838 35.2721 102.84ZM7.90295 102.979C7.6249 103.129 7.39069 103.089 6.88244 103.262C6.30545 103.461 7.41098 103.42 7.84924 103.458C7.86841 103.299 7.88498 103.139 7.90295 102.979ZM41.2233 102.979C40.9452 103.129 40.711 103.089 40.2028 103.262C39.6258 103.461 40.7313 103.42 41.1695 103.458C41.1887 103.299 41.2053 103.139 41.2233 102.979ZM16.3238 101.817C16.2691 101.87 16.2127 101.921 16.1549 101.971C16.3222 102.066 16.3692 101.994 16.3238 101.817ZM49.6442 101.817C49.5894 101.87 49.533 101.921 49.4752 101.971C49.6425 102.066 49.6895 101.994 49.6442 101.817ZM8.22326 100.943C7.9082 101.138 7.09135 101.217 7.6051 101.532C7.63538 101.549 7.84084 101.549 8.06603 101.564C8.10284 101.368 8.16556 101.157 8.22326 100.943ZM41.5436 100.943C41.2285 101.138 40.4117 101.217 40.9254 101.532C40.9557 101.549 41.1612 101.549 41.3863 101.564C41.4232 101.368 41.4859 101.157 41.5436 100.943ZM8.26232 99.9502C8.16126 99.9891 8.08307 100.018 8.06506 100.025C7.82652 100.123 7.25283 100.024 7.20666 100.057C6.9551 100.246 7.7968 100.273 8.33166 100.397C8.34325 100.253 8.33625 100.11 8.29846 99.9746C8.29521 99.9635 8.2819 99.9559 8.26232 99.9502ZM41.5826 99.9502C41.4816 99.9891 41.4034 100.018 41.3854 100.025C41.1468 100.123 40.5731 100.024 40.527 100.057C40.2754 100.246 41.1171 100.273 41.652 100.397C41.6636 100.253 41.6566 100.11 41.6188 99.9746C41.6155 99.9635 41.6022 99.9559 41.5826 99.9502ZM8.35119 98.0645C8.28995 98.2713 8.21703 98.4778 8.12756 98.6904C8.11524 98.715 7.73326 98.67 7.71447 98.7197C7.54068 99.2035 7.89253 99.2204 8.4176 99.4121C8.62208 98.9866 8.62695 98.5494 8.51916 98.1562C8.50224 98.0969 8.43212 98.0744 8.35119 98.0645ZM41.4479 98.6904C41.4356 98.715 41.0536 98.67 41.0348 98.7197C40.861 99.2035 41.2128 99.2204 41.7379 99.4121C41.8916 99.0922 41.9319 98.7668 41.8961 98.457C41.7955 98.4499 41.6876 98.425 41.568 98.3789C41.531 98.4816 41.492 98.5855 41.4479 98.6904ZM20.5289 97.9248C20.3195 98.0512 20.1094 98.1805 19.8912 98.3105C20.0113 98.4559 20.1294 98.5778 20.236 98.666C20.3801 98.5522 20.5188 98.4051 20.6403 98.2432C20.6061 98.1515 20.5633 98.0344 20.5289 97.9248ZM53.8492 97.9248C53.6398 98.0512 53.4297 98.1805 53.2115 98.3105C53.3316 98.4559 53.4497 98.5778 53.5563 98.666C53.7004 98.5522 53.8391 98.4051 53.9606 98.2432C53.9264 98.1515 53.8836 98.0344 53.8492 97.9248ZM18.5514 97.4043C18.4906 97.6493 18.5521 97.9672 18.7242 98.1846C18.7883 98.2224 18.8552 98.2572 18.9225 98.2881C18.9263 98.2622 18.9307 98.235 18.9322 98.2061C18.9378 98.1096 18.8499 97.7502 18.8883 97.5986C18.7558 97.5231 18.6262 97.4471 18.5514 97.4043ZM51.8717 97.4043C51.8109 97.6493 51.8724 97.9672 52.0445 98.1846C52.1086 98.2224 52.1756 98.2572 52.2428 98.2881C52.2466 98.2622 52.251 98.235 52.2526 98.2061C52.2581 98.1096 52.1702 97.7502 52.2086 97.5986C52.0761 97.5231 51.9465 97.4471 51.8717 97.4043ZM7.79162 97.8262C7.07878 97.62 7.00189 98.4098 7.75158 98.2383C7.7903 98.2301 7.82725 97.8401 7.79162 97.8262ZM41.1256 97.9121C40.9585 97.9909 40.7441 98.0109 40.568 98.1299C40.6273 98.232 40.7918 98.3023 41.0719 98.2383C41.0996 98.2324 41.1257 98.0311 41.1256 97.9121ZM19.2057 97.7559C19.2627 97.8553 19.3337 97.9891 19.3971 98.0605C19.3982 98.0618 19.3999 98.0632 19.401 98.0645C19.4171 97.9727 19.4228 97.8711 19.4186 97.7686C19.3987 97.7883 19.3618 97.7943 19.2887 97.7783C19.2646 97.7751 19.2367 97.7668 19.2057 97.7559ZM52.526 97.7559C52.583 97.8553 52.654 97.9891 52.7174 98.0605C52.7186 98.0618 52.7202 98.0632 52.7213 98.0645C52.7374 97.9727 52.7431 97.8711 52.7389 97.7686C52.719 97.7883 52.6821 97.7943 52.609 97.7783C52.5849 97.7751 52.557 97.7668 52.526 97.7559ZM8.62756 96.251C8.60944 96.6341 8.57475 97.0167 8.50646 97.3984C8.47335 97.5903 8.43095 97.7754 8.38049 97.959C8.47652 97.9628 8.57263 97.9619 8.59142 97.9346C8.67756 97.8086 8.6139 97.5656 8.64221 97.4668C8.69883 97.2807 8.69484 97.249 8.69885 97.0713C8.70755 96.8289 8.88583 96.5295 8.80432 96.2734C8.79602 96.2485 8.71752 96.2501 8.62756 96.251ZM19.0748 97.0635C19.24 97.2553 19.3373 97.3716 19.3444 97.3828C19.3578 97.4067 19.3668 97.4303 19.3766 97.4512C19.3357 97.2709 19.2711 97.1291 19.1969 97.1016C19.1541 97.0847 19.1134 97.0719 19.0748 97.0635ZM52.3951 97.0635C52.5603 97.2553 52.6576 97.3716 52.6647 97.3828C52.6781 97.4067 52.6871 97.4303 52.6969 97.4512C52.656 97.2709 52.5914 97.1291 52.5172 97.1016C52.4744 97.0847 52.4337 97.0719 52.3951 97.0635ZM19.3942 94.8398C19.3504 94.9937 19.2926 95.1473 19.2174 95.2988C19.1797 95.3727 18.7923 95.2937 18.7613 95.3457C18.657 95.5303 18.6787 95.723 18.6822 95.9131C19.1315 95.6219 19.5622 95.2884 19.9742 94.8848C19.7832 94.8698 19.5895 94.8562 19.3942 94.8398ZM52.7154 94.8398C52.6717 94.9936 52.6139 95.1474 52.5387 95.2988C52.501 95.3728 52.1121 95.2934 52.0817 95.3457C51.9773 95.5303 51.999 95.723 52.0026 95.9131C52.4518 95.6219 52.8825 95.2884 53.2945 94.8848C53.1038 94.8698 52.9104 94.8562 52.7154 94.8398ZM92.3824 83.8154C92.3925 83.8736 92.4498 83.9836 92.4996 84.0879C92.4693 83.9818 92.4294 83.86 92.3824 83.8154ZM2.99865 80.1338C3.37235 79.8976 1.99795 79.8722 2.32775 80.123C2.3479 80.1351 2.98033 80.1459 2.99865 80.1338ZM90.2975 69.6885C90.3075 69.695 90.3171 69.7013 90.3268 69.707C90.3133 69.6894 90.3041 69.6823 90.2975 69.6885ZM94.399 67.042C94.446 67.0084 94.4792 66.9513 94.4635 66.8252C94.4633 66.8232 94.4613 66.8205 94.4606 66.8174C94.444 66.8711 94.4023 66.8599 94.3483 66.8154C94.3649 66.8888 94.3825 66.9722 94.399 67.042ZM96.3912 66.624C96.372 66.5793 96.2537 66.6006 96.2653 66.6455C96.2758 66.6835 96.288 66.7193 96.2985 66.7539C96.3401 66.7393 96.3818 66.7246 96.4235 66.709C96.4127 66.6819 96.4033 66.653 96.3912 66.624ZM94.0553 66.4609C94.0021 66.387 94.0196 66.4927 94.0563 66.6494C94.0913 66.6334 94.1271 66.6187 94.1647 66.6113C94.1255 66.56 94.0877 66.5064 94.0553 66.4609ZM96.4195 66.2891C96.4658 66.4225 96.5212 66.5784 96.5338 66.5889C96.6411 66.6585 96.6478 66.569 96.6061 66.3682C96.5914 66.3751 96.5725 66.3774 96.5465 66.3721C96.4949 66.3606 96.454 66.3295 96.4195 66.2891ZM96.819 66.1768C96.8561 66.2754 96.8965 66.3853 96.9332 66.4922C96.9519 66.4835 96.9702 66.4737 96.9889 66.4648C96.965 66.3877 96.9407 66.3059 96.9147 66.2227C96.8767 66.2023 96.846 66.1858 96.819 66.1768ZM93.6266 66.1719C93.6318 66.1944 93.6353 66.2172 93.6403 66.2393C93.6429 66.2402 93.6455 66.2412 93.6481 66.2422C93.6403 66.2196 93.6346 66.196 93.6266 66.1719ZM98.3004 63.1973C98.6354 64.2486 98.6021 64.417 98.1588 63.4941C98.1484 63.5096 98.1409 63.5268 98.1295 63.541C98.0868 63.5953 98.0118 63.5469 97.9332 63.501C97.9755 63.6382 98.0106 63.7589 98.0192 63.833C98.0604 64.2232 97.8803 64.0406 97.7389 63.9492C97.7392 64.0279 97.7161 64.0893 97.6315 64.1133C97.6809 64.2577 97.7582 64.4432 97.7496 64.4834C97.716 64.6477 97.5333 64.3645 97.5143 64.5801C97.5137 64.6025 97.6896 65.042 97.6686 65.0654C97.5752 65.1604 97.4484 65.1404 97.3219 65.124C97.3604 65.2377 97.3915 65.3438 97.3961 65.3516C97.5662 65.6129 97.6548 65.8074 97.7574 66.0576C97.7883 66.0394 97.8194 66.0215 97.8502 66.0029C97.7657 65.7581 97.6941 65.5483 97.6783 65.4814C97.6248 65.2534 97.8703 65.6513 97.9479 65.7959C97.9653 65.8285 97.9821 65.8685 97.9987 65.9111C98.0263 65.8939 98.0541 65.8769 98.0817 65.8594C97.9621 65.5234 97.8135 65.1276 97.7809 64.9756C97.6118 64.1917 98.2033 65.5745 98.3404 65.6592C98.3759 65.6794 98.2401 65.3687 98.2496 65.3252C98.2889 65.1574 98.4996 65.5703 98.443 65.1025C98.434 65.0261 98.1941 64.1204 98.4733 64.7178C98.5134 64.804 98.6251 65.172 98.6891 65.2295C98.7848 65.3151 98.9067 65.3317 98.9186 65.1768C98.927 65.0619 98.6644 64.509 98.7828 64.6562C98.8358 64.723 98.9194 65.093 99.0084 65.1885C99.0145 65.195 99.0218 65.1992 99.0279 65.2041C99.0943 65.1549 99.1619 65.107 99.2281 65.0566C99.1943 64.9379 99.1171 64.7502 99.0904 64.6816C99.0393 64.7345 98.7588 64.2052 98.6725 64.0254C98.3995 63.4596 98.6148 63.743 98.5963 63.6836C98.4407 63.1931 98.3796 63.113 98.3336 63.1035C98.3228 63.1351 98.3116 63.1663 98.3004 63.1973ZM96.2672 65.2705C96.2937 65.2886 96.3165 65.2978 96.3356 65.3018C96.3 65.2768 96.2648 65.2566 96.233 65.2402C96.2448 65.2498 96.2547 65.2618 96.2672 65.2705ZM99.1979 62.4453C99.1931 62.4523 99.5479 63.6163 99.5631 63.6963C99.6646 64.1979 99.3992 63.3202 99.3199 63.2686C99.176 63.1773 99.019 62.9483 99.0445 63.3428C99.0519 63.4604 99.2517 64.1994 98.9908 63.6992C98.9566 63.633 98.8203 63.2609 98.8063 63.2432C98.5912 62.9859 98.9089 63.8765 99.0445 64.3828C99.0387 64.2849 99.0409 64.2084 99.0445 64.2031C99.3771 63.9162 99.9871 64.4399 100.236 63.959C100.254 63.9198 100.06 63.4786 100.058 63.4609C100.069 63.2979 100.24 63.7597 100.42 64.2109C100.432 64.2034 100.445 64.1951 100.458 64.1875C100.398 63.9864 100.444 64.0083 100.46 63.916C100.471 63.8442 100.313 63.4931 100.3 63.4531C100.13 62.8699 100.441 63.56 100.506 63.7002C100.748 64.2142 100.533 63.5584 100.695 63.9014C100.711 63.9346 100.724 63.9711 100.74 64.0078C100.75 64.001 100.76 63.9942 100.77 63.9873C100.729 63.8868 100.691 63.789 100.658 63.7021C100.657 63.7381 100.654 63.7695 100.648 63.7949C100.151 62.8217 100.159 63.2691 100.018 63.251C99.9694 63.2442 99.8585 62.9677 99.7965 62.8955C99.5657 62.6315 99.9812 63.511 100.013 63.6748C100.148 64.3686 99.3044 62.3064 99.1979 62.4453ZM102.042 59.5215C102.197 59.8945 102.486 60.4861 102.448 60.4854C102.286 60.4778 101.491 59.1101 102.041 60.4297C102.082 60.5269 102.183 60.7201 102.275 60.8975C102.161 60.7523 101.765 60.2514 101.98 60.7256C102.01 60.7925 102.192 61.1031 102.201 61.1387C102.25 61.3596 102.071 61.1461 102.084 61.3223C102.096 61.4992 102.127 61.7502 101.998 61.7109C101.92 61.6872 101.541 61.1444 101.442 61.0166C101.16 60.6474 101.474 61.3947 101.166 60.9141C101.114 60.8322 101.062 60.74 101.008 60.6426C101.006 60.6878 101.001 60.7352 100.998 60.7812C101.189 61.1537 101.382 61.5253 101.572 61.8945C101.347 62.0583 101.005 61.9598 100.818 62.167C100.796 62.1957 101.04 62.6419 101.021 62.6826C100.937 62.854 100.683 62.5999 100.622 62.8281C100.608 62.8843 100.61 62.9818 100.618 63.0947C100.753 62.925 101.083 63.1231 101.246 63.1475C101.185 63.061 101.12 62.9795 101.114 62.96C100.958 62.391 101.363 63.069 101.524 63.0664C101.529 63.0658 101.535 63.0643 101.541 63.0645C101.595 63.0537 101.647 63.0389 101.698 63.0215C101.687 62.8619 101.522 62.4841 101.5 62.2285C101.481 62.0211 101.678 62.4669 101.878 62.9453C101.96 62.9024 102.038 62.85 102.112 62.791C101.907 62.3005 101.756 61.9558 101.911 62.1006C101.923 62.1126 102.081 62.5391 102.121 62.5654C102.177 62.5995 102.231 62.6215 102.281 62.6387C102.483 62.4293 102.644 62.1629 102.765 61.877C102.759 61.8593 102.753 61.842 102.747 61.8242C102.753 61.84 102.761 61.8555 102.767 61.8711C102.783 61.8342 102.801 61.7983 102.815 61.7607C102.916 61.4908 102.263 61.129 102.692 61.2344C102.722 61.242 102.958 61.6065 103.027 61.5791C103.035 61.5757 103.042 61.5693 103.05 61.5645C102.924 61.2691 102.871 61.1082 103.009 61.2383C103.017 61.2482 103.073 61.3806 103.127 61.499C103.162 61.4596 103.194 61.4114 103.225 61.3613C103.168 61.1407 103.09 60.8735 103.127 60.7744C103.168 60.6634 103.397 60.8326 103.567 60.918C103.596 60.8798 103.621 60.8392 103.655 60.7861C103.573 60.5276 103.584 60.47 103.724 60.6816C103.739 60.6604 103.754 60.6396 103.77 60.6191C103.532 59.9581 103.343 59.9177 103.171 59.9746C103.105 60.0073 103.042 60.0414 102.976 60.042C102.886 60.0432 102.816 59.7434 102.732 59.6729C102.419 59.4154 102.775 60.3484 102.756 60.5312C102.696 61.1109 102.34 60.022 102.042 59.5215ZM111.221 59.9082C111.38 60.1097 111.576 60.337 111.621 60.4824C111.795 61.0658 111.127 60.862 111.048 61.1904C111.046 61.2007 111.049 61.2111 111.051 61.2227C111.091 61.2789 111.13 61.337 111.171 61.3955C111.254 61.4837 111.349 61.5712 111.343 61.6211C111.343 61.6266 111.339 61.6315 111.338 61.6367C111.721 62.1928 112.082 62.6679 112.178 62.126C112.24 61.8224 111.49 60.1501 111.647 59.8135C111.569 59.7538 111.494 59.6891 111.424 59.627C111.356 59.7214 111.289 59.8154 111.221 59.9082ZM99.693 61.4951C99.6773 61.6219 99.6235 61.6431 99.5221 61.5537C99.6698 61.8512 99.7699 61.9906 99.7584 61.7529C99.7573 61.7137 99.7315 61.6212 99.693 61.4951ZM100.45 60.8047C100.467 60.937 100.492 61.0881 100.517 61.2383C100.599 61.4062 100.69 61.5766 100.773 61.7061C101.08 62.1737 100.582 61.0117 100.45 60.8047ZM102.302 60.9316C102.449 61.1132 102.52 61.1871 102.541 61.1904L102.455 61.2754C102.452 61.2417 102.368 61.0773 102.275 60.8975C102.289 60.9147 102.298 60.9267 102.302 60.9316ZM101.27 60.1406C101.237 60.1405 101.206 60.147 101.176 60.165C101.405 60.5844 101.676 61.0159 101.604 60.75C101.599 60.7321 101.432 60.4307 101.27 60.1406ZM114.005 59.6523C113.422 59.2586 113.878 60.2971 114.313 60.6211C114.747 60.9456 114.185 59.7688 114.005 59.6523ZM104.213 59.6758C104.088 59.8955 103.987 60.2752 103.863 60.5117C104.001 60.3627 104.162 60.2184 104.268 60.0264C104.175 59.872 104.112 59.7553 104.296 59.9775C104.315 59.9378 104.332 59.8959 104.345 59.8516C104.355 59.8139 104.287 59.7499 104.213 59.6758ZM97.8961 54.5713C97.8093 54.0467 97.3282 55.1785 97.0338 55.4658C96.9966 55.5021 96.966 55.5176 96.941 55.5186C96.9752 55.8042 97.0898 56.6803 97.0944 56.7451C97.1234 57.1469 96.9632 56.3291 96.86 55.7891C96.8092 56.137 96.7402 56.4829 96.6529 56.8291C96.7006 57.1768 96.7487 57.5147 96.7272 57.502C96.6864 57.4756 96.6292 57.3073 96.5729 57.124C96.5345 57.2599 96.4941 57.3961 96.4498 57.5322C96.5183 57.9997 96.6245 58.6568 96.4225 57.8525C96.4189 57.8388 96.4046 57.7851 96.3873 57.7148C96.3634 57.7843 96.3405 57.8543 96.3151 57.9238C96.3176 57.9441 96.321 57.9584 96.3209 57.9639C96.3174 58.0713 96.2978 58.0555 96.276 58.0293C96.2468 58.107 96.2144 58.1838 96.1832 58.2617C96.1736 58.3074 96.1639 58.3408 96.1481 58.3496C96.1246 58.407 96.1042 58.4659 96.0797 58.5234C95.9384 58.8117 95.7812 59.1133 95.6061 59.416C95.6393 59.5041 95.666 59.5849 95.6764 59.5996C96.0598 60.1472 95.7826 59.2194 95.8092 59.1543C96.1181 58.5006 96.7407 58.9166 96.9205 57.9736C96.9266 57.94 96.6063 57.0023 96.9752 57.5967C96.9997 57.6384 97.0143 58.1505 97.2291 58.0498C97.4088 57.9649 97.8231 58.1235 98.0358 57.835C98.0303 57.8093 98.0236 57.7794 98.0182 57.7451C97.9714 57.4279 97.9851 56.5325 97.9635 55.6514C97.961 55.5499 97.9498 55.5179 97.944 55.2314C97.8046 55.3496 97.6692 55.4126 97.7281 55.0391C97.7408 54.9583 97.8993 54.6036 97.8961 54.5713ZM111.845 59.2832C111.083 58.5085 111.04 58.7048 111.743 59.3545C111.819 59.4242 111.799 59.2687 111.845 59.2832C111.987 59.463 112.098 59.6179 112.179 59.7441C112.229 59.6573 112.285 59.5792 112.343 59.5068C111.95 59.0074 111.944 59.2202 111.845 59.2832ZM112.574 58.7725C112.394 58.754 112.491 58.9436 112.658 59.1875C112.72 59.1343 112.783 59.0836 112.846 59.0332C112.757 58.9491 112.591 58.7753 112.574 58.7725ZM113.234 58.2139C113.041 58.2613 112.798 58.1839 112.9 58.6016C112.912 58.6493 112.973 58.7734 113.023 58.8896C113.189 58.7557 113.351 58.6148 113.491 58.4365C113.392 58.3275 113.279 58.204 113.234 58.2139ZM103.109 58.3691C103.095 58.378 103.081 58.3864 103.067 58.3945C103.068 58.4302 103.069 58.4683 103.07 58.5078C103.088 58.5214 103.106 58.5281 103.125 58.5273C103.124 58.5251 103.125 58.5228 103.125 58.5205C103.122 58.4905 103.117 58.4367 103.112 58.3721C103.111 58.3711 103.11 58.3701 103.109 58.3691ZM103.197 58.4834C103.202 58.477 103.207 58.4697 103.213 58.4619C103.207 58.4569 103.201 58.4523 103.195 58.4473C103.196 58.4591 103.196 58.4711 103.197 58.4834ZM103.001 58.4277C103.01 58.4422 103.019 58.4552 103.028 58.4668C103.027 58.4499 103.026 58.4326 103.025 58.415C103.017 58.4193 103.009 58.4236 103.001 58.4277ZM113.776 57.918C113.444 57.6409 113.012 57.2602 112.948 57.4102C112.946 57.4289 113.392 58.106 113.55 58.3564C113.638 58.2313 113.715 58.0883 113.776 57.918ZM115.603 56.9209C115.067 56.7284 116.378 58.6439 116.337 57.9697C116.331 57.9264 115.635 56.9326 115.603 56.9209ZM113.676 57.3516C113.634 57.3636 113.676 57.4376 113.748 57.5342C113.725 57.4775 113.701 57.4148 113.676 57.3516ZM105.101 57.0713C105.06 57.1044 105.054 57.2426 105.071 57.4238C105.101 57.3197 105.125 57.2258 105.144 57.1562C105.139 57.1445 105.134 57.1331 105.13 57.1221C105.121 57.1067 105.111 57.0896 105.101 57.0713ZM106.18 56.165C106.207 56.5364 106.198 56.1866 106.183 55.7959C106.174 55.7752 106.165 55.7552 106.155 55.7363C106.163 55.8882 106.171 56.0385 106.18 56.165ZM113.527 56.1387C113.529 56.135 113.532 56.1316 113.535 56.1279C113.534 56.1263 113.533 56.1247 113.533 56.123C113.531 56.1282 113.529 56.1335 113.527 56.1387ZM114.471 55.1797C114.436 55.2787 114.395 55.3669 114.354 55.4482C114.43 55.6166 114.519 55.7838 114.606 55.9072C114.614 55.9185 114.622 55.9282 114.63 55.9375C114.653 55.9058 114.676 55.8752 114.703 55.8477C114.661 55.6708 114.559 55.3867 114.471 55.1797ZM98.0367 55.376C98.0323 55.9555 98.0683 56.0017 98.0543 55.3994C98.054 55.3752 98.0368 55.352 98.0367 55.376ZM114.554 53.3584C114.823 53.991 115.095 54.6367 115.364 55.2783C115.379 55.2785 115.397 55.2799 115.417 55.2852C115.696 55.3597 116.341 55.9118 116.555 55.8037C116.499 55.7277 116.451 55.6567 116.407 55.5918C116.375 55.6719 116.331 55.7241 116.257 55.708C116.162 55.6869 115.804 55.1127 115.705 54.9805C115.421 54.598 115.645 55.4082 115.353 54.9062C115.079 54.4356 114.842 53.6079 114.567 53.3037C114.563 53.3231 114.558 53.3411 114.554 53.3584ZM105.354 55.1465C105.352 55.1632 105.353 55.1986 105.354 55.2471C105.364 55.2481 105.373 55.2499 105.383 55.25C105.373 55.1054 105.365 55.0453 105.354 55.1465ZM105.453 55.2344C105.427 54.7971 105.421 54.8194 105.44 55.2383C105.444 55.237 105.448 55.2359 105.453 55.2344ZM106.128 54.9277C106.129 54.9273 106.131 54.9272 106.132 54.9268C106.127 54.881 106.128 54.886 106.128 54.9277ZM106.255 54.875C106.261 54.872 106.266 54.8684 106.271 54.8652C106.252 54.4359 106.232 54.0223 106.207 53.79C106.223 54.149 106.239 54.5114 106.255 54.875ZM105.704 52.334C105.66 52.3556 105.611 52.5522 105.57 52.6963C105.607 52.7413 105.654 53.0018 105.703 53.1367C105.715 53.1696 105.715 52.4752 105.762 53.0225C105.789 53.3284 105.826 54.129 105.86 54.7617C105.88 54.7927 105.899 54.8232 105.918 54.8506C105.893 53.9284 105.854 52.5491 105.939 53.752C105.996 53.3374 106.106 54.1738 106.155 53.585C106.157 53.5577 106.139 52.9525 106.136 52.748C105.89 53.073 105.89 52.4492 105.757 52.3457C105.739 52.3418 105.722 52.3375 105.704 52.334ZM115.49 53.3965C115.101 52.9606 116.041 55.2268 116.007 54.6514C116.005 54.6172 115.515 53.4291 115.49 53.3965ZM117.024 54.1357C116.953 54.0877 116.905 54.0971 116.88 54.1396C116.906 54.253 116.979 54.4534 117.047 54.6387C117.069 54.6606 117.093 54.6814 117.12 54.6992C117.368 54.8653 117.333 54.3425 117.024 54.1357ZM106.263 52.4922C106.225 52.5919 106.19 52.6744 106.159 52.7197C106.153 52.7275 106.146 52.7333 106.141 52.7402C106.155 52.8594 106.176 53.1192 106.184 53.1416C106.226 53.262 106.242 52.9069 106.279 52.958C106.293 52.9796 106.308 53.4012 106.325 53.4287C106.342 53.451 106.326 52.8861 106.36 53.1572C106.386 53.3655 106.456 54.5158 106.484 54.6494C106.445 53.8026 106.446 53.5977 106.453 53.4238C106.407 53.4431 106.403 53.2993 106.448 52.9805C106.442 52.866 106.437 52.7511 106.437 52.7266C106.437 52.5219 106.461 52.8491 106.46 52.626C106.46 52.6147 106.458 52.5894 106.457 52.5557C106.428 52.5465 106.399 52.5374 106.371 52.5283C106.335 52.5159 106.299 52.5041 106.263 52.4922ZM106.745 54.1357C106.737 54.1542 106.73 54.1721 106.722 54.1895C106.724 54.3133 106.725 54.4467 106.726 54.5273C106.741 54.5187 106.754 54.5094 106.769 54.502C106.765 54.4203 106.762 54.3644 106.761 54.3486C106.756 54.2646 106.749 54.1942 106.745 54.1357ZM106.566 54.4092C106.578 54.571 106.584 54.5432 106.584 54.4199C106.576 54.4206 106.571 54.4183 106.566 54.4092ZM107.07 53.2998C107.033 53.3842 106.993 53.488 106.951 53.5986C106.953 53.7256 106.956 53.8166 106.956 53.8359C106.946 53.8206 106.936 53.7599 106.924 53.6689C106.898 53.7406 106.869 53.8134 106.842 53.8848C106.852 54.1109 106.862 54.3033 106.861 54.3682C106.858 54.5546 106.823 54.1614 106.821 54.4521C106.821 54.4566 106.821 54.4656 106.821 54.4785C106.849 54.4676 106.878 54.4591 106.908 54.4541C106.924 54.4514 106.938 54.4563 106.952 54.4668C107.157 54.1141 107.386 53.8231 107.6 53.5107C107.566 53.3964 107.515 53.345 107.38 53.5166C107.315 53.6001 107.019 54.2852 107.106 53.6846C107.112 53.6422 107.148 53.5113 107.18 53.3955C107.144 53.3652 107.107 53.3334 107.07 53.2998ZM96.9723 54.2188C96.9724 54.2545 96.9696 54.2905 96.9694 54.3262C96.9856 54.2743 96.9989 54.2409 97.0123 54.2217C97.0092 54.211 97.0056 54.2003 97.0026 54.1895C96.9922 54.1988 96.9829 54.2094 96.9723 54.2188ZM97.3258 53.8574C97.2712 53.9203 97.2121 53.9884 97.1442 54.0566C97.1522 54.1221 97.1582 54.1875 97.1656 54.25C97.2637 54.0682 97.3102 53.9456 97.3258 53.8574ZM105.387 53.0244C105.441 53.9047 105.497 54.5629 105.502 53.9521C105.502 53.9279 105.471 53.1318 105.481 53.123C105.499 53.143 105.531 53.3104 105.548 53.3057C105.555 53.2964 105.535 52.9329 105.53 52.8174C105.523 52.8333 105.516 52.8445 105.509 52.8477C105.432 52.8851 105.402 52.7851 105.365 52.709C105.369 52.762 105.377 52.8595 105.387 53.0244ZM106.563 53.8994C106.543 53.6159 106.537 53.8302 106.551 54.1533C106.555 54.0994 106.561 54.0413 106.567 53.9824C106.565 53.955 106.565 53.9272 106.563 53.8994ZM104.532 52.5957C104.557 53.1295 104.582 53.5481 104.603 53.8242C104.619 53.8246 104.636 53.824 104.653 53.8232C104.647 53.6377 104.641 53.4147 104.638 53.2275C104.637 53.1064 104.671 53.498 104.661 53.2285C104.654 53.0477 104.645 52.8624 104.637 52.6855C104.606 52.6463 104.574 52.6097 104.539 52.5781C104.536 52.5841 104.534 52.5901 104.532 52.5957ZM104.265 52.5059C104.241 52.5089 104.216 52.5115 104.192 52.5146C104.211 52.9148 104.228 53.33 104.238 53.4932C104.26 53.8789 104.247 53.4812 104.262 53.6924C104.263 53.6949 104.262 53.6977 104.262 53.7002C104.275 53.711 104.289 53.7208 104.303 53.7305C104.302 53.5594 104.302 53.3757 104.297 53.2295C104.288 52.9816 104.275 52.7304 104.265 52.5059ZM104.524 52.6133C104.474 52.7284 104.439 52.7647 104.412 52.7549C104.437 52.824 104.463 52.9014 104.49 53.0215C104.5 53.0675 104.518 53.593 104.524 53.626C104.576 53.8967 104.548 53.3576 104.524 52.6133ZM106.72 52.8721C106.666 53.0144 106.619 53.1297 106.579 53.2178C106.583 53.3373 106.586 53.4457 106.597 53.5156C106.603 53.5494 106.611 53.578 106.616 53.6025C106.619 53.5833 106.621 53.5658 106.624 53.5508C106.652 53.3863 106.674 53.2888 106.692 53.2344V53.2227C106.696 53.1976 106.7 53.197 106.705 53.2051C106.722 53.1653 106.729 53.1708 106.738 53.1885C106.74 53.1369 106.738 53.0475 106.735 52.8984C106.73 52.8899 106.725 52.8809 106.72 52.8721ZM117.826 51.5537C117.361 50.6103 117.645 51.8494 117.636 51.958C117.603 52.312 117.46 52.3438 117.358 52.4756C117.354 52.4775 117.341 52.4874 117.337 52.4893C117.304 52.5338 117.275 52.5942 117.262 52.6904C117.249 52.7844 117.311 53.0234 117.381 53.2754C117.682 53.1083 117.909 52.7519 118.121 52.4951C118.217 52.373 117.88 52.0911 117.885 52.0635C117.908 52.0018 117.942 51.9561 117.98 51.916C117.9 51.7275 117.838 51.579 117.826 51.5537ZM106.766 53.2539C106.768 53.2559 106.77 53.2557 106.772 53.25C106.777 53.2369 106.78 53.2235 106.785 53.2109C106.782 53.1219 106.78 53.0361 106.779 52.9668C106.769 52.9514 106.758 52.9361 106.748 52.9199C106.755 53.0484 106.761 53.1591 106.766 53.2539ZM106.808 53.1387C106.819 53.1079 106.829 53.0791 106.838 53.0518C106.825 53.0351 106.814 53.0166 106.801 52.999C106.804 53.0385 106.806 53.0858 106.808 53.1387ZM103.8 52.333C103.788 52.3393 103.776 52.3463 103.763 52.3516C103.8 52.9361 103.779 52.233 103.804 52.6328C103.813 52.7702 103.819 52.9309 103.826 53.082C103.83 53.0871 103.833 53.0925 103.837 53.0977C103.823 52.83 103.808 52.5373 103.8 52.333ZM105.342 52.6699C105.36 52.934 105.357 52.7743 105.358 52.6934C105.353 52.6846 105.347 52.6773 105.342 52.6699ZM103.691 52.375C103.695 52.4527 103.7 52.5347 103.704 52.6182C103.71 52.6485 103.716 52.6783 103.722 52.707C103.719 52.5385 103.729 52.5745 103.738 52.5059C103.74 52.4864 103.734 52.43 103.732 52.3613C103.718 52.3661 103.705 52.3713 103.691 52.375ZM106.509 52.6045C106.511 52.5944 106.513 52.5843 106.515 52.5742C106.512 52.5733 106.509 52.5722 106.506 52.5713C106.507 52.5828 106.509 52.5938 106.509 52.6045ZM104.327 52.499C104.335 52.5307 104.344 52.5589 104.352 52.585C104.349 52.5574 104.345 52.5282 104.342 52.498C104.337 52.4983 104.332 52.4987 104.327 52.499ZM116.608 51.8555C116.438 51.5779 116.44 52.033 116.652 52.377C116.821 52.6545 116.817 52.2023 116.608 51.8555ZM103.654 52.3867C103.657 52.402 103.661 52.4168 103.664 52.4316C103.666 52.4259 103.67 52.4202 103.672 52.4131C103.673 52.4097 103.671 52.3983 103.671 52.3809C103.665 52.3821 103.66 52.3856 103.654 52.3867ZM118.208 51.3086C118.194 51.3328 118.183 51.371 118.184 51.4346C118.184 51.4531 118.2 51.53 118.223 51.6377C118.251 51.5613 118.253 51.4606 118.208 51.3086ZM118.147 48.5762C118.233 48.5716 118.208 49.2907 118.361 49.4092C118.635 49.6275 118.33 48.338 118.723 48.8916C118.74 48.9166 118.765 49.0114 118.791 49.1406C118.865 49.3347 118.94 49.7915 119.099 49.7852C119.488 49.7679 118.912 48.6357 119.501 48.875C119.608 48.9201 120.026 50.1464 119.999 50.1816L119.998 50.1787C119.746 50.4395 119.26 50.2636 118.923 49.9678C118.946 50.1323 118.961 50.2552 118.959 50.2773C118.583 50.3972 117.668 48.6087 118.147 48.5762ZM116.041 49.0625C115.648 48.5776 116.271 46.5565 116.669 47.2119C116.739 47.33 116.183 47.5962 116.214 47.8594C116.269 48.3357 116.987 47.3652 116.883 48.1484C116.863 48.2919 116.061 49.0931 116.038 49.0645L116.041 49.0625ZM106.338 47.1152C106.214 47.199 106.089 47.2838 105.979 47.3281C106.006 47.3899 106.028 47.46 106.04 47.5352C106.134 47.4086 106.146 47.5478 106.041 48.0361C106.028 48.0202 106.014 48.0077 106.001 47.9941C105.971 48.0693 105.928 48.137 105.871 48.1934C105.897 48.2283 105.928 48.2399 105.966 48.2266C105.99 48.1674 106.016 48.1048 106.041 48.0381C106.06 48.0583 106.081 48.0735 106.103 48.0879C106.151 47.9445 106.248 47.5092 106.338 47.1152ZM112.957 46.7041C112.987 46.3397 112.675 46.6042 112.632 47.0527C112.596 47.4111 112.912 47.1526 112.957 46.7041ZM105.772 46.8428C105.762 46.922 105.752 47.0009 105.744 47.0703C105.779 47.0953 105.816 47.1196 105.851 47.1455C105.866 47.1565 105.879 47.1715 105.892 47.1865C105.909 47.0183 105.911 46.8844 105.901 46.7764C105.862 46.7957 105.818 46.8173 105.772 46.8428ZM84.0319 45.123C83.8162 45.4939 83.3608 46.3825 83.2613 46.4053C83.1006 46.4365 83.334 45.941 83.1588 45.9863C83.1425 45.9948 83.0301 46.3138 82.9576 46.252C82.6096 45.9568 82.2773 45.5168 81.8776 45.3037C81.8245 45.2762 81.7062 45.8311 81.6266 45.7969C81.5575 45.7669 81.4886 45.7321 81.4195 45.6943C81.3936 45.9408 81.3678 46.1886 81.3414 46.4375C81.3231 46.6083 81.2751 46.7916 81.2233 46.9805C81.2817 47.0134 81.326 47.0756 81.3697 47.1328C81.5219 47.0936 81.6753 47.0589 81.8297 47.0283C81.8651 46.9834 81.9051 46.9318 81.9469 46.8701C81.9269 46.9211 81.9084 46.97 81.8903 47.0166C82.4071 46.9184 82.9345 46.869 83.4635 46.8721C83.5343 46.6226 83.6112 46.3637 83.6949 46.0938C83.7894 45.8123 83.8972 45.4819 84.0319 45.123ZM105.583 46.957C105.591 46.9631 105.6 46.9695 105.609 46.9756C105.615 46.9727 105.622 46.9715 105.628 46.9678C105.632 46.9646 105.636 46.9465 105.641 46.9199C105.622 46.9317 105.602 46.9441 105.583 46.957ZM108.613 45.6973C108.603 45.4399 108.534 45.4444 108.451 45.582C108.503 45.6267 108.557 45.665 108.613 45.6973ZM109.819 45.5371C109.859 45.5553 109.899 45.5747 109.939 45.5947C109.987 45.3775 110.011 45.1781 109.973 45.0146C109.923 45.1883 109.87 45.3623 109.819 45.5371ZM104.474 45.0381C104.483 45.0434 104.491 45.0446 104.503 45.0361C104.507 45.0322 104.509 45.0011 104.516 44.957C104.502 44.9836 104.488 45.0108 104.474 45.0381ZM103.204 44.3125C103.135 44.0956 103.034 44.1937 102.919 44.4023C103.002 44.4334 103.092 44.4335 103.192 44.376C103.2 44.3426 103.205 44.3192 103.204 44.3125ZM102.468 43.5283C102.431 43.6483 102.296 43.9746 102.421 44.0352C102.423 44.0363 102.425 44.0379 102.427 44.0391C102.544 43.7137 102.526 43.5967 102.468 43.5283ZM99.5387 42.9668C99.6189 43.0842 99.7002 43.2056 99.7799 43.333C99.7995 43.2923 99.8183 43.2519 99.8365 43.2129C99.7333 43.14 99.6524 42.9926 99.5445 42.9395C99.543 42.9487 99.5405 42.9577 99.5387 42.9668ZM102.385 43.21C102.599 42.3139 102.47 42.2583 102.285 42.999C102.32 43.0606 102.353 43.1302 102.385 43.21ZM101.66 42.3232C101.578 42.3379 101.494 42.5428 101.409 42.7695C101.533 42.8565 101.649 42.9813 101.778 43.0078C101.854 42.5954 101.951 42.2723 101.66 42.3232ZM100.199 42.7529C100.17 42.7506 100.148 42.7771 100.129 42.8184C100.215 42.7973 100.29 42.8089 100.358 42.8408C100.308 42.7915 100.257 42.7575 100.199 42.7529ZM85.86 41.8506C85.8115 42.004 85.7698 42.1532 85.7516 42.2822C85.7706 42.2629 85.7899 42.2438 85.8092 42.2246C85.8479 42.1133 85.8814 42.0235 85.9117 41.9512C85.8935 41.9195 85.8763 41.886 85.86 41.8506ZM85.8463 41.2979C85.8569 41.3012 85.8675 41.293 85.8795 41.2783C85.8808 41.2752 85.8811 41.2717 85.8824 41.2686C85.8185 41.2587 85.7547 41.2483 85.691 41.2383C85.7418 41.2604 85.7931 41.2815 85.8463 41.2979ZM70.6451 39.4355C70.7319 39.4132 70.7775 39.3891 70.7281 39.3574C70.6942 39.3563 70.6591 39.3563 70.6237 39.3555C70.6304 39.3816 70.6382 39.4081 70.6451 39.4355ZM83.2945 39.2842C83.3208 39.2726 83.3459 39.2635 83.3678 39.2559C83.35 39.2354 83.3304 39.2168 83.3121 39.1973C83.3072 39.2264 83.3005 39.2552 83.2945 39.2842ZM99.2936 37.7812C99.5784 37.3004 99.7478 37.3117 99.6598 38.0498C99.5398 37.9487 99.4146 37.8797 99.2936 37.7812ZM79.8434 37.8535C79.8382 37.8803 79.8317 37.9075 79.8229 37.9346C79.8427 37.935 79.8626 37.9352 79.8824 37.9355C79.8687 37.9095 79.8564 37.8819 79.8434 37.8535ZM79.8561 36.459C79.7612 36.7425 79.6547 37.079 79.5563 37.3838C79.469 37.3612 79.385 37.3295 79.3033 37.291C79.2687 37.4843 79.2102 37.6662 79.1451 37.9209C79.2188 37.9227 79.2927 37.924 79.3668 37.9258C79.5023 37.5959 79.638 37.2637 79.691 37.1953C79.7094 37.1718 79.726 37.162 79.7408 37.1631C79.8159 36.8456 79.9454 36.3426 79.8561 36.459ZM78.1031 36.3838C78.0339 36.7838 77.9854 37.1289 78.2721 36.8115C78.2857 36.7958 78.3193 36.7127 78.3668 36.5977C78.2795 36.5232 78.1922 36.4506 78.1031 36.3838ZM77.1529 36.6377C77.1546 36.779 77.2106 36.7322 77.2985 36.5889C77.265 36.5657 77.2323 36.5386 77.2018 36.5039C77.173 36.5723 77.1535 36.6207 77.1529 36.6377ZM77.1266 35.0566C77.109 35.1268 77.0942 35.1974 77.0778 35.2676C77.0947 35.242 77.1126 35.2159 77.1305 35.1885C77.1388 35.1137 77.1403 35.0643 77.1266 35.0566ZM90.7526 34.6729C90.5164 35.1689 90.7424 35.3476 90.8707 34.7646C90.8729 34.74 90.7623 34.6531 90.7526 34.6729ZM71.7242 27.7314C71.6011 27.5194 71.0434 28.5954 70.9899 28.6152C70.9775 28.6191 70.9646 28.6202 70.9528 28.623C70.8858 28.955 70.8272 29.285 70.776 29.6152C70.9198 29.7306 71.0614 29.854 71.1969 29.9883C71.5526 30.3397 71.8779 30.7537 72.1656 31.2217C72.2499 31.3579 72.0395 31.6373 72.0162 31.6982C72.1063 31.6921 72.1987 31.6842 72.2926 31.6748C72.3207 31.6353 72.3424 31.6087 72.3512 31.6074C72.4087 31.6028 72.4556 31.6213 72.4977 31.6504C72.5369 31.6448 72.5766 31.6406 72.6158 31.6338C72.7093 31.6211 72.725 31.4852 73.111 31.4775C73.6704 31.4673 74.2604 31.4835 74.858 31.4951C74.5665 31.2002 74.2787 30.8895 73.9625 30.665C73.8502 30.5858 73.8282 31.0048 73.6539 30.9131C73.0129 30.5777 71.8081 30.2904 71.5104 29.2021C71.2716 28.3304 71.9784 28.1763 71.7242 27.7314ZM83.1862 30.6455C83.1908 30.62 83.1203 30.5545 83.0758 30.6738C83.1038 30.697 83.1321 30.7171 83.1617 30.7344C83.1692 30.7067 83.1792 30.6772 83.1862 30.6455ZM19.5377 24.2002C19.4331 24.7629 19.3497 25.3221 19.2779 25.8848C19.2959 25.8536 19.3127 25.8219 19.3307 25.791C19.4779 25.5405 19.6573 25.8329 19.7584 25.8818C19.7588 25.9492 19.7595 26.0231 19.7633 26.125C19.7683 26.2488 19.7767 26.3858 19.7916 26.5371C19.879 26.4243 19.968 26.3123 20.0563 26.2002C20.0967 26.1189 20.146 26.0378 20.2047 25.9561C20.2111 25.9471 20.233 25.9395 20.2662 25.9336C20.4056 25.7592 20.5471 25.5865 20.6891 25.4141C20.6664 25.3961 20.6425 25.3801 20.6168 25.3701C20.5877 25.3616 20.2251 25.4085 20.2145 25.3242C20.1956 25.1502 20.1935 24.9735 20.2067 24.7959C20.1447 24.7358 20.0816 24.6768 20.0182 24.6182C20.0899 24.8273 20.3899 25.7583 19.7897 25.8887C19.7804 25.8906 19.7699 25.8874 19.7584 25.8818C19.7582 25.8387 19.758 25.7974 19.7584 25.7539C19.7611 25.543 19.7716 25.3758 19.7838 25.2363C19.7962 25.0971 19.8095 24.9851 19.8229 24.8916C19.8328 24.8213 19.8416 24.7689 19.8502 24.7188C19.8664 24.6257 19.8803 24.5556 19.8922 24.5039C19.7752 24.3993 19.6578 24.2964 19.5377 24.2002ZM52.858 24.2002C52.7534 24.7629 52.67 25.3221 52.5983 25.8848C52.6162 25.8536 52.633 25.8219 52.651 25.791C52.7982 25.5405 52.9776 25.8329 53.0787 25.8818C53.0791 25.9492 53.0798 26.0231 53.0836 26.125C53.0886 26.2488 53.097 26.3858 53.1119 26.5371C53.1993 26.4243 53.2883 26.3123 53.3766 26.2002C53.417 26.1189 53.4663 26.0378 53.525 25.9561C53.5314 25.9471 53.5533 25.9395 53.5865 25.9336C53.7259 25.7592 53.8674 25.5865 54.0094 25.4141C53.9868 25.3961 53.9628 25.3801 53.9371 25.3701C53.908 25.3616 53.5454 25.4085 53.5348 25.3242C53.5159 25.1502 53.5138 24.9735 53.527 24.7959C53.465 24.7358 53.4019 24.6768 53.3385 24.6182C53.4102 24.8273 53.7103 25.7583 53.11 25.8887C53.1007 25.8906 53.0902 25.8874 53.0787 25.8818C53.0785 25.8387 53.0783 25.7974 53.0787 25.7539C53.0814 25.543 53.0919 25.3758 53.1041 25.2363C53.1165 25.0971 53.1298 24.9851 53.1432 24.8916C53.1531 24.8213 53.1619 24.7689 53.1705 24.7188C53.1868 24.6257 53.2007 24.5556 53.2125 24.5039C53.0955 24.3993 52.9781 24.2964 52.858 24.2002ZM11.3844 22.6152C11.5093 22.6297 11.6278 22.636 11.7369 22.6338C11.8739 22.6138 11.7856 22.5969 11.6852 22.5986C11.6049 22.5991 11.5006 22.6061 11.3844 22.6152ZM44.7047 22.6152C44.8296 22.6297 44.9481 22.636 45.0572 22.6338C45.1942 22.6138 45.1059 22.5969 45.0055 22.5986C44.9252 22.5991 44.8209 22.6061 44.7047 22.6152ZM6.52111 21.876C6.49782 22.077 6.45015 22.2927 6.42443 22.5098C6.51262 22.3206 6.60334 22.1324 6.69787 21.9463C6.63949 21.9258 6.5812 21.9009 6.52111 21.876ZM14.7018 21.7041C14.804 21.8214 14.9272 21.9461 15.0778 22.0752C15.2535 22.2544 15.5004 22.3779 15.776 22.4512C15.644 22.3598 15.5134 22.2686 15.3834 22.1768C15.3473 22.1542 15.3129 22.1301 15.2799 22.1045C15.0888 21.9691 14.8967 21.8348 14.7028 21.6982C14.7022 21.7001 14.7023 21.7022 14.7018 21.7041ZM48.0221 21.7041C48.1243 21.8214 48.2475 21.9461 48.3981 22.0752C48.5738 22.2544 48.8207 22.3779 49.0963 22.4512C48.9644 22.3598 48.8337 22.2686 48.7037 22.1768C48.6676 22.1542 48.6333 22.1301 48.6002 22.1045C48.4091 21.9691 48.217 21.8348 48.0231 21.6982C48.0225 21.7001 48.0226 21.7022 48.0221 21.7041ZM39.8414 21.876C39.8265 22.0049 39.8018 22.1399 39.7789 22.2773C39.7965 22.2933 39.8133 22.31 39.8307 22.3262C39.8916 22.1989 39.9543 22.0721 40.0182 21.9463C39.9598 21.9258 39.9015 21.9009 39.8414 21.876ZM7.33752 11.7607C7.30262 12.27 7.26919 12.7815 7.23596 13.2969C7.26342 13.3052 7.29067 13.3129 7.31701 13.3213C7.38249 13.3426 7.44705 13.3679 7.51232 13.3916C7.62298 13.3588 7.73248 13.3213 7.84142 13.2803C7.85289 13.0607 7.86158 12.8309 7.85607 12.5996C7.85343 12.4776 7.73269 12.4366 7.74767 11.9746C7.60826 11.9158 7.4715 11.8441 7.33752 11.7607ZM40.6578 11.7607C40.6229 12.27 40.5895 12.7815 40.5563 13.2969C40.5837 13.3052 40.611 13.3129 40.6373 13.3213C40.7028 13.3426 40.7674 13.3679 40.8326 13.3916C40.9433 13.3588 41.0528 13.3213 41.1617 13.2803C41.1732 13.0607 41.1819 12.8309 41.1764 12.5996C41.1737 12.4776 41.053 12.4366 41.068 11.9746C40.9286 11.9158 40.7918 11.8441 40.6578 11.7607ZM8.33557 12.4287C8.27801 12.6539 8.27549 12.8047 8.2965 12.8633C8.30767 12.8724 8.31811 12.8809 8.32971 12.8877C8.36648 12.8703 8.41602 12.743 8.44006 12.4834C8.44307 12.4595 8.34303 12.4073 8.33557 12.4287ZM41.6559 12.4287C41.5983 12.6539 41.5958 12.8047 41.6168 12.8633C41.628 12.8724 41.6384 12.8809 41.65 12.8877C41.6868 12.8703 41.7363 12.743 41.7604 12.4834C41.7634 12.4595 41.6633 12.4073 41.6559 12.4287ZM3.47131 1.29785C3.03527 1.19943 3.00014 1.57027 3.45373 1.49219C3.47198 1.48687 3.4894 1.30014 3.47131 1.29785ZM36.7916 1.29785C36.3556 1.19943 36.3205 1.57027 36.774 1.49219C36.7923 1.48687 36.8097 1.30014 36.7916 1.29785ZM2.1383 0.00195312C2.13208 0.00288545 2.12489 0.0033864 2.11779 0.00390625C2.10374 0.00494879 2.08786 0.00387693 2.06994 0.00195312C2.06543 0.00148668 2.06007 0.00144772 2.05529 0.000976562L2.05432 0H2.14221C2.14087 0.000625254 2.13968 0.001787 2.1383 0.00195312ZM35.4586 0.00195312C35.4524 0.00288545 35.4452 0.0033864 35.4381 0.00390625C35.4241 0.00494884 35.4082 0.00387691 35.3903 0.00195312C35.3857 0.00148668 35.3804 0.00144772 35.3756 0.000976562L35.3746 0H35.4625C35.4612 0.000625275 35.46 0.00178691 35.4586 0.00195312Z" fill="black"/>
</svg>
