<svg width="120" height="151" viewBox="0 0 120 151" fill="none" xmlns="http://www.w3.org/2000/svg">
<path d="M35.7441 0.057373C35.8546 -0.0499376 35.9973 -0.0114416 36.1084 0.213623C36.1621 0.323985 36.09 0.927572 36.1445 1.02417C36.2705 1.25048 36.4091 1.30015 36.541 1.18726C36.596 1.1345 36.5121 0.418326 36.584 0.407959C37.0753 0.336094 37.5643 0.212248 38.0625 1.14624C38.0967 1.21834 38.1275 2.67342 38.1992 2.39526C38.2046 1.9886 38.2037 1.50966 38.2061 1.07495C38.5418 0.964869 38.8833 1.01886 39.2119 1.11499C39.5953 1.22348 39.9717 1.38579 40.3506 1.42749C40.3816 1.42931 40.3285 0.653874 40.3887 0.656006C40.7255 0.667391 41.0601 0.45247 41.4062 1.22437C41.4401 1.30508 41.4233 2.66256 41.5225 2.45972C41.542 2.42203 41.6961 2.23936 41.7334 1.94312C41.7387 1.89843 41.7119 1.26229 41.7598 1.24194C42.0457 1.14509 42.3486 1.2907 42.6348 1.68042C42.6796 1.74834 42.6319 2.42395 42.6641 2.47534C42.8942 2.83475 43.1506 2.31991 43.373 2.93628C43.5222 3.35202 43.4668 4.52618 43.5459 5.6814C43.5543 5.82356 43.6279 5.86192 43.6484 6.31909C43.6827 6.33231 43.706 6.34157 43.7148 6.34741C43.9186 6.47419 43.8521 6.5465 43.6533 6.58862C43.6585 7.37056 43.652 8.18638 43.6455 9.01538C44.0139 9.09266 44.321 9.16387 44.2959 9.24585C44.2298 9.45235 43.934 9.60653 43.6406 9.7478C43.6386 10.0561 43.6373 10.3654 43.6367 10.6746C43.6777 10.6903 43.7201 10.709 43.7656 10.7253C44.1812 10.874 45.9587 10.7793 44.5508 11.2263C44.4617 11.2613 43.1768 11.5751 43.9805 11.8113C44.0821 11.84 44.5995 11.849 44.6426 11.8845C44.92 12.1103 44.5057 12.2586 44.7002 12.5212C44.895 12.7611 45.1868 13.0851 45.0107 13.363C44.9051 13.5319 43.9408 13.7587 43.7041 13.8464C43.6503 13.8657 43.6084 13.8868 43.5752 13.906C43.5757 14.0055 43.5735 14.1112 43.5732 14.2136C43.6314 14.2851 43.6738 14.3482 43.5713 14.407C43.5692 14.5113 43.5661 14.6047 43.5586 14.6736C43.5272 14.9533 43.4914 14.382 43.4414 14.7126C43.4377 14.736 43.4366 14.7616 43.4336 14.7888C43.8826 14.795 44.3311 14.8007 44.7764 14.8054C44.7338 15.6489 44.3102 16.5136 44.3848 17.3718C44.3965 17.4807 45.1154 17.3568 45.1465 17.4734C45.2697 17.9492 44.7641 18.3903 44.9805 18.8875C45.1507 19.2597 45.9274 19.6965 46.1309 20.0837C45.8703 20.1309 45.6698 20.1892 45.5156 20.2537C46.1782 21.0085 46.0381 21.021 46.2109 21.2712C46.4433 21.7287 46.5254 21.9984 46.5938 22.2126C46.6666 22.4585 46.6694 22.4797 46.6953 22.5808C46.716 22.6649 46.7324 22.7371 46.7461 22.8015C46.8025 23.0787 46.8116 23.1313 46.834 23.2576C46.8688 23.4488 46.891 23.5784 46.9111 23.6873C46.9512 23.9119 46.9816 24.0814 47.0107 24.2566C47.0682 24.5968 47.1153 24.9192 47.1543 25.2615C47.2069 25.7274 47.2403 26.2008 47.25 26.7302C47.2542 26.9992 47.2539 27.2722 47.2363 27.6277C47.2254 27.8155 47.2182 27.9925 47.1699 28.365C47.1554 28.4687 47.144 28.555 47.1074 28.7488C47.09 28.8392 47.0689 28.9414 47.0391 29.0642C47.0042 29.2056 46.9441 29.4397 46.8281 29.7527C46.7511 29.9425 46.7553 29.9911 46.4805 30.5193C46.2485 30.9107 45.956 31.4847 45.1123 32.1931C45.2834 32.1869 45.7266 32.1304 45.7393 32.2214C45.8549 33.0489 45.4683 33.7852 45.5 34.6687C45.5149 35.0785 45.9153 35.8104 45.8652 36.2585C45.8518 36.3825 45.817 36.5131 45.7695 36.6472C45.5189 37.3162 44.9146 38.093 45.1387 38.6345C45.3104 39.0567 45.9629 38.924 46.4209 39.0789C47.3075 39.3735 45.7869 40.0697 45.5479 40.1677C45.54 40.1705 45.3646 39.8173 45.0371 40.0281C44.3397 40.178 45.5424 40.1639 45.5479 40.1677C45.395 40.2295 45.2846 40.9665 45.418 41.1082C45.4909 41.1838 46.11 41.1067 46.1387 41.1462C46.7485 42.0671 46.9617 43.0454 46.7246 44.0388C46.7109 44.0565 46.0176 44.07 45.9951 44.1111C45.7164 44.6914 46.5907 45.0076 47.124 45.4509C47.6572 45.8956 47.5082 46.2816 46.3262 46.6218C46.4963 46.9633 45.9958 47.4995 45.6914 47.8113C45.6865 47.8163 45.6837 47.8231 45.6797 47.8279C45.6892 47.8764 45.6986 47.9249 45.708 47.9734C45.9385 48.1081 46.7537 48.0924 46.7764 48.1111C47.6823 48.8776 46.931 49.3679 46.8584 50.2097C46.8216 50.6056 47.0653 51.3968 47.2383 51.8054C47.3776 52.1342 47.0713 52.3566 47.293 52.656C47.3232 52.6964 47.9252 52.6181 47.9492 52.6296C48.6919 52.9345 47.2066 52.855 46.9453 52.9421C46.8339 52.9796 46.7281 53.015 46.6299 53.0496C46.6834 53.3727 46.7352 53.6954 46.7861 54.0173C47.4477 54.1078 48.2848 54.2181 48.3682 54.3259C48.5402 54.5582 47.7731 54.5121 47.9727 54.7546C47.9913 54.7751 48.4579 54.7439 48.4473 54.9011C48.4004 55.6325 48.1749 56.4559 48.2676 57.2107C48.2784 57.3134 49.0151 57.1371 49.0449 57.2839C49.1755 57.9775 49.1948 58.7509 48.8877 59.4617C48.8097 59.6367 48.2803 59.563 48.127 59.6091C47.2036 59.8945 48.5834 60.1246 48.6152 60.1765C49.3466 61.3829 48.1721 62.4361 48.8379 63.6697C48.8793 63.7376 50.37 64.183 49.1328 64.4998C49.0504 64.5213 47.7815 64.8372 48.6719 64.9929C48.7294 65.0019 49.3776 64.8147 49.3271 65.0759C49.276 65.3389 49.7426 65.7257 49.0391 66.1228C48.8173 66.2486 47.554 66.5926 48.5947 66.863C48.67 66.8808 51.005 67.2525 49.4268 67.5359C49.1666 67.5821 47.4799 67.6559 48.3682 68.0017C48.5404 68.0675 48.9081 67.905 49.1553 68.0916C49.5359 68.3781 49.11 68.8131 49.8838 69.1433C50.021 69.2008 51.181 69.409 50.3281 69.6882C50.1946 69.7319 49.6291 69.7008 49.5723 69.823C49.3058 70.4067 49.7188 70.9769 49.3662 71.5759C49.2422 71.7872 48.3278 71.7412 48.0967 71.9675C48.0898 71.9743 48.083 71.9819 48.0762 71.989C48.1307 72.2825 48.1829 72.5761 48.2314 72.8718C48.7716 72.9698 49.9635 72.7241 50.0889 73.0183C50.6837 74.4325 49.924 75.9167 49.8916 77.3679C49.8871 77.5826 50.3936 77.3731 50.4238 77.6873C50.5365 78.8477 51.151 80.8222 50.1152 81.9031C49.7174 82.3175 49.3408 82.3094 49.0215 82.2595C49.046 82.4572 49.0723 82.6543 49.0967 82.8513C49.4641 82.9343 49.8127 82.9958 49.8389 83.0261C50.4224 83.6921 49.708 84.2331 49.9775 84.8503C50.0336 84.9778 50.7071 84.8062 50.748 84.9148C50.8908 85.2867 50.6126 85.705 50.6914 86.0632C50.7285 86.2237 51.2471 86.1609 51.2178 86.3123C51.1508 86.6772 50.9519 87.01 50.4863 87.3914C50.4439 87.4261 49.7821 87.2538 49.7744 87.5203C49.772 87.633 49.7391 87.755 49.7021 87.8816C49.7441 88.2413 49.7842 88.5995 49.8252 88.9558C49.8324 88.9624 49.8391 88.9697 49.8467 88.9763C50.0059 89.1128 51.1974 89.0412 50.3955 89.4089C50.2264 89.4863 48.7928 89.4952 50.0518 89.783C50.2618 89.8319 51.9684 90.3413 50.9141 90.7136C50.7654 90.7662 50.3657 90.8713 50.0557 90.9822C50.0646 91.062 50.0732 91.1418 50.082 91.2214C50.2344 91.2125 50.3788 91.2188 50.4111 91.282C50.6535 91.7825 50.6203 92.3212 50.8555 92.8416C50.9195 92.9796 51.5675 92.7259 51.6426 92.9324C51.8479 93.5021 51.726 94.2352 51.5557 94.8113C51.4917 95.0234 50.9353 94.9168 50.875 94.9353C49.9199 95.2405 51.24 95.3014 51.3223 95.3777C51.8129 95.8546 51.2231 96.2799 51.416 96.7332C51.4676 96.8582 52.0845 96.7275 52.1436 96.7488C52.7046 96.9768 51.5731 96.8548 51.458 97.0291C51.1385 97.5207 51.2225 98.0338 51.334 98.5095C51.3765 98.682 52.0851 98.439 52.1162 98.5935C52.3026 99.5202 52.2948 100.464 51.9561 101.409C51.8906 101.585 51.3271 101.515 51.2012 101.558C50.3263 101.863 51.5638 102.141 51.6865 102.216C52.2401 102.555 51.7566 102.733 51.8701 103.055C52.4358 104.647 52.2414 106.664 52.1406 108.201C52.0129 110.208 51.5859 111.799 51.8486 113.668C51.8646 113.786 52.5976 113.618 52.6221 113.719C52.8919 115.073 52.689 116.395 52.9932 117.728C53.0182 117.835 53.7096 117.633 53.7715 117.803C53.9019 118.148 53.8951 118.623 53.6953 119.009C53.5989 119.196 52.9797 118.995 52.8945 119.182C52.6964 119.62 52.6757 120.068 52.8164 120.481C52.8787 120.666 53.5775 120.335 53.6035 120.578C53.674 121.22 53.7509 121.841 53.7705 122.448C53.8058 123.475 53.6946 124.437 53.1914 125.501C53.1348 125.617 51.6787 125.813 51.9746 126.028C52.3817 126.019 52.8596 125.986 53.2939 125.965C53.6844 128.308 53.3331 130.697 53.4111 133.075C53.415 133.174 54.1781 132.953 54.1895 133.143C54.2525 134.274 54.5367 135.325 53.8428 136.537C53.775 136.657 52.4072 136.673 52.6357 137.008C52.6779 137.07 52.8927 137.562 53.1963 137.665C53.2436 137.68 53.8712 137.546 53.9014 137.708C54.0599 138.651 53.9785 139.651 53.6504 140.626C53.5956 140.788 52.9116 140.664 52.8643 140.778C52.5539 141.576 53.1212 142.381 52.5508 143.171C52.166 143.705 50.983 143.586 49.8438 143.916C49.6835 143.966 49.6732 144.293 49.002 144.344C48.7063 144.361 48.4053 144.371 48.1006 144.381C48.0923 144.597 48.0882 144.76 48.085 144.791C48.0487 145.113 48.0103 144.825 47.9775 144.385C47.7432 144.391 47.5067 144.397 47.2686 144.401C47.2546 144.952 47.2591 145.669 47.2158 145.64C46.9997 145.483 46.8571 143.219 46.7188 145.189C46.689 145.61 46.7854 147.383 46.5908 145.993C46.5781 145.902 46.4272 144.633 46.3857 145.441C46.3806 145.544 46.396 146.057 46.3867 146.104C46.3223 146.387 46.2608 145.978 46.1875 146.177C46.1141 146.376 46.0272 146.673 45.9316 146.501C45.874 146.397 45.776 145.435 45.7432 145.2C45.65 144.523 45.6034 145.639 45.5342 144.817C45.5242 144.698 45.5166 144.57 45.5107 144.436C45.4854 144.437 45.46 144.437 45.4346 144.437C45.4485 145.052 45.4633 145.668 45.4775 146.277C45.2125 146.237 44.9392 145.811 44.6758 145.877C44.6441 145.892 44.6955 146.602 44.6621 146.637C44.5166 146.755 44.3729 146.246 44.2246 146.454C44.1098 146.619 43.9985 147.387 43.8789 147.584C43.7624 146.049 43.5905 146.573 43.4521 146.437C43.4037 146.39 43.3963 145.979 43.3594 145.845C43.2204 145.354 43.314 146.708 43.2852 146.926C43.1597 147.841 43.0678 144.776 42.8955 144.846C42.8864 144.85 42.8141 146.488 42.8008 146.595C42.7183 147.263 42.77 146.026 42.7051 145.905C42.5862 145.686 42.4984 145.298 42.377 145.78C42.3416 145.923 42.2726 146.948 42.1777 146.159C42.1653 146.054 42.1572 145.514 42.1484 145.482C41.9911 144.957 42.0288 146.66 41.96 147.239C41.8909 147.818 41.7351 146.645 41.7012 146.306C41.6127 145.432 41.7443 145.93 41.7461 145.844C41.7649 144.82 41.6755 144.998 41.6025 144.913C41.5528 143.243 41.4565 143.346 41.5273 144.832C41.5353 144.994 41.5864 144.838 41.6025 144.913C41.579 146.553 41.4743 146.766 41.3184 145.237C41.2912 144.97 41.2769 144.687 41.2637 144.452C41.1982 144.454 41.1349 144.457 41.0762 144.455C41.0682 144.856 41.0753 145.396 41.0361 145.597C40.8951 146.315 40.6666 145.25 40.5088 145.421C40.4516 145.483 40.5214 146.109 40.4834 146.177C40.3808 146.348 40.2762 145.881 40.1748 146.124C40.1663 146.154 40.2027 146.798 40.1709 146.814C39.9211 146.896 39.6919 146.479 39.4277 146.472C39.3001 146.47 39.0795 146.837 38.9463 146.767C38.7156 146.649 38.4163 145.699 38.2246 145.933C38.1003 146.085 38.1415 146.744 38.0957 147.194C38.0069 148.066 37.7903 146.51 37.7607 146.269C37.7644 146.255 37.8642 146.096 37.8008 145.766C37.754 145.072 37.7617 146.237 37.7607 146.269C37.7408 146.114 37.5198 145.97 37.4785 146.095C37.4566 146.166 37.481 146.782 37.4697 146.813C37.1898 147.378 36.8955 147.541 36.5938 147.255C36.5884 147.227 36.5837 146.55 36.5713 146.523C36.3941 146.216 36.2986 147.072 36.166 147.582C36.0335 148.091 35.9195 147.923 35.8145 146.725C35.7095 146.878 35.5468 146.35 35.4531 146.03C35.3602 145.713 35.3694 147.056 35.3623 147.097C35.1341 147.962 34.9803 147.186 34.7285 147.068C34.6089 147.011 34.3731 147.212 34.2461 147.362C34.1455 147.483 34.0783 147.167 33.9873 147.371C33.9751 147.399 33.9972 147.995 33.9941 148.027C33.8998 148.753 33.928 147.272 33.9023 147.008C33.8095 146.048 33.7531 145.538 33.626 145.991C33.5966 146.101 33.5378 148.222 33.4834 148.353C33.4125 148.512 33.4291 147.75 33.3545 147.934C33.3481 147.951 33.3555 148.419 33.3076 148.4C33.0842 148.313 32.8386 148.043 32.6104 148.093C32.5792 148.098 32.628 148.839 32.584 148.865C32.3731 148.956 32.1413 148.932 31.9277 148.585C31.8755 148.496 31.9008 147.972 31.8877 147.817C31.8078 146.884 31.7281 148.232 31.7119 148.272C31.3393 148.933 31.0399 147.702 30.6562 148.294C30.6352 148.334 30.49 149.793 30.4033 148.54C30.3971 148.452 30.3108 147.174 30.2578 148.052C30.2548 148.109 30.3067 148.767 30.2285 148.701C30.1502 148.635 30.0303 149.078 29.916 148.352C29.8794 148.123 29.7875 146.843 29.6963 147.865C29.6905 147.937 29.5583 150.249 29.4854 148.655C29.4735 148.39 29.4649 146.707 29.3535 147.572C29.3323 147.74 29.3783 148.116 29.3203 148.351C29.231 148.714 29.1032 148.265 28.9971 149.017C28.9785 149.152 28.9055 150.296 28.8291 149.427C28.8173 149.29 28.831 148.73 28.7949 148.666C28.6233 148.365 28.4453 148.743 28.2676 148.355C28.2048 148.218 28.2275 147.307 28.1611 147.064C28.0947 146.821 27.9643 146.588 27.9014 147.004C27.8385 147.42 27.9236 148.868 27.8252 148.989C27.3991 149.497 26.9496 148.651 26.5176 148.529C26.4534 148.511 26.5097 149.028 26.416 149.041C26.0643 149.082 25.4594 149.573 25.1504 148.471C24.8983 147.589 25.2031 146.914 25.0127 146.555C24.9216 146.387 24.8355 148.054 24.8135 148.126C24.6044 148.666 24.4522 147.923 24.2646 148.151C24.226 148.199 24.2666 148.877 24.2344 148.916C24.123 149.035 23.9982 148.733 23.8887 148.787C23.8394 148.814 23.8512 149.335 23.8057 149.297C23.6963 149.207 23.5992 148.988 23.4912 148.499C23.4818 148.451 23.5412 147.805 23.4619 147.78C23.3324 147.743 23.1709 147.262 23.0254 147.76C22.9814 147.911 22.9859 149.105 22.8857 148.281C22.8649 148.107 22.8834 146.677 22.7783 147.915C22.7604 148.122 22.5815 149.792 22.4854 148.716C22.4599 148.432 22.3927 147.262 22.3408 147.444C22.3341 147.477 22.3651 148.112 22.3223 148.177C22.1688 148.387 22.0094 148.321 21.8477 148.521C21.805 148.576 21.8704 149.236 21.8076 149.301C21.6322 149.469 21.4132 149.301 21.2432 149.094C21.1806 149.017 21.2214 148.469 21.2168 148.407C21.1404 147.438 21.102 148.74 21.0781 148.824C20.9287 149.283 20.8065 148.669 20.667 148.831C20.6289 148.877 20.6577 149.498 20.6504 149.556C20.5722 150.102 20.6282 148.977 20.5771 148.853C20.4344 148.504 20.2775 148.553 20.1367 148.634C20.0852 148.664 20.1441 149.385 20.0986 149.41C19.8175 149.536 19.5244 149.466 19.2549 149.067C19.2041 148.99 19.2345 148.431 19.2236 148.303C19.1497 147.412 19.0429 148.627 19.0176 148.746C18.9045 149.275 18.8585 148.783 18.7588 148.874C18.2764 149.334 17.6684 149.008 17.2119 148.806C16.6097 148.547 16.1435 148.015 15.5762 148.153C15.5396 148.161 15.5754 148.895 15.5449 148.922C15.1392 149.101 14.7397 148.812 14.3398 149.026C14.3081 149.048 14.354 149.744 14.3027 149.798C14.1992 149.905 14.0507 149.866 13.9414 149.641C13.8876 149.532 13.9594 148.928 13.9053 148.831C13.7865 148.618 13.6615 148.56 13.543 148.648C13.5353 148.654 13.5271 148.66 13.5195 148.667C13.4633 148.717 13.5471 149.434 13.4746 149.446C12.9797 149.518 12.5125 149.641 12.0127 148.708C11.979 148.641 11.9494 147.18 11.8789 147.459C11.8736 147.865 11.8734 148.344 11.8711 148.779C11.159 149.013 10.466 148.505 9.74707 148.427C9.71682 148.425 9.76811 149.196 9.70996 149.198C9.38377 149.187 9.0434 149.401 8.70508 148.63C8.67059 148.552 8.68662 147.191 8.58691 147.394C8.56909 147.433 8.42056 147.615 8.37891 147.911C8.37376 147.959 8.39994 148.589 8.35156 148.612C8.06911 148.709 7.77379 148.563 7.48926 148.174C7.44282 148.109 7.49092 147.438 7.45898 147.38C7.42618 147.39 7.39057 147.403 7.34961 147.412C7.16644 147.437 5.68812 146.525 5.69531 146.485C5.69643 146.486 5.69815 146.486 5.69922 146.487C5.80226 146.228 6.19406 146.032 6.64941 145.924C6.63902 145.618 6.63202 145.271 6.62012 144.909C6.10726 144.861 5.44846 144.766 5.31152 144.65C5.08752 144.461 5.62806 144.254 5.27148 143.977C5.18412 143.912 3.67065 143.45 3.57715 143.393C2.87491 142.967 5.35198 143.131 5.48926 143.125C6.72814 143.054 5.79424 142.65 5.39453 142.438C5.31589 142.398 5.25736 142.365 5.24023 142.345C4.76448 141.794 5.14887 141.445 4.80371 141.02C4.58061 140.738 2.96056 140.599 3.02441 140.406C3.23436 139.775 5.50849 139.648 3.58008 138.902C3.16768 138.745 1.388 138.803 2.80664 138.369C2.90127 138.348 4.18647 138.03 3.39062 137.784C3.29016 137.754 2.77479 137.733 2.73047 137.697C2.45887 137.458 2.87851 137.293 2.69043 137.042C2.50277 136.78 2.21993 136.449 2.40527 136.166C2.51899 135.992 3.48843 135.782 3.72656 135.712C4.41305 135.497 3.30785 135.197 4.13574 135.064C4.45689 135.016 4.83999 135.036 5.2207 135.056C5.19043 134.977 5.16042 134.896 5.13086 134.816C4.31553 134.777 3.49644 134.74 2.6875 134.703C2.76077 133.816 3.21615 132.998 3.17773 132.094C3.17008 131.989 2.44625 132.08 2.4209 131.966C2.31728 131.487 2.84255 131.035 2.64746 130.539C2.49364 130.141 1.73704 129.678 1.55176 129.272C3.09421 129.053 2.58486 128.407 2.73242 127.977C2.78429 127.823 3.19402 127.839 3.33008 127.729C3.83173 127.313 2.47045 127.488 2.25781 127.368C1.63479 127.006 2.9009 126.909 3.72754 126.69C3.72207 126.49 3.71923 126.292 3.7168 126.095C3.24752 125.969 2.68529 125.82 2.62598 125.788C1.96498 125.438 3.19802 125.737 3.32227 125.535C3.54921 125.17 3.94412 124.915 3.4707 124.458C3.3302 124.325 2.31192 123.988 3.10547 123.759C3.19636 123.732 3.61169 123.742 3.74414 123.73C3.74767 123.623 3.75192 123.515 3.75586 123.408C3.40656 123.217 2.44551 123.137 2.04199 122.937C1.4689 122.653 2.65005 122.227 2.99023 122.154C3.86932 121.943 3.36332 122.328 3.44922 122.341C3.58688 122.362 3.7029 122.373 3.80078 122.379C3.80938 122.207 3.81846 122.036 3.82715 121.864C2.78898 121.651 2.74568 121.355 3.87012 121.035C3.8865 120.717 3.90229 120.399 3.91895 120.082C3.84606 120.06 3.78454 120.035 3.74023 120.003C3.03012 119.486 4.11028 118.773 3.94629 118.255C3.88612 118.062 3.25567 118.243 3.19336 118.11C3.02611 117.757 3.50133 117.448 3.2627 117.083C3.2392 117.05 2.58088 117.124 2.57227 117.011C2.50386 116.15 2.93276 115.46 2.95215 114.552C2.95293 114.513 2.95072 114.47 2.94629 114.427C2.90051 114.001 2.61002 113.336 2.67969 112.931C2.80895 112.145 3.77297 111.246 3.54492 110.581C3.39873 110.15 2.73898 110.238 2.29102 110.051C1.42351 109.678 2.98539 109.09 3.22852 109.004C3.23932 109.009 3.39319 109.363 3.72949 109.174C4.42814 109.067 3.25269 109.009 3.22852 109.004C3.38474 108.95 3.53903 108.22 3.41406 108.072C3.34527 107.992 2.72246 108.032 2.69727 107.991C2.14452 106.982 1.99132 106.044 2.28906 105.032C2.312 105.015 3.00046 105.044 3.02148 105.003C3.33415 104.421 2.48236 104.065 1.97754 103.587C1.47273 103.111 1.64459 102.733 2.8457 102.456C2.69675 102.088 3.22947 101.589 3.55273 101.296C3.87293 101.005 2.52808 100.955 2.48926 100.929C1.63243 100.12 2.41311 99.6328 2.53809 98.8054C2.59956 98.4096 2.40655 97.6171 2.25977 97.1804C2.14157 96.8371 2.46031 96.6237 2.25781 96.3123C2.22876 96.2704 1.62835 96.3092 1.60156 96.2966C0.880026 95.9453 2.35688 96.1191 2.62305 96.0486C3.58542 95.7911 4.09872 95.6312 3.64844 95.1794C3.54532 95.0753 1.41718 94.7637 1.29102 94.573C1.1339 94.3252 1.89696 94.421 1.71289 94.1609C1.69277 94.139 1.22675 94.1405 1.24805 93.9812C1.34137 93.2371 1.6186 92.4458 1.57422 91.6736C1.5685 91.569 0.822971 91.7001 0.803711 91.5486C0.717749 90.8307 0.748214 90.058 1.10059 89.3669C1.19057 89.1977 1.71275 89.3057 1.86816 89.2693C2.80855 89.0454 1.44383 88.7172 1.41797 88.6638C0.765777 87.3813 2.00575 86.4327 1.4209 85.1296C1.38327 85.0576 -0.0756971 84.5107 1.17969 84.2751C1.26779 84.2581 2.54723 84.0245 1.67188 83.8113C1.61694 83.798 0.95471 83.9443 1.02246 83.6853C1.08994 83.4259 0.650251 83.0059 1.37793 82.6501C1.60867 82.5374 2.8892 82.2727 1.86914 81.9314C1.7917 81.9071 -0.509395 81.3813 1.08301 81.2009C1.34718 81.1716 3.0321 81.2067 2.16895 80.8025C2.00113 80.7258 1.62489 80.8637 1.39062 80.6609C1.02925 80.3497 1.48162 79.9397 0.731445 79.5554C0.598541 79.4884 -0.546018 79.201 0.323242 78.9753C0.460332 78.9403 1.0232 79.0093 1.08691 78.8894C1.39044 78.3172 1.01507 77.7207 1.40625 77.1414C1.54488 76.937 2.45479 77.0432 2.69922 76.8298C2.94351 76.6161 3.17876 76.185 2.76367 75.9597C2.34751 75.7344 0.895626 75.9759 0.780273 75.6394C0.279436 74.1799 1.13407 72.7341 1.26172 71.2771C1.27974 71.0619 0.761138 71.239 0.751953 70.9207C0.715702 69.7468 0.232468 67.7154 1.33789 66.7C2.22332 65.8867 2.89498 66.9132 3.25586 66.2908C3.42517 65.9902 1.74047 65.6603 1.6875 65.5876C1.14927 64.8756 1.89767 64.3832 1.66992 63.7449C1.6221 63.6134 0.938816 63.7404 0.905273 63.6287C0.787448 63.2462 1.09332 62.8421 1.03809 62.4744C1.01113 62.3098 0.488746 62.3387 0.529297 62.1873C0.620443 61.8249 0.841123 61.5048 1.33105 61.1531C1.3796 61.1228 2.02528 61.3378 2.0498 61.071C2.08802 60.6372 2.57157 60.1051 2.07422 59.6013C1.92439 59.4525 0.730099 59.4443 1.55469 59.1267C1.7293 59.0605 3.15945 59.1467 1.92285 58.7742C1.71702 58.7113 0.0469483 58.086 1.12402 57.783C1.4085 57.7029 2.58115 57.4994 2.39746 57.322C2.36471 57.2987 1.72624 57.3934 1.66406 57.2468C1.45556 56.7289 1.52534 56.1771 1.3252 55.6433C1.26966 55.5011 0.606308 55.7122 0.545898 55.4998C0.379034 54.9129 0.548359 54.1941 0.756836 53.616C0.835731 53.4054 1.38315 53.5507 1.44434 53.5359C2.41671 53.2893 1.10524 53.1415 1.02832 53.0593C0.570719 52.5485 1.18752 52.1622 1.02539 51.6951C0.981767 51.5667 0.357951 51.6558 0.299805 51.6306C-0.245524 51.3641 0.878638 51.5633 1.00293 51.3953C1.35416 50.9292 1.30502 50.3882 1.22559 49.9099C1.19483 49.7339 0.46882 49.9304 0.450195 49.7722C0.326239 48.8367 0.396757 47.8713 0.797852 46.9519C0.87544 46.7807 1.43314 46.8877 1.56152 46.8523C2.4541 46.606 1.23794 46.244 1.12109 46.1609C0.591755 45.7837 1.08609 45.6382 0.994141 45.3074C0.536467 43.6578 0.865668 41.6437 1.06934 40.1121C1.33155 38.0939 1.86511 36.5269 1.72852 34.6326C1.71935 34.5091 0.978454 34.6321 0.959961 34.5261C0.781724 33.1502 1.07331 31.8291 0.859375 30.4705C0.840983 30.3615 0.138254 30.5183 0.0878906 30.3425C-0.0190799 29.9884 0.0197103 29.5086 0.245117 29.1355C0.354514 28.9542 0.958776 29.1975 1.05566 29.0144C1.28248 28.5883 1.33338 28.1377 1.2207 27.7136C1.17071 27.5271 0.449797 27.8109 0.441406 27.5642C0.412862 26.8821 0.375312 26.2225 0.40332 25.5818C0.444526 24.5739 0.626399 23.6548 1.18262 22.6404C1.25286 22.5273 2.71157 22.4277 2.43164 22.1902C2.02501 22.1721 1.54595 22.1729 1.11133 22.1648C0.878726 19.7707 1.38861 17.4314 1.46875 15.0134C1.46905 14.9128 0.695094 15.0866 0.697266 14.8904C0.709421 13.7776 0.495073 12.6537 1.26758 11.5037C1.34638 11.3894 2.7096 11.4447 2.50391 11.113C2.46624 11.0638 2.28371 10.5375 1.9873 10.408C1.94122 10.3905 1.3046 10.4819 1.28613 10.3191C1.23117 9.77276 1.25663 9.21344 1.36035 8.65601C1.31765 8.1539 1.27531 7.54181 1.29492 7.39819C1.3292 7.15219 1.45221 7.66086 1.49609 7.2771C1.50632 7.18197 1.48294 5.63162 1.48926 5.53296C1.53731 4.81739 1.7357 7.09059 1.76465 7.37476C1.8056 7.35312 1.87198 7.34528 1.94922 7.34351C1.95404 7.20391 1.95735 7.08916 1.96289 7.0603C2.07042 6.51977 2.22377 6.85697 2.31934 6.47046C2.38228 6.22006 2.26558 4.59866 2.33398 4.64331C2.45245 4.72086 2.57489 5.36716 2.67285 5.69214C2.6961 5.50253 2.74906 5.31697 2.85645 5.13647C2.85712 5.11519 2.85875 5.0934 2.85938 5.07104C2.87131 4.64972 2.69561 2.88136 2.95508 4.26245C2.96353 4.30732 3.01924 4.64069 3.07422 4.86597C3.10873 4.83812 3.14679 4.81341 3.1875 4.79077C3.18555 4.66388 3.15094 4.18624 3.1582 4.14136C3.21135 3.85615 3.29087 4.26234 3.35742 4.0603C3.42392 3.85741 3.50072 3.55687 3.60547 3.72534C3.64828 3.79496 3.72599 4.25464 3.78516 4.61694C3.89066 4.60113 4.00235 4.58809 4.11914 4.5769C4.10527 4.36022 4.09205 4.14396 4.07812 3.92847C4.35071 3.95691 4.64652 4.37247 4.91211 4.29565C4.94489 4.28476 4.86324 3.56952 4.89648 3.53491C5.04098 3.41021 5.20858 3.9151 5.35254 3.70093C5.46366 3.53183 5.54888 2.75965 5.66504 2.55835C5.8407 4.08885 5.99688 3.55636 6.14355 3.68823C6.1771 3.71938 6.19829 3.9069 6.2207 4.06909C6.25407 4.05932 6.29034 4.051 6.33008 4.0437C6.31848 3.73435 6.28614 3.30711 6.29785 3.19312C6.34939 2.70641 6.42831 3.33495 6.51758 4.02319C6.54101 4.02187 6.56561 4.01782 6.59082 4.01733C6.65827 4.01575 6.726 4.01541 6.79395 4.0144C6.79876 3.75265 6.80222 3.54344 6.80566 3.50659C6.85597 2.9688 6.85862 3.6578 6.89355 4.01343C7.02777 4.01197 7.16289 4.01011 7.29883 4.0105C7.32824 3.70858 7.37184 3.37084 7.45703 3.92065C7.45987 3.93914 7.4606 3.97164 7.46387 4.01245C7.51714 4.01285 7.57052 4.01379 7.62402 4.0144C7.62759 3.59969 7.62318 3.09962 7.64746 2.83374C7.70086 2.25422 7.89566 3.41993 7.94043 3.75757C7.95467 3.86397 7.96462 3.95005 7.97168 4.01929C8.01394 4.02008 8.05625 4.02134 8.09863 4.02222C8.12263 3.71104 8.16647 3.70282 8.23535 4.02515C8.54918 4.03228 8.86599 4.04063 9.18457 4.04956C9.17971 3.95136 9.1785 3.87371 9.19043 3.85229C9.29114 3.67633 9.41013 4.14251 9.50781 3.89624C9.51628 3.86976 9.46165 3.21661 9.49512 3.20581C9.74989 3.11747 9.99523 3.52829 10.2646 3.52808C10.395 3.52753 10.6131 3.15428 10.751 3.22144C10.9905 3.33452 11.3161 4.27877 11.5059 4.04077C11.6301 3.88673 11.5767 3.22823 11.6152 2.7771C11.6903 1.90323 11.9401 3.45465 11.9746 3.69507C11.9728 3.70572 11.8977 3.82555 11.9219 4.06909C11.9263 4.06895 11.9311 4.06923 11.9355 4.06909C11.9512 4.06846 11.9653 4.06606 11.9785 4.06421C11.9768 3.88601 11.9744 3.70535 11.9746 3.69507C11.9892 3.79323 12.0866 3.88464 12.166 3.90698C12.1867 3.87388 12.2137 3.84414 12.2676 3.8269C12.2775 3.67576 12.2537 3.17535 12.2637 3.14624C12.5414 2.57666 12.8388 2.40732 13.1514 2.68921C13.1573 2.71435 13.1724 3.39869 13.1855 3.42065C13.3712 3.72444 13.4565 2.86699 13.585 2.35522C13.7138 1.84365 13.8355 2.0103 13.958 3.20679C14.0636 3.05244 14.2345 3.57815 14.334 3.89722C14.4324 4.21171 14.4073 2.86912 14.4141 2.82886C14.6387 1.96168 14.8012 2.7346 15.0615 2.84937C15.1863 2.90561 15.4211 2.70248 15.5498 2.55054C15.6512 2.42814 15.7228 2.74437 15.8145 2.53882C15.8266 2.50833 15.7987 1.9114 15.8018 1.88257C15.8911 1.15638 15.8758 2.63689 15.9043 2.90112C16.0076 3.86009 16.0693 4.37063 16.1953 3.91577C16.2242 3.8087 16.267 1.68439 16.3223 1.55249C16.3942 1.39267 16.3837 2.15516 16.458 1.96948C16.464 1.94708 16.4525 1.48316 16.501 1.50269C16.7266 1.58792 16.9821 1.85718 17.2129 1.80542C17.2446 1.80011 17.1888 1.05403 17.2344 1.03296C17.4484 0.939947 17.6906 0.962543 17.9062 1.30835C17.9595 1.3967 17.937 1.91939 17.9512 2.07495C18.0376 3.00867 18.1096 1.65931 18.126 1.61987C18.4421 1.06547 18.7098 1.83289 19.0176 1.75464C19.0771 1.73915 19.1383 1.69024 19.2012 1.59253C19.2217 1.55761 19.363 0.0896144 19.457 1.34448C19.4637 1.43155 19.5569 2.71039 19.6074 1.83276C19.6106 1.77775 19.5544 1.11708 19.6348 1.18237C19.7154 1.2474 19.8346 0.805697 19.9541 1.53003C19.992 1.75961 20.0923 3.03874 20.1797 2.01636C20.185 1.9449 20.3104 -0.368582 20.3896 1.22534C20.4026 1.48973 20.4172 3.17332 20.5264 2.30835C20.5472 2.14036 20.4997 1.76402 20.5576 1.52808C20.6466 1.16495 20.7778 1.61419 20.8838 0.862061C20.9021 0.728707 20.974 -0.418106 21.0547 0.449951C21.0672 0.586611 21.0538 1.14976 21.0908 1.21265C21.2673 1.51222 21.4439 1.13376 21.625 1.52124C21.6889 1.65856 21.6695 2.56768 21.7373 2.81128C21.8052 3.05427 21.9373 3.28715 22 2.87085C22.0627 2.45368 21.9722 1.00431 22.0723 0.885498C22.5099 0.376433 22.9567 1.22209 23.3984 1.34253C23.4637 1.35963 23.405 0.842326 23.501 0.830811C23.8566 0.788525 24.4665 0.296043 24.7842 1.39722C25.0382 2.27893 24.7334 2.95515 24.9248 3.31323C25.0168 3.48048 25.1013 1.80151 25.123 1.74194C25.3332 1.20059 25.4886 1.94581 25.6797 1.71558C25.7187 1.66539 25.6749 0.98762 25.708 0.950928C25.823 0.83149 25.9472 1.13495 26.0576 1.07886C26.1072 1.05186 26.0946 0.530078 26.1406 0.570068C26.2507 0.659888 26.3491 0.879406 26.459 1.36792C26.4682 1.41871 26.4089 2.06142 26.4893 2.08569C26.6202 2.12238 26.7864 2.60334 26.9336 2.10425C26.9772 1.9528 26.971 0.760843 27.0723 1.58374C27.0935 1.7576 27.078 3.18832 27.1816 1.95093C27.1991 1.74493 27.3762 0.072575 27.4756 1.14917C27.5017 1.43349 27.5705 2.60234 27.623 2.42065C27.6301 2.39124 27.5978 1.75206 27.6416 1.68726C27.7974 1.47706 27.9618 1.54406 28.1221 1.34253C28.1646 1.28669 28.0971 0.627341 28.1602 0.563232C28.3361 0.394601 28.5576 0.561635 28.7305 0.768311C28.794 0.84668 28.7541 1.39445 28.7588 1.45581C28.8382 2.42563 28.876 1.121 28.9004 1.03882C29.0519 0.580037 29.1714 1.1936 29.3115 1.03198C29.3501 0.988603 29.321 0.367224 29.3281 0.306396C29.406 -0.239467 29.351 0.884146 29.4023 1.00854C29.5468 1.35824 29.7068 1.30779 29.8506 1.22729C29.9034 1.19678 29.8415 0.472578 29.8887 0.451904C30.1681 0.325606 30.4657 0.393719 30.7402 0.792725C30.7918 0.870322 30.7623 1.42828 30.7734 1.5564C30.8507 2.44689 30.9555 1.23607 30.9805 1.11499C31.093 0.584716 31.1401 1.07803 31.2402 0.986084C31.7302 0.525009 32.3413 0.850262 32.8037 1.05151C33.4121 1.31048 33.8785 1.84175 34.458 1.70288C34.4944 1.69476 34.4572 0.95294 34.4883 0.934326C34.8965 0.754464 35.2998 1.04388 35.7061 0.828857C35.7391 0.812528 35.6913 0.108655 35.7441 0.057373ZM44.7695 144.456C44.776 144.749 44.7931 145.07 44.8232 145.32C44.8972 145.931 44.9211 145.056 44.9111 144.451C44.8639 144.453 44.8167 144.454 44.7695 144.456ZM45.9092 144.427C45.9309 144.951 45.9716 145.363 46.0186 145.079C46.021 145.058 46.0135 144.77 46.0059 144.426C45.9736 144.426 45.9414 144.427 45.9092 144.427ZM6.87598 144.127C6.88341 144.496 6.94513 144.513 6.95215 144.126C6.92598 144.126 6.9006 144.126 6.87598 144.127ZM6.57812 144.135C5.9197 144.162 6.19932 144.242 6.5957 144.37C6.59205 144.304 6.59037 144.238 6.58594 144.173C6.58509 144.159 6.58003 144.147 6.57812 144.135ZM6.47949 141.79C6.40055 142.032 6.37163 142.289 6.34473 142.534C6.33317 142.642 6.32247 142.745 6.30859 142.843C6.29999 142.911 6.37523 142.946 6.47852 142.966C6.47738 142.58 6.47715 142.188 6.47949 141.79ZM49.4258 142.938C50.1912 143.011 50.2254 142.562 49.4434 142.704C49.4121 142.712 49.3945 142.937 49.4258 142.938ZM37.8604 142.465C37.8968 142.649 37.9387 142.747 37.9902 142.75C38.0514 142.751 38.0636 142.481 38.0762 142.149C38.0212 142.234 37.943 142.348 37.8604 142.465ZM39.4873 140.548C39.434 140.592 39.3798 140.637 39.3252 140.683C39.3717 141.415 39.4447 141.226 39.4873 140.548ZM40.6934 139.47C40.4523 139.695 40.175 139.952 39.8564 140.237C39.8732 140.412 39.8685 140.787 39.873 140.838C39.8774 140.884 39.8827 140.926 39.8867 140.962C39.9125 140.95 39.9396 140.94 39.9678 140.932C39.9825 140.724 39.9933 140.457 40.0029 140.434C40.1253 140.178 40.2441 140.31 40.3604 140.37C40.3419 140.18 40.3076 139.989 40.4102 139.798C40.434 139.753 40.5519 139.742 40.6895 139.736C40.6901 139.654 40.6916 139.558 40.6934 139.47ZM6.34277 140.412C6.80853 140.316 6.30392 139.908 5.72461 140.035C5.25881 140.136 5.7626 140.532 6.34277 140.412ZM41.3271 138.877C41.1648 139.029 40.9734 139.209 40.75 139.418C40.7537 139.455 40.7595 139.497 40.7637 139.545C40.7654 139.566 40.7602 139.639 40.7559 139.732C40.955 139.725 41.1702 139.723 41.1963 139.658C41.3011 139.387 41.3255 139.13 41.3271 138.877ZM41.3223 138.557C40.9669 138.825 40.5956 139.11 40.2197 139.401C40.2276 139.398 40.236 139.396 40.2441 139.392C40.3862 139.333 40.514 139.275 40.6289 139.219C40.8585 139.105 41.0405 138.998 41.1914 138.903C41.2487 138.867 41.2904 138.835 41.3271 138.81C41.3264 138.726 41.3254 138.642 41.3223 138.557ZM6.49316 138.153C6.03359 138.277 5.57203 138.412 5.47168 138.573C5.94722 138.601 6.267 138.643 6.49414 138.701C6.49381 138.518 6.49453 138.335 6.49316 138.153ZM40.7334 136.74C40.5437 137.222 40.3502 137.68 40.1494 138.135C40.0908 138.267 40.0301 138.398 39.9707 138.529C39.9785 138.528 39.9864 138.528 39.9941 138.527C40.6986 138.411 41.0537 138.295 41.3135 138.204C41.3136 138.063 41.3202 137.92 41.3428 137.773C41.3834 137.511 41.4192 137.249 41.4541 136.988C41.2148 136.905 40.974 136.818 40.7334 136.74ZM5.68066 136.733C6.52505 136.352 3.1385 136.175 3.80859 136.629C3.85072 136.657 5.62253 136.756 5.68066 136.733ZM4.42676 132.568C4.18012 132.568 3.92571 132.594 3.71777 132.653C3.10683 132.825 3.95052 133.002 4.55371 133.042C4.50904 132.883 4.46679 132.725 4.42676 132.568ZM4.99805 99.9714C5.6497 99.6991 3.26025 99.6473 3.83105 99.948C3.87418 99.9626 4.96613 99.9854 4.99805 99.9714ZM40.374 26.1687C40.6084 26.0881 40.8258 25.9909 41.0195 25.8884C40.8591 25.8694 40.5348 25.8307 40.2988 25.7771C40.3242 25.9083 40.349 26.0389 40.374 26.1687ZM43.8232 16.8513C44.6326 16.6024 42.826 16.4178 42.5068 16.532C41.4568 16.8985 43.0122 17.1069 43.8232 16.8513ZM42.1123 14.53C41.7016 14.5218 41.3022 14.5222 40.9971 14.613C41.0118 14.6638 41.0241 14.713 41.0361 14.7605C41.3941 14.7635 41.7542 14.7687 42.1152 14.7732C42.1115 14.7143 42.1116 14.6256 42.1123 14.53ZM43.6523 12.9939C43.6437 13.0341 43.636 13.079 43.627 13.1267C43.6896 13.0905 43.7042 13.0482 43.6523 12.9939ZM37.4648 12.1375C37.2318 11.6445 36.9746 11.5068 36.7373 11.5828C36.9374 11.8605 37.0682 12.0936 37.1826 12.3064C37.1848 12.3105 37.1863 12.315 37.1885 12.3191C37.2719 12.2876 37.366 12.257 37.4736 12.2253C37.4772 12.2245 37.4808 12.2233 37.4844 12.2224C37.4785 12.1845 37.473 12.1548 37.4648 12.1375ZM38.1084 12.1228C37.9464 12.0121 37.7866 11.9509 37.6396 12.072C37.63 12.0811 37.6234 12.1261 37.6201 12.1892C37.7483 12.1586 37.9006 12.1296 38.1084 12.1228ZM0.783203 8.12866C1.07211 8.23617 1.46442 11.0105 1.14062 10.7214C1.08225 10.6666 1.18411 9.82122 1.09473 9.57495C0.930303 9.12783 0.990769 10.8865 0.783203 9.95874C0.754736 9.83124 0.759206 8.85859 0.770508 8.38354L0.783203 8.12866ZM43.248 6.04175C43.284 5.28181 43.1485 5.22041 43.1777 6.0105C43.1787 6.04181 43.2466 6.07192 43.248 6.04175ZM5.99414 5.60815C5.96175 5.49567 5.93129 5.48291 5.8916 5.61499C5.92383 5.61413 5.95791 5.61129 5.99414 5.60815Z" fill="black"/>
<path d="M84.1528 150.048C84.0423 150.156 83.8997 150.117 83.7886 149.892C83.7347 149.782 83.807 149.178 83.7524 149.081C83.6265 148.855 83.4878 148.806 83.356 148.918C83.3011 148.971 83.3841 149.684 83.313 149.698C82.8216 149.769 82.3327 149.893 81.8345 148.959C81.8003 148.889 81.7695 147.432 81.6978 147.71C81.6924 148.117 81.6932 148.596 81.6909 149.031C81.3553 149.141 81.0136 149.087 80.6851 148.991C80.3018 148.882 79.9252 148.72 79.5464 148.678C79.5153 148.675 79.5679 149.448 79.5083 149.45C79.1715 149.438 78.8369 149.653 78.4907 148.881C78.4568 148.802 78.4736 147.444 78.3745 147.646C78.355 147.684 78.2009 147.866 78.1636 148.162C78.1583 148.207 78.1845 148.84 78.1372 148.864C77.8513 148.961 77.5484 148.815 77.2622 148.425C77.2171 148.358 77.2651 147.682 77.2329 147.63C77.0027 147.27 76.7464 147.786 76.5239 147.169C76.3747 146.754 76.4302 145.58 76.3511 144.424C76.3426 144.282 76.2691 144.244 76.2485 143.786C76.2145 143.773 76.1912 143.764 76.1821 143.758C75.9782 143.631 76.0445 143.559 76.2437 143.517C76.2385 142.735 76.245 141.919 76.2515 141.09C75.8828 141.013 75.5756 140.942 75.6011 140.86C75.6672 140.653 75.9629 140.499 76.2563 140.358C76.2584 140.049 76.2597 139.74 76.2603 139.431C76.2192 139.415 76.1769 139.397 76.1313 139.38C75.7159 139.232 73.9377 139.326 75.3462 138.879C75.4359 138.844 76.7194 138.53 75.9165 138.294C75.8153 138.266 75.2993 138.256 75.2544 138.221C74.977 137.995 75.3909 137.847 75.1968 137.584C75.0019 137.344 74.7099 137.021 74.8862 136.743C74.9919 136.574 75.9567 136.347 76.1929 136.259C76.2468 136.24 76.2886 136.219 76.3218 136.2C76.3213 136.101 76.3235 135.996 76.3237 135.894C76.2648 135.822 76.2215 135.757 76.3257 135.698C76.3278 135.594 76.3309 135.501 76.3384 135.432C76.3697 135.152 76.4056 135.724 76.4556 135.393C76.4592 135.37 76.4604 135.344 76.4634 135.317C76.0143 135.311 75.5659 135.305 75.1206 135.3C75.1631 134.457 75.5867 133.592 75.5122 132.734C75.5005 132.625 74.782 132.749 74.7505 132.632C74.6273 132.156 75.1327 131.715 74.9165 131.218C74.7463 130.846 73.9697 130.409 73.7661 130.022C74.0263 129.975 74.2263 129.916 74.3804 129.852C73.7182 129.098 73.8587 129.084 73.686 128.834C73.4537 128.377 73.3716 128.107 73.3032 127.893C73.2304 127.647 73.2275 127.626 73.2017 127.525C73.181 127.441 73.1646 127.368 73.1509 127.304C73.0945 127.027 73.0854 126.974 73.063 126.848C73.0282 126.657 73.006 126.527 72.9858 126.418C72.9458 126.194 72.9154 126.024 72.8862 125.849C72.8288 125.509 72.7817 125.186 72.7427 124.844C72.6901 124.378 72.6567 123.905 72.647 123.375C72.6428 123.106 72.6431 122.833 72.6606 122.478C72.6716 122.29 72.6788 122.113 72.7271 121.741C72.7415 121.637 72.753 121.551 72.7896 121.357C72.8069 121.266 72.8281 121.164 72.8579 121.041C72.8928 120.9 72.9529 120.666 73.0688 120.353C73.1458 120.163 73.1417 120.114 73.4165 119.586C73.6484 119.195 73.9404 118.621 74.7837 117.912C74.6122 117.919 74.1705 117.975 74.1577 117.884C74.0421 117.057 74.4287 116.32 74.397 115.437C74.3821 115.027 73.9816 114.295 74.0317 113.847C74.0452 113.723 74.0799 113.593 74.1274 113.458C74.3781 112.789 74.9822 112.013 74.7583 111.471C74.5866 111.049 73.9341 111.181 73.4761 111.027C72.5888 110.732 74.1111 110.035 74.3491 109.938C74.3608 109.943 74.5361 110.286 74.8599 110.078C75.5525 109.929 74.3696 109.941 74.3491 109.938C74.5019 109.876 74.612 109.14 74.479 108.997C74.4062 108.922 73.7889 108.998 73.7583 108.959C73.1485 108.038 72.9353 107.06 73.1724 106.067C73.1861 106.049 73.8812 106.036 73.9019 105.995C74.1806 105.414 73.3063 105.098 72.7729 104.655C72.2398 104.21 72.3885 103.824 73.5708 103.484C73.4006 103.142 73.9012 102.606 74.2056 102.294C74.2103 102.289 74.2133 102.283 74.2173 102.279C74.2077 102.23 74.1975 102.181 74.188 102.132C73.9577 101.998 73.1486 102.013 73.1206 101.995C72.2147 101.228 72.966 100.738 73.0386 99.8959C73.0754 99.5 72.8316 98.7089 72.6587 98.3002C72.5194 97.9715 72.8254 97.7489 72.604 97.4496C72.5739 97.4093 71.976 97.4867 71.9478 97.476C71.2046 97.171 72.6912 97.2508 72.9517 97.1635C73.0632 97.1259 73.1688 97.0906 73.2671 97.056C73.2135 96.7329 73.1617 96.4102 73.1108 96.0883C72.4497 95.9978 71.6131 95.8874 71.5288 95.7797C71.3568 95.5475 72.1233 95.5932 71.9243 95.351C71.9057 95.3305 71.439 95.3617 71.4497 95.2045C71.4966 94.4732 71.7221 93.6496 71.6294 92.8949C71.6185 92.7922 70.8821 92.9683 70.8521 92.8217C70.7215 92.1281 70.7021 91.3548 71.0093 90.6439C71.0873 90.4688 71.6171 90.5428 71.77 90.4965C72.6921 90.2114 71.3168 89.9814 71.2817 89.9291C70.5504 88.7227 71.7247 87.6694 71.0591 86.4359C71.0176 86.3679 69.5264 85.9226 70.7642 85.6058C70.8477 85.584 72.1145 85.2683 71.2251 85.1127C71.1686 85.1033 70.5192 85.2912 70.5698 85.0297C70.621 84.7667 70.1539 84.38 70.8579 83.9828C71.0797 83.857 72.3424 83.513 71.3022 83.2426C71.2297 83.2252 68.8904 82.8533 70.4702 82.5697C70.7308 82.5235 72.4162 82.4495 71.5288 82.1039C71.3567 82.038 70.9889 82.2003 70.7417 82.014C70.3611 81.7275 70.7866 81.2925 70.0132 80.9623C69.8762 80.9048 68.7153 80.6967 69.5688 80.4174C69.7026 80.3737 70.2683 80.4049 70.3247 80.2826C70.5912 79.6988 70.178 79.1288 70.5308 78.5297C70.6548 78.3183 71.5695 78.3647 71.8003 78.1381C71.8072 78.1312 71.8139 78.1238 71.8208 78.1166C71.7663 77.8231 71.7141 77.5294 71.6655 77.2338C71.1257 77.1356 69.9339 77.3814 69.8081 77.0873C69.2133 75.6731 69.973 74.1889 70.0054 72.7377C70.0099 72.523 69.5034 72.7325 69.4731 72.4183C69.3604 71.2578 68.7457 69.2833 69.7817 68.2025C70.1798 67.7879 70.5561 67.7961 70.8755 67.8461C70.8509 67.6484 70.8246 67.4513 70.8003 67.2543C70.4336 67.1715 70.0857 67.1099 70.0581 67.0795C69.4746 66.4136 70.1887 65.8725 69.9194 65.2552C69.8634 65.1279 69.1904 65.2991 69.1489 65.1908C69.0062 64.8189 69.2843 64.4006 69.2056 64.0424C69.1685 63.8818 68.6496 63.9448 68.6792 63.7933C68.7462 63.4283 68.9449 63.0957 69.4106 62.7142C69.4531 62.6795 70.1149 62.8518 70.1226 62.5853C70.125 62.4726 70.1569 62.3505 70.1938 62.224C70.1518 61.8639 70.1109 61.5055 70.0698 61.1488C70.0631 61.1427 70.0573 61.1354 70.0503 61.1293C69.891 60.9928 68.699 61.0646 69.5015 60.6967C69.6708 60.6193 71.1035 60.6103 69.8452 60.3226C69.6357 60.2739 67.9277 59.7644 68.9829 59.392C69.1316 59.3394 69.5304 59.2332 69.8403 59.1224C69.8315 59.0429 69.8228 58.9635 69.814 58.8842C69.6619 58.893 69.5183 58.8865 69.4858 58.8236C69.2435 58.3231 69.2766 57.7843 69.0415 57.264C68.9775 57.126 68.3297 57.3794 68.2544 57.1732C68.0491 56.6035 68.1709 55.8704 68.3413 55.2943C68.4054 55.0818 68.9632 55.1893 69.022 55.1703C69.976 54.8654 68.6592 54.8041 68.5747 54.7279C68.0841 54.251 68.6736 53.8256 68.481 53.3724C68.4294 53.2476 67.8142 53.3776 67.7534 53.3568C67.192 53.1286 68.3246 53.2511 68.439 53.0765C68.7584 52.585 68.6745 52.0717 68.563 51.5961C68.5205 51.4237 67.8121 51.6664 67.7808 51.5121C67.5944 50.5853 67.6021 49.6412 67.9409 48.6967C68.0064 48.5208 68.5705 48.5912 68.6958 48.5472C69.5698 48.2431 68.335 47.9651 68.2104 47.89C67.6569 47.5507 68.1402 47.3725 68.0269 47.0502C67.4612 45.4588 67.6556 43.4419 67.7563 41.9047C67.8841 39.8977 68.311 38.307 68.0483 36.4379C68.0324 36.3201 67.2999 36.4873 67.2749 36.3871C67.0051 35.033 67.2079 33.7109 66.9038 32.3773C66.8788 32.2702 66.1877 32.4728 66.1255 32.3021C65.9951 31.9577 66.0017 31.4822 66.2017 31.097C66.2981 30.9096 66.9176 31.1108 67.0024 30.9232C67.2006 30.4859 67.2212 30.0371 67.0806 29.6244C67.0182 29.4397 66.3196 29.7703 66.2935 29.5277C66.223 28.8859 66.1461 28.2647 66.1265 27.6576C66.0912 26.6309 66.2023 25.6687 66.7056 24.6049C66.7621 24.489 68.2171 24.2929 67.9224 24.0775C67.5153 24.0869 67.0374 24.1198 66.603 24.141C66.2126 21.7981 66.5639 19.4083 66.4858 17.0306C66.4819 16.9318 65.719 17.1528 65.7075 16.9623C65.6444 15.8311 65.3602 14.7805 66.0542 13.5687C66.122 13.4489 67.4891 13.4327 67.2612 13.098C67.219 13.0355 67.0041 12.5435 66.7007 12.4408C66.6542 12.4258 66.026 12.5593 65.9956 12.3978C65.8371 11.4542 65.9185 10.4547 66.2466 9.47986C66.3014 9.31797 66.9859 9.4418 67.0327 9.32751C67.3431 8.52917 66.7755 7.72487 67.3462 6.93494C67.731 6.40059 68.9139 6.51948 70.0532 6.18982C70.2134 6.13962 70.2236 5.81234 70.895 5.76208C71.1907 5.74494 71.4916 5.73449 71.7964 5.72498C71.8046 5.50898 71.8087 5.34513 71.812 5.31482C71.8483 4.99251 71.8867 5.28107 71.9194 5.72107C72.1534 5.71436 72.3896 5.70887 72.6274 5.70447C72.6414 5.1528 72.6378 4.4351 72.6812 4.46521C72.8971 4.6243 73.04 6.88564 73.1782 4.91638C73.208 4.49607 73.1115 2.72211 73.3062 4.11267C73.3189 4.20415 73.4698 5.47199 73.5112 4.66443C73.5163 4.56167 73.5009 4.04799 73.5103 4.00134C73.5746 3.71836 73.6361 4.12787 73.7095 3.92908C73.7829 3.72932 73.8697 3.43216 73.9653 3.60486C74.023 3.70997 74.1209 4.67036 74.1538 4.90564C74.247 5.5825 74.2936 4.46684 74.3628 5.28845C74.3728 5.40757 74.3804 5.53568 74.3862 5.66931C74.4116 5.66873 74.437 5.66894 74.4624 5.66833C74.4485 5.05324 74.4336 4.43802 74.4194 3.82849C74.6846 3.86858 74.9576 4.29539 75.2212 4.22888C75.253 4.21392 75.201 3.50015 75.2349 3.46814C75.3804 3.3507 75.524 3.86 75.6724 3.65173C75.7872 3.48702 75.8984 2.7185 76.0181 2.52185C76.1345 4.05679 76.3065 3.5322 76.4448 3.66833C76.4931 3.71671 76.5007 4.12695 76.5376 4.26013C76.6765 4.75095 76.5829 3.39708 76.6118 3.18005C76.7373 2.2639 76.8289 5.33384 77.0015 5.25916C77.0106 5.25594 77.0829 3.61695 77.0962 3.51013C77.1787 2.84249 77.1269 4.08003 77.1919 4.20056C77.3107 4.41918 77.3986 4.80798 77.52 4.32556C77.5554 4.18229 77.6244 3.15762 77.7192 3.94666C77.7316 4.05169 77.7398 4.59124 77.7485 4.62341C77.9058 5.14777 77.8681 3.44587 77.937 2.86658C78.006 2.2877 78.1619 3.46083 78.1958 3.79919C78.2843 4.67324 78.1527 4.17584 78.1509 4.26111C78.1321 5.28571 78.2215 5.1079 78.2944 5.19275C78.3442 6.86238 78.4404 6.75968 78.3696 5.2738C78.3617 5.11211 78.3106 5.26743 78.2944 5.19275C78.3179 3.55224 78.4227 3.33968 78.5786 4.86853C78.6058 5.1353 78.6201 5.41878 78.6333 5.65369C78.6988 5.6515 78.7621 5.64901 78.8208 5.65076C78.8288 5.24943 78.8216 4.7095 78.8608 4.50818C79.002 3.79006 79.2303 4.85626 79.3882 4.68494C79.4454 4.62234 79.3753 3.9955 79.4136 3.92908C79.5162 3.75718 79.6208 4.22505 79.7222 3.98181C79.7307 3.95161 79.6935 3.30246 79.7261 3.29138C79.976 3.20955 80.2049 3.62681 80.4692 3.63318C80.5969 3.63585 80.8175 3.26785 80.9507 3.33826C81.1815 3.45738 81.4807 4.40773 81.6724 4.17224C81.7967 4.02024 81.7554 3.3615 81.8013 2.9115C81.89 2.03911 82.1067 3.59527 82.1362 3.8363C82.1331 3.84996 82.0326 4.0086 82.0962 4.33923C82.143 5.03343 82.1353 3.86823 82.1362 3.8363C82.1562 3.99161 82.3773 4.13607 82.4185 4.01013C82.4404 3.93909 82.4159 3.32232 82.4272 3.29236C82.7072 2.72792 83.0015 2.56415 83.3032 2.85095C83.3086 2.87952 83.3133 3.5555 83.3257 3.5824C83.5028 3.88897 83.5984 3.03362 83.731 2.5238C83.8635 2.0141 83.9775 2.18214 84.0825 3.38025C84.1874 3.22739 84.3502 3.75524 84.4438 4.07556C84.5368 4.39221 84.5275 3.04812 84.5347 3.00818C84.763 2.14354 84.9165 2.92027 85.1685 3.03748C85.2882 3.09436 85.524 2.89391 85.6509 2.74353C85.7515 2.62221 85.8186 2.9392 85.9097 2.73474C85.9219 2.70684 85.8997 2.11009 85.9028 2.07849C85.9971 1.35231 85.969 2.83392 85.9946 3.09802C86.0875 4.05759 86.1438 4.56807 86.271 4.11462C86.3003 4.00497 86.3591 1.88161 86.4136 1.75232C86.4845 1.59333 86.4678 2.35597 86.5425 2.17126C86.5489 2.15505 86.5412 1.68537 86.5894 1.70544C86.8128 1.79261 87.0583 2.06308 87.2866 2.01306C87.3178 2.008 87.2683 1.26231 87.313 1.2406C87.5239 1.14927 87.7557 1.17402 87.9692 1.52087C88.0214 1.6097 87.9962 2.13334 88.0093 2.28845C88.0893 3.22305 88.169 1.87018 88.1851 1.83337C88.5577 1.17299 88.857 2.40443 89.2407 1.81189C89.2618 1.77199 89.407 0.312487 89.4937 1.5658C89.4999 1.6534 89.5862 2.93131 89.6392 2.05408C89.6422 1.99612 89.5902 1.33826 89.6685 1.40466C89.7468 1.47006 89.8668 1.02858 89.981 1.7533C90.0176 1.98317 90.1094 3.26248 90.2007 2.2406C90.2065 2.16828 90.3387 -0.143327 90.4116 1.45056C90.4235 1.71556 90.4321 3.39822 90.5435 2.53357C90.5646 2.36558 90.5186 1.98988 90.5767 1.75427C90.666 1.39108 90.7937 1.8406 90.8999 1.08826C90.9185 0.953368 90.9915 -0.189918 91.0679 0.678101C91.0797 0.815306 91.066 1.37594 91.1021 1.43982C91.2736 1.73997 91.4517 1.36234 91.6294 1.75037C91.6921 1.88849 91.6695 2.7982 91.7358 3.04138C91.8023 3.28445 91.9327 3.5173 91.9956 3.10193C92.0585 2.68523 91.9731 1.23575 92.0718 1.11658C92.498 0.608167 92.9473 1.45526 93.3794 1.57654C93.4435 1.59405 93.3867 1.07567 93.481 1.06482C93.8327 1.02326 94.4375 0.532479 94.7466 1.63416C94.9987 2.51629 94.6939 3.19176 94.8843 3.55017C94.9754 3.71693 95.0615 2.04932 95.0835 1.97986C95.2926 1.43915 95.4446 2.18322 95.6323 1.95447C95.671 1.90674 95.63 1.22606 95.6626 1.18982C95.7741 1.07096 95.8987 1.37379 96.0083 1.31873C96.0576 1.29184 96.0458 0.770276 96.0913 0.80896C96.2006 0.898891 96.2979 1.11823 96.4058 1.60681C96.4151 1.65502 96.3554 2.3019 96.4351 2.32556C96.5646 2.36285 96.7261 2.84337 96.8716 2.34509C96.9155 2.19479 96.911 1.00042 97.0112 1.82458C97.0321 1.999 97.0136 3.42825 97.1187 2.1908C97.1366 1.98315 97.3154 0.313942 97.4116 1.39001C97.4371 1.67408 97.5042 2.84378 97.5562 2.6615C97.5629 2.62831 97.5317 1.9925 97.5747 1.9281C97.7282 1.71839 97.8875 1.78525 98.0493 1.58435C98.092 1.52937 98.0262 0.868407 98.0894 0.805054C98.2648 0.636621 98.4838 0.804151 98.6538 1.01111C98.7161 1.08957 98.6756 1.63708 98.6802 1.69861C98.7566 2.6683 98.795 1.36407 98.8188 1.28162C98.9683 0.822668 99.0904 1.4376 99.23 1.27478C99.2681 1.22823 99.2393 0.607741 99.2466 0.549194C99.3248 0.0039642 99.2688 1.12853 99.3198 1.25232C99.4626 1.60211 99.6194 1.55237 99.7603 1.47205C99.8119 1.44161 99.7522 0.716506 99.7983 0.695679C100.079 0.570014 100.373 0.639197 100.642 1.03845C100.693 1.11623 100.662 1.67459 100.673 1.80212C100.747 2.69359 100.854 1.4785 100.879 1.35974C100.993 0.830474 101.038 1.32331 101.138 1.23181C101.621 0.771375 102.229 1.09738 102.685 1.29919C103.287 1.55885 103.753 2.09057 104.321 1.95251C104.357 1.94445 104.321 1.20666 104.352 1.18396C104.758 1.00446 105.157 1.29417 105.557 1.07947C105.589 1.05795 105.543 0.359608 105.594 0.307983C105.698 0.200758 105.846 0.239285 105.956 0.464233C106.009 0.573656 105.938 1.17754 105.992 1.27478C106.111 1.48795 106.235 1.54547 106.354 1.4574C106.362 1.45199 106.37 1.44534 106.377 1.43884C106.434 1.3881 106.349 0.66831 106.422 0.659546C106.917 0.587993 107.384 0.464263 107.884 1.39783C107.918 1.46687 107.948 2.92553 108.018 2.64685C108.023 2.24023 108.024 1.76113 108.026 1.32654C108.738 1.09239 109.431 1.60051 110.15 1.67908C110.18 1.68057 110.128 0.905462 110.187 0.907593C110.513 0.918886 110.854 0.704825 111.192 1.47595C111.226 1.55547 111.21 2.9156 111.31 2.7113C111.328 2.67307 111.476 2.49043 111.518 2.1947C111.523 2.14693 111.497 1.51351 111.545 1.49353C111.828 1.39691 112.123 1.54274 112.408 1.93201C112.454 1.99756 112.406 2.66849 112.438 2.72595C112.471 2.71569 112.506 2.70255 112.547 2.69373C112.731 2.66875 114.209 3.5806 114.202 3.62048C114.201 3.61973 114.199 3.61925 114.198 3.61853C114.095 3.87725 113.703 4.07381 113.248 4.18201C113.258 4.48792 113.265 4.83467 113.277 5.19666C113.79 5.2451 114.449 5.33999 114.585 5.45544C114.809 5.64494 114.269 5.85142 114.625 6.1283C114.714 6.19449 116.228 6.65649 116.32 6.71228C117.022 7.13815 114.545 6.97508 114.408 6.98083C113.168 7.05197 114.103 7.45594 114.502 7.66736C114.581 7.7077 114.64 7.74024 114.657 7.76013C115.132 8.31148 114.748 8.66063 115.093 9.08533C115.317 9.36738 116.936 9.50617 116.873 9.69958C116.663 10.3303 114.388 10.457 116.317 11.2035C116.729 11.3607 118.509 11.3027 117.09 11.7367C116.999 11.7566 115.709 12.0749 116.506 12.3217C116.607 12.3519 117.123 12.3725 117.167 12.4086C117.438 12.6473 117.018 12.8131 117.207 13.0638C117.394 13.3259 117.677 13.6563 117.492 13.9398C117.379 14.1141 116.409 14.3232 116.17 14.3939C115.483 14.6084 116.589 14.9089 115.761 15.0414C115.44 15.0895 115.056 15.0698 114.674 15.0492C114.705 15.1292 114.736 15.209 114.765 15.2894C115.581 15.3283 116.4 15.3651 117.209 15.4027C117.136 16.2898 116.681 17.1078 116.719 18.0111C116.727 18.1164 117.451 18.026 117.476 18.14C117.58 18.6184 117.054 19.0702 117.25 19.5668C117.403 19.9641 118.16 20.4277 118.345 20.8334C116.802 21.0527 117.312 21.6986 117.165 22.1283C117.113 22.283 116.703 22.2669 116.567 22.3763C116.064 22.7933 117.427 22.617 117.639 22.7377C118.262 23.0998 116.996 23.1969 116.169 23.4154C116.175 23.6151 116.178 23.8133 116.18 24.0101C116.65 24.1367 117.213 24.2858 117.271 24.3177C117.932 24.6675 116.699 24.3685 116.575 24.5707C116.348 24.9359 115.953 25.1909 116.426 25.6478C116.567 25.7805 117.585 26.1179 116.792 26.347C116.702 26.3738 116.286 26.3634 116.153 26.3754C116.149 26.483 116.145 26.5904 116.141 26.6976C116.491 26.8888 117.452 26.9686 117.855 27.1683C118.428 27.4526 117.247 27.8782 116.907 27.9515C116.027 28.1623 116.534 27.7775 116.448 27.765C116.31 27.744 116.194 27.7325 116.096 27.7269C116.088 27.8985 116.079 28.0701 116.07 28.2416C117.107 28.4542 117.151 28.7507 116.027 29.0707C116.01 29.3886 115.995 29.7063 115.978 30.0238C116.051 30.0456 116.112 30.0703 116.157 30.1029C116.867 30.6199 115.787 31.3322 115.951 31.851C116.011 32.0438 116.641 31.8629 116.704 31.9955C116.871 32.3481 116.396 32.6579 116.634 33.0228C116.66 33.0552 117.316 32.9819 117.325 33.0941C117.393 33.9557 116.964 34.6453 116.945 35.5541C116.944 35.5928 116.946 35.6352 116.951 35.6791C116.996 36.1047 117.287 36.7692 117.217 37.1742C117.088 37.9604 116.124 38.8597 116.352 39.5248C116.498 39.9551 117.158 39.867 117.606 40.0551C118.473 40.4274 116.912 41.0153 116.668 41.1019C116.66 41.1028 116.507 40.7412 116.167 40.932C115.462 41.0398 116.663 41.0977 116.668 41.1019C116.512 41.1549 116.358 41.8852 116.483 42.0336C116.553 42.1131 117.175 42.0733 117.2 42.1146C117.752 43.1232 117.906 44.0615 117.608 45.0736C117.59 45.0908 116.897 45.0615 116.875 45.1029C116.563 45.6847 117.415 46.0408 117.919 46.5189C118.424 46.9944 118.252 47.3724 117.051 47.6498C117.2 48.0172 116.667 48.5167 116.344 48.8099C116.023 49.101 117.372 49.1501 117.408 49.1761C118.264 49.9853 117.484 50.4729 117.359 51.3002C117.297 51.6959 117.49 52.4885 117.637 52.9252C117.755 53.2684 117.437 53.4819 117.639 53.7933C117.67 53.835 118.272 53.796 118.295 53.809C119.017 54.1602 117.54 53.9865 117.274 54.057C116.311 54.3145 115.798 54.4743 116.249 54.9261C116.354 55.0305 118.48 55.342 118.606 55.5326C118.763 55.7802 118 55.6847 118.184 55.9447C118.206 55.9664 118.67 55.9655 118.649 56.1244C118.556 56.8685 118.278 57.6597 118.323 58.432C118.329 58.5365 119.074 58.4055 119.093 58.557C119.179 59.2748 119.149 60.0476 118.796 60.7386C118.707 60.9082 118.184 60.7999 118.029 60.8363C117.088 61.0602 118.453 61.3884 118.479 61.4418C119.131 62.7242 117.891 63.673 118.476 64.976C118.516 65.0487 119.972 65.595 118.717 65.8304C118.633 65.8468 117.348 66.0808 118.225 66.2943C118.28 66.3075 118.942 66.1614 118.875 66.4203C118.807 66.6796 119.247 67.0997 118.519 67.4554C118.289 67.5681 117.007 67.8326 118.028 68.1742C118.107 68.1988 120.406 68.7243 118.814 68.9047C118.551 68.934 116.864 68.8986 117.728 69.3031C117.896 69.3797 118.272 69.2418 118.506 69.4447C118.867 69.7559 118.415 70.1659 119.166 70.5502C119.299 70.6173 120.443 70.9046 119.574 71.1302C119.437 71.1655 118.874 71.0962 118.81 71.2162C118.506 71.7884 118.882 72.3849 118.491 72.9642C118.353 73.1689 117.442 73.0623 117.198 73.2758C116.953 73.4895 116.718 73.9206 117.133 74.1459C117.55 74.371 119.001 74.1297 119.117 74.4662C119.617 75.9256 118.763 77.3715 118.635 78.8285C118.617 79.0438 119.136 78.8666 119.145 79.1849C119.181 80.3588 119.665 82.3902 118.559 83.4056C117.674 84.2193 117.002 83.1924 116.641 83.8148C116.471 84.1154 118.156 84.4452 118.209 84.5179C118.747 85.2298 117.999 85.7224 118.227 86.3607C118.275 86.492 118.958 86.3652 118.992 86.4769C119.109 86.8594 118.804 87.2635 118.859 87.6312C118.886 87.7957 119.408 87.7669 119.368 87.9183C119.277 88.2807 119.056 88.6008 118.566 88.9525C118.52 88.9839 117.872 88.7672 117.847 89.0345C117.809 89.4684 117.325 90.0004 117.823 90.5043C117.973 90.6529 119.167 90.6614 118.342 90.9789C118.169 91.0454 116.736 90.9585 117.974 91.3314C118.18 91.3944 119.85 92.0196 118.773 92.3226C118.489 92.4027 117.315 92.6061 117.5 92.7836C117.534 92.8065 118.171 92.7124 118.233 92.8588C118.441 93.3766 118.372 93.9286 118.572 94.4623C118.628 94.6042 119.291 94.3934 119.351 94.6058C119.518 95.1927 119.349 95.9115 119.14 96.4896C119.061 96.7004 118.514 96.5549 118.453 96.5697C117.479 96.8164 118.792 96.9641 118.869 97.0463C119.326 97.557 118.709 97.9434 118.872 98.4105C118.916 98.5389 119.541 98.4494 119.597 98.475C120.142 98.7414 119.018 98.5423 118.894 98.7103C118.543 99.1765 118.592 99.7174 118.671 100.196C118.702 100.372 119.428 100.175 119.447 100.333C119.571 101.269 119.5 102.234 119.099 103.154C119.022 103.325 118.464 103.218 118.335 103.253C117.442 103.5 118.66 103.862 118.776 103.945C119.305 104.322 118.811 104.467 118.903 104.798C119.36 106.448 119.031 108.462 118.828 109.994C118.565 112.012 118.032 113.579 118.168 115.473C118.178 115.596 118.919 115.473 118.937 115.579C119.115 116.955 118.824 118.277 119.038 119.635C119.056 119.744 119.759 119.587 119.809 119.763C119.916 120.117 119.877 120.597 119.652 120.97C119.543 121.152 118.938 120.908 118.841 121.091C118.614 121.517 118.564 121.968 118.676 122.392C118.727 122.578 119.447 122.295 119.456 122.541C119.484 123.223 119.522 123.883 119.494 124.524C119.452 125.532 119.271 126.451 118.714 127.465C118.646 127.578 117.185 127.678 117.465 127.915C117.872 127.934 118.351 127.933 118.786 127.941C119.018 130.335 118.508 132.674 118.428 135.092C118.428 135.193 119.202 135.019 119.2 135.215C119.188 136.328 119.402 137.452 118.629 138.602C118.552 138.716 117.187 138.661 117.393 138.993C117.431 139.043 117.614 139.568 117.91 139.698C117.957 139.715 118.592 139.624 118.611 139.786C118.666 140.333 118.639 140.892 118.536 141.45C118.578 141.952 118.622 142.564 118.602 142.707C118.568 142.953 118.445 142.445 118.401 142.828C118.391 142.924 118.414 144.474 118.408 144.573C118.36 145.289 118.161 143.01 118.132 142.73C118.092 142.752 118.025 142.76 117.948 142.762C117.943 142.902 117.94 143.016 117.934 143.045C117.827 143.586 117.673 143.249 117.578 143.635C117.515 143.885 117.631 145.505 117.563 145.462C117.445 145.386 117.321 144.741 117.223 144.415C117.2 144.604 117.147 144.789 117.041 144.968C117.04 144.99 117.038 145.012 117.038 145.035C117.026 145.456 117.201 147.224 116.942 145.843C116.933 145.799 116.877 145.465 116.822 145.24C116.787 145.267 116.75 145.292 116.709 145.315C116.711 145.442 116.746 145.919 116.739 145.964C116.686 146.249 116.606 145.844 116.54 146.045C116.473 146.248 116.396 146.549 116.292 146.38C116.249 146.311 116.171 145.851 116.112 145.489C116.006 145.504 115.895 145.517 115.778 145.529C115.792 145.745 115.805 145.962 115.819 146.177C115.546 146.149 115.25 145.734 114.985 145.81C114.952 145.821 115.033 146.533 115 146.571C114.856 146.695 114.688 146.191 114.544 146.405C114.433 146.574 114.348 147.346 114.232 147.547C114.056 146.017 113.9 146.549 113.753 146.417C113.72 146.387 113.699 146.199 113.676 146.036C113.643 146.046 113.606 146.055 113.566 146.062C113.578 146.371 113.611 146.798 113.599 146.912C113.548 147.399 113.468 146.771 113.378 146.082C113.355 146.084 113.331 146.088 113.306 146.088C113.239 146.09 113.171 146.09 113.103 146.091C113.098 146.353 113.095 146.562 113.091 146.599C113.041 147.137 113.038 146.448 113.003 146.092C112.869 146.094 112.733 146.095 112.597 146.095C112.568 146.397 112.525 146.735 112.44 146.185C112.437 146.166 112.436 146.134 112.433 146.093C112.38 146.093 112.326 146.092 112.273 146.091C112.269 146.506 112.274 147.006 112.25 147.272C112.196 147.851 112.001 146.686 111.957 146.348C111.942 146.242 111.932 146.156 111.925 146.086C111.883 146.086 111.841 146.084 111.798 146.083C111.774 146.395 111.73 146.403 111.661 146.08C111.347 146.073 111.031 146.065 110.712 146.056C110.717 146.154 110.718 146.232 110.707 146.253C110.606 146.429 110.487 145.963 110.389 146.209C110.381 146.236 110.434 146.884 110.402 146.9C110.147 146.988 109.902 146.578 109.632 146.578C109.502 146.578 109.284 146.951 109.146 146.884C108.907 146.772 108.581 145.828 108.391 146.065C108.267 146.219 108.32 146.877 108.282 147.328C108.207 148.202 107.957 146.651 107.922 146.411C107.925 146.399 107.998 146.279 107.974 146.036C107.97 146.037 107.966 146.036 107.961 146.036C107.946 146.037 107.932 146.04 107.918 146.041C107.92 146.22 107.923 146.4 107.922 146.411C107.908 146.312 107.81 146.221 107.73 146.199C107.709 146.232 107.683 146.262 107.628 146.279C107.619 146.43 107.643 146.929 107.633 146.959C107.356 147.529 107.058 147.698 106.746 147.416C106.74 147.393 106.725 146.707 106.711 146.685C106.526 146.381 106.44 147.238 106.312 147.75C106.183 148.262 106.061 148.095 105.939 146.899C105.833 147.053 105.663 146.527 105.563 146.208C105.465 145.894 105.49 147.235 105.483 147.277C105.258 148.144 105.096 147.371 104.835 147.256C104.711 147.2 104.476 147.403 104.347 147.555C104.246 147.677 104.174 147.362 104.083 147.567C104.07 147.597 104.098 148.194 104.095 148.223C104.006 148.949 104.021 147.469 103.993 147.204C103.889 146.246 103.828 145.735 103.702 146.19C103.673 146.297 103.63 148.42 103.575 148.553C103.503 148.713 103.513 147.951 103.439 148.136C103.433 148.158 103.444 148.621 103.396 148.603C103.17 148.518 102.915 148.249 102.684 148.3C102.652 148.305 102.707 149.048 102.663 149.073C102.449 149.166 102.206 149.143 101.991 148.797C101.937 148.709 101.96 148.186 101.946 148.031C101.859 147.098 101.787 148.443 101.771 148.486C101.455 149.04 101.187 148.273 100.879 148.351C100.82 148.366 100.759 148.415 100.696 148.513C100.675 148.548 100.534 150.016 100.44 148.761C100.433 148.674 100.34 147.395 100.29 148.273C100.286 148.328 100.342 148.988 100.262 148.923C100.182 148.857 100.063 149.301 99.9429 148.576C99.905 148.346 99.8047 147.067 99.7173 148.089C99.712 148.161 99.5866 150.474 99.5073 148.88C99.4944 148.616 99.4797 146.932 99.3706 147.797C99.3497 147.965 99.3972 148.342 99.3394 148.578C99.2504 148.941 99.1192 148.491 99.0132 149.244C98.9948 149.377 98.9229 150.524 98.8423 149.656C98.8298 149.519 98.8432 148.956 98.8062 148.893C98.6297 148.593 98.4531 148.972 98.272 148.584C98.208 148.448 98.2275 147.538 98.1597 147.294C98.0918 147.051 97.9597 146.818 97.897 147.235C97.8343 147.652 97.9245 149.1 97.8247 149.22C97.3872 149.729 96.9402 148.884 96.4985 148.763C96.4331 148.745 96.4915 149.262 96.396 149.275C96.0403 149.317 95.4305 149.81 95.1128 148.708C94.8587 147.827 95.1636 147.15 94.9722 146.792C94.8802 146.624 94.7958 148.302 94.7739 148.364C94.5639 148.905 94.4083 148.16 94.2173 148.39C94.1784 148.44 94.2217 149.116 94.189 149.155C94.0741 149.274 93.9497 148.971 93.8394 149.027C93.7898 149.054 93.8024 149.575 93.7563 149.536C93.6462 149.446 93.548 149.227 93.438 148.738C93.4287 148.688 93.4877 148.045 93.4077 148.02C93.2768 147.984 93.1107 147.502 92.9634 148.001C92.9198 148.153 92.926 149.345 92.8247 148.522C92.8035 148.348 92.819 146.917 92.7153 148.155C92.6979 148.361 92.5208 150.033 92.4214 148.956C92.3952 148.672 92.3265 147.504 92.2739 147.685C92.2668 147.714 92.299 148.352 92.2554 148.418C92.0996 148.628 91.9351 148.562 91.7749 148.763C91.7324 148.819 91.7995 149.477 91.7368 149.542C91.5609 149.711 91.3394 149.544 91.1665 149.337C91.1028 149.26 91.1429 148.711 91.1382 148.65C91.0588 147.68 91.021 148.983 90.9966 149.067C90.8451 149.525 90.7255 148.913 90.5854 149.074C90.5469 149.117 90.5759 149.738 90.5688 149.799C90.491 150.345 90.546 149.221 90.4946 149.097C90.3503 148.747 90.1901 148.798 90.0464 148.878C89.9937 148.909 90.0548 149.629 90.0083 149.654C89.7289 149.78 89.4313 149.712 89.1567 149.313C89.105 149.236 89.1347 148.677 89.1235 148.549C89.0462 147.659 88.9415 148.869 88.9165 148.991C88.8041 149.52 88.7567 149.029 88.6567 149.12C88.1668 149.581 87.5556 149.255 87.0933 149.054C86.4849 148.795 86.0183 148.264 85.439 148.403C85.4027 148.411 85.4392 149.148 85.4087 149.171C85.0006 149.351 84.5971 149.062 84.1909 149.277C84.1579 149.293 84.2053 149.995 84.1528 150.048ZM75.1274 5.64978C75.121 5.35666 75.1039 5.03595 75.0737 4.78552C74.9998 4.17444 74.9759 5.04975 74.9858 5.65466C75.033 5.65309 75.0802 5.6515 75.1274 5.64978ZM73.9878 5.6781C73.9661 5.15459 73.9254 4.74234 73.8784 5.02673C73.8759 5.04666 73.8825 5.33508 73.8901 5.68005C73.9227 5.67948 73.9552 5.6787 73.9878 5.6781ZM113.02 5.97888C113.013 5.60996 112.952 5.59298 112.945 5.97986C112.971 5.97957 112.996 5.97925 113.02 5.97888ZM113.319 5.97107C113.976 5.94354 113.697 5.863 113.301 5.73572C113.305 5.80124 113.307 5.86744 113.311 5.93298C113.312 5.94667 113.317 5.95884 113.319 5.97107ZM113.417 8.31482C113.495 8.07291 113.525 7.81678 113.552 7.57166C113.564 7.46384 113.574 7.36082 113.588 7.26306C113.597 7.1943 113.521 7.15957 113.417 7.14001C113.419 7.52499 113.419 7.91739 113.417 8.31482ZM70.4712 7.16736C69.7056 7.0949 69.6712 7.54375 70.4536 7.40173C70.4847 7.39275 70.5021 7.17004 70.4712 7.16736ZM82.0366 7.64099C82.0002 7.45676 81.9583 7.35824 81.9067 7.35583C81.8451 7.35298 81.8325 7.62439 81.8198 7.9574C81.8749 7.87229 81.9536 7.75834 82.0366 7.64099ZM80.4097 9.55896C80.4633 9.51424 80.5168 9.46794 80.5718 9.42126C80.5253 8.69079 80.4522 8.88017 80.4097 9.55896ZM79.2036 10.6342C79.4445 10.4094 79.7224 10.1547 80.0405 9.86951C80.0236 9.69518 80.0285 9.31913 80.0239 9.26794C80.0196 9.22147 80.0143 9.18004 80.0103 9.14392C79.9845 9.15526 79.9574 9.16514 79.9292 9.17322C79.9145 9.38193 79.9037 9.64836 79.894 9.67126C79.7715 9.9277 79.6521 9.79547 79.5356 9.73572C79.5541 9.92601 79.5893 10.1168 79.4868 10.308C79.4632 10.3523 79.3451 10.3632 79.2075 10.3695C79.2069 10.4514 79.2054 10.5464 79.2036 10.6342ZM113.554 9.69373C113.088 9.78994 113.593 10.198 114.172 10.0707C114.638 9.96952 114.134 9.57314 113.554 9.69373ZM78.5688 11.2279C78.7313 11.0761 78.9236 10.8967 79.147 10.6879C79.1432 10.6507 79.1375 10.6087 79.1333 10.5609C79.1315 10.5399 79.1367 10.4661 79.1411 10.3734C78.9418 10.3802 78.7268 10.3826 78.7007 10.4476C78.596 10.7183 78.5706 10.9745 78.5688 11.2279ZM78.5747 11.5482C78.93 11.2802 79.3015 10.9957 79.6772 10.7045C79.6695 10.7076 79.6609 10.71 79.6528 10.7133C79.511 10.7724 79.3829 10.8303 79.2681 10.8871C79.0386 11.0008 78.8564 11.1075 78.7056 11.2025C78.6479 11.2392 78.6057 11.2714 78.5688 11.2963C78.5696 11.3803 78.5716 11.4642 78.5747 11.5482ZM113.404 11.9525C113.863 11.8288 114.325 11.6939 114.425 11.5326C113.949 11.5048 113.629 11.4628 113.402 11.4047C113.402 11.5876 113.402 11.7703 113.404 11.9525ZM79.1636 13.3656C79.3533 12.8836 79.5468 12.4254 79.7476 11.9701C79.8061 11.8382 79.8669 11.7072 79.9263 11.5765C79.9186 11.5776 79.9104 11.5775 79.9028 11.5785C79.1988 11.6941 78.8432 11.8103 78.5835 11.9017C78.5834 12.0424 78.5768 12.1856 78.5542 12.3324C78.5135 12.5947 78.4778 12.8566 78.4429 13.1176C78.682 13.2006 78.9231 13.2881 79.1636 13.3656ZM114.216 13.3724C113.371 13.754 116.758 13.9304 116.088 13.4769C116.051 13.449 114.275 13.3498 114.216 13.3724ZM115.469 17.5375C115.716 17.5373 115.971 17.5118 116.179 17.4525C116.79 17.2804 115.946 17.1034 115.343 17.0638C115.388 17.2224 115.429 17.3806 115.469 17.5375ZM114.899 50.1342C114.246 50.4066 116.636 50.4583 116.066 50.1576C116.028 50.143 114.931 50.1202 114.899 50.1342ZM79.5229 123.937C79.2884 124.018 79.0703 124.115 78.8765 124.217C79.0368 124.236 79.3619 124.275 79.5981 124.328C79.5727 124.197 79.548 124.067 79.5229 123.937ZM76.0737 133.254C75.2634 133.503 77.0718 133.688 77.3901 133.574C78.44 133.207 76.8848 132.999 76.0737 133.254ZM77.7847 135.576C78.1954 135.584 78.5949 135.583 78.8999 135.493C78.8852 135.442 78.8729 135.393 78.8608 135.345C78.5029 135.342 78.1428 135.337 77.7817 135.332C77.7855 135.391 77.7854 135.48 77.7847 135.576ZM76.2437 137.113C76.2524 137.072 76.2609 137.027 76.27 136.979C76.207 137.015 76.1914 137.058 76.2437 137.113ZM82.4321 137.968C82.6653 138.461 82.9223 138.599 83.1597 138.523C82.9596 138.245 82.8287 138.012 82.7144 137.799C82.7122 137.795 82.7106 137.791 82.7085 137.786C82.6252 137.818 82.5308 137.849 82.4233 137.88C82.4199 137.881 82.4161 137.882 82.4126 137.883C82.4185 137.921 82.4239 137.951 82.4321 137.968ZM81.7886 137.983C81.9505 138.093 82.1104 138.155 82.2573 138.034C82.2669 138.024 82.2736 137.979 82.2769 137.916C82.1487 137.947 81.9963 137.976 81.7886 137.983ZM119.114 141.977C118.825 141.87 118.432 139.094 118.756 139.384C118.815 139.439 118.713 140.285 118.802 140.531C118.967 140.978 118.906 139.219 119.114 140.147C119.142 140.274 119.138 141.247 119.126 141.722L119.114 141.977ZM76.6489 144.064C76.613 144.824 76.7485 144.885 76.7192 144.095C76.7183 144.064 76.6504 144.034 76.6489 144.064ZM113.902 144.497C113.934 144.61 113.966 144.623 114.005 144.491C113.973 144.491 113.938 144.494 113.902 144.497Z" fill="black"/>
</svg>
