<svg width="120" height="150" viewBox="0 0 120 150" fill="none" xmlns="http://www.w3.org/2000/svg">
<path d="M9.89037 0.000976562C9.89355 0.00118407 9.89687 0.00159321 9.90014 0.00195312C9.9142 0.00325905 9.92938 0.00821826 9.94506 0.00976562C10.0079 0.0219561 10.0844 0.0466512 10.1775 0.0732422C10.2151 0.0840754 10.3637 0.269171 10.5427 0.388672C10.655 0.190283 10.7827 0.031255 10.9802 0.0654297C11.8701 0.221392 12.6365 0.811316 13.1941 1.38867C13.3656 1.56748 13.1384 1.89446 13.2478 2.03418C13.4724 2.31078 13.767 2.23908 13.9792 2.54395C14.0473 2.64739 13.7393 3.18829 13.8122 3.28027C14.2029 3.77506 14.7322 3.85899 15.1706 4.22266C17.3866 6.04504 19.6389 7.44853 21.9646 8.9502C22.7294 9.44411 23.5108 10.4745 24.4089 10.6582C24.5134 10.6788 24.641 10.135 24.6746 10.0996C25.1908 9.59276 24.7251 10.5885 24.863 10.8232C24.9912 11.0396 25.1356 11.2323 25.2927 11.4033C25.7701 11.946 26.4139 12.2682 27.0027 12.3896C27.3327 12.4566 27.399 11.2759 27.4958 12.0078C27.5008 12.0609 27.2312 12.5673 27.2927 12.668C27.433 12.8953 27.8278 12.9825 27.9617 13.1025C28.2209 13.3384 28.2602 13.3529 28.5222 13.4951C28.8767 13.6935 29.2138 14.1902 29.657 14.2715C29.7509 14.2859 29.8428 13.6677 30.0076 13.6387C30.1719 13.6102 30.5038 13.8376 30.5749 14.0312C30.6451 14.225 30.4363 14.6405 30.4206 14.7529C30.2862 15.6957 31.1198 14.7253 31.1853 14.7217C32.3103 14.7107 32.9101 15.8208 33.7888 16.2725C34.4688 16.6201 35.2817 16.7753 35.9128 17.1377C36.6754 17.5776 37.2119 18.2159 37.9812 18.5518C38.0622 18.5873 38.2069 17.8805 38.3064 17.9219C39.3638 18.3776 40.3552 18.9758 41.2117 19.9482C41.2972 20.0462 40.9581 20.5578 41.03 20.6914C41.4817 21.4909 42.0684 23.1535 43.3445 20.8174C43.7316 21.1348 44.2111 21.5041 44.4099 22.2109C44.5358 22.665 44.0719 23.1742 44.4675 23.0596C44.5564 23.0326 44.6678 22.4375 44.7859 22.4395C45.2846 22.4573 45.6879 22.8802 46.2156 22.8145C46.3234 22.7996 46.4792 22.2905 46.5359 22.2139C47.0025 21.599 46.9113 22.9672 46.9538 23.0947C47.2851 24.0347 47.7915 23.9952 48.3152 24.2852C48.4364 24.3508 48.5318 23.6117 48.657 23.6514C49.3016 23.8721 49.9125 24.2569 50.406 24.8633C50.5147 24.9997 50.1886 25.5024 50.2292 25.5977C50.4159 26.0065 50.8636 24.9672 51.0486 25.3379C51.0878 25.415 50.8817 25.8837 50.8728 25.9424C50.7332 26.8609 51.2975 25.7561 51.3513 25.7451C52.0064 25.6597 51.8979 27.0729 52.4704 27.1621C52.5392 27.17 52.624 26.4862 52.8035 26.5488C54.0027 26.9688 55.1497 27.7631 56.1003 28.8389C56.2478 29.0052 55.9573 29.4014 55.947 29.4648C55.8069 30.4461 56.3512 29.3186 56.4255 29.3008C56.9929 29.2114 57.0553 30.4287 57.8728 29.168C58.6097 29.7982 59.4292 30.1964 60.239 30.6172C60.8753 30.5222 61.4965 30.8794 61.8816 31.2773C61.9557 31.3519 61.937 31.512 61.9246 31.6523C62.3998 32.0261 62.8456 32.4825 63.2341 33.0918C63.2426 33.1093 63.175 33.2757 63.116 33.4355C63.1328 33.4481 63.1513 33.4599 63.1677 33.4746C63.2945 33.588 63.4215 33.6967 63.5466 33.8037C63.7784 33.5589 64.0443 33.0097 64.4997 32.4766C64.6961 32.2488 64.5049 33.7426 64.4949 33.8574C64.4808 34.0153 64.4081 34.2316 64.3288 34.4453C64.3946 34.4971 64.4597 34.5489 64.5251 34.5996C64.8516 33.9335 65.2626 33.0366 65.4656 33.1396C65.4749 33.1502 65.2375 33.6574 65.2478 33.7266C65.2808 33.9401 65.4483 33.7772 65.4734 34.0059C65.5282 34.5365 65.0978 35.9787 65.7068 35.3252C65.7854 35.2373 66.3132 33.5706 66.6003 33.8105C66.7153 33.9082 67.2775 34.1647 67.3992 34.3535C67.5177 34.5404 67.2215 35.0117 67.2234 35.042C67.3489 35.7133 67.24 36.004 67.1101 36.5605C67.1869 36.6481 67.2651 36.7439 67.3415 36.8418C67.5318 36.3683 67.738 35.8317 67.8191 35.7305C68.0033 35.5021 68.1046 36.2371 68.1081 36.4766C68.1114 36.7156 67.8968 37.0023 67.9226 37.1504C68.1008 38.1207 68.5562 36.0327 68.8425 35.7178C69.5174 34.9732 69.1395 36.9365 69.3923 37.2793C69.461 37.3713 69.5403 36.9214 69.6306 36.9209C69.9866 36.9297 69.9653 37.5923 70.4949 37.248C70.5825 37.1909 71.2491 36.2397 71.1443 37.1377C71.128 37.2673 70.8931 37.6826 70.9861 37.8516C71.1256 38.1044 71.4386 38.3834 71.6999 38.3389C71.8931 38.3055 71.9875 37.4671 72.0964 37.7988C72.1441 37.9468 71.829 38.3028 71.9324 38.5439C72.036 38.785 72.4458 38.9747 72.6091 39.041C72.7715 39.1054 72.8894 38.4936 72.9158 38.4619C73.0712 38.2828 73.4693 38.1636 73.4958 38.1777C74.8482 38.7932 75.7287 40.3813 77.1433 40.7344C77.2534 40.7611 77.3988 40.1333 77.4187 40.127C77.8567 40.0553 77.0132 41.5061 77.0652 42.1641C77.4645 40.9314 77.5298 41.2239 77.8201 41.2158C77.9602 41.2102 78.0646 40.7079 78.0925 40.665C78.5208 40.0405 78.3121 41.022 78.2751 41.2285C78.1449 41.9835 78.5659 41.2304 78.4802 41.7344C78.3952 42.2362 77.9675 42.826 78.2078 42.9395C78.4294 42.539 78.6596 41.3138 78.905 41.2197C79.8272 40.8689 80.7702 42.4082 81.2742 42.7764C81.7684 43.1394 81.988 43.1567 82.2458 43.4746C82.714 44.0506 82.806 43.1001 83.2927 42.8926C83.7777 42.685 82.8696 44.6739 82.7605 45.1465C82.6495 45.6167 82.8717 45.1883 82.8474 45.4658C82.8233 45.7432 82.5795 45.9764 82.6951 46.1445C82.8122 46.3123 83.4957 45.7248 83.7126 45.2842C84.1728 44.3509 84.363 43.2219 84.616 43.7812C84.6302 43.8141 84.366 44.3247 84.4304 44.4229C84.526 44.5634 84.6269 44.6904 84.7302 44.8086L84.6951 44.792C85.1964 45.3044 85.7514 45.6426 86.2019 46.1992C86.2758 46.2958 86.0007 46.8725 86.0417 46.9355C86.4912 47.5908 86.6176 46.4576 87.2976 45.4434C86.741 46.9511 86.6221 47.9739 87.0515 48.1787C87.3086 48.3016 87.4755 47.6089 87.7908 47.21C87.8854 47.091 87.9217 47.6333 88.0535 47.332C88.488 46.3472 88.6771 45.1108 88.9871 45.7773C88.9979 45.8124 88.7601 46.3441 88.8171 46.4102C89.1898 46.8347 89.5824 45.7775 90.0915 45.8574C90.4753 45.914 90.9616 46.8842 91.3406 47.1768C90.7915 48.9068 91.3063 48.6854 91.8406 47.5625C92.107 47.7379 92.4285 47.8053 92.6413 48.0889C92.7137 48.1868 92.4987 48.6606 92.4929 48.7207C92.4039 49.6501 92.8834 48.5401 92.9558 48.5205C93.731 48.3629 93.9961 49.4843 94.863 48.8906C94.8949 48.8695 95.3055 47.6805 95.1999 48.6338C95.1919 48.6992 94.8161 49.1561 95.0954 49.3291C95.3803 49.5044 95.7005 50.3822 96.2878 50.0078C96.4284 49.9173 96.9785 49.0485 96.9382 49.8994C96.9322 50.0148 96.796 50.3485 96.7742 50.5576C96.7069 51.2236 97.1494 50.0355 96.9714 51.1328C96.7852 52.2272 96.8678 53.1457 97.488 52.6084C97.5099 52.5867 97.8985 51.672 98.0193 51.7393C98.2065 51.8507 98.4424 52.1832 98.6579 52.2715C98.7607 52.313 98.879 51.6906 98.9011 51.6807C99.6769 51.6411 100.016 52.3982 100.668 52.9482C100.793 53.0518 101.431 52.4053 101.485 53.1631C101.517 53.5752 101.242 54.4749 101.062 55.2285C101.3 55.3375 101.532 55.4866 101.741 55.6455C102.293 54.6624 103.032 53.255 102.946 54.792C104.019 54.7184 104.563 56.0809 105.696 55.8037C105.748 55.7913 106.201 54.8118 106.296 54.8652C106.433 54.9524 106.36 55.4735 106.451 55.5518C106.849 55.8954 107.374 55.6556 107.764 55.9053C107.92 56.0024 107.707 56.4797 107.886 56.5938C108.062 56.705 108.402 56.1043 108.555 56.541C108.662 56.8706 108.433 58.3133 108.621 58.583C109.062 57.2589 109.239 57.372 109.658 57.1689C109.742 57.1296 109.831 56.6398 109.879 56.5967C110.078 56.4174 110.056 56.8503 110.251 56.6465C110.298 56.5976 110.454 56.1464 110.504 56.082C110.93 55.5182 110.882 56.6841 110.872 56.8877C110.828 57.6542 111.137 57.1276 111.191 57.4697C111.241 57.8103 110.898 58.0143 111.009 58.2656C111.232 58.7651 111.67 58.9619 111.998 59.1973C112.008 59.2053 112.019 59.2136 112.029 59.2217C112.162 59.323 112.344 58.7073 112.372 58.7002C112.733 58.7656 112.714 59.5645 113.447 58.5879C112.151 61.5676 113.764 58.4413 113.872 59.3262C113.879 59.3975 113.189 60.7487 112.967 60.8516C112.745 60.9536 112.79 60.4004 112.465 60.582C112.386 60.6227 111.513 61.7193 111.447 61.7764C110.916 62.2087 111.903 60.1622 111.946 60.04C112.175 59.3853 112.045 59.3506 111.845 59.4873L111.865 59.501C111.675 59.6465 111.423 59.9663 111.366 59.9941C110.854 60.2413 110.703 59.7871 110.292 59.958C110.245 59.9784 110.191 60.0419 110.13 60.1289C110.45 60.5551 110.801 60.9818 111.472 62.333C111.748 62.9152 112.032 63.7638 112.154 64.7666C112.196 64.4637 112.274 64.2851 112.388 64.3896C112.457 64.4525 112.171 65.2227 112.247 65.4727C112.388 65.9216 112.611 64.3027 112.729 65.1504C112.773 65.1047 112.819 65.0654 112.874 65.042C112.99 64.9925 113.175 65.4832 113.314 65.4238C113.452 65.3626 113.25 64.69 113.561 64.8711C113.798 65.0111 114.512 66.1885 114.749 66.2266C114.184 64.9716 114.314 64.9183 114.378 64.4492C114.389 64.3577 114.149 63.9493 114.145 63.8838C114.124 63.6079 114.361 63.9217 114.328 63.6279C114.32 63.556 114.131 63.1268 114.114 63.0439C113.966 62.3258 114.61 63.1598 114.718 63.3086C115.134 63.8653 114.96 63.2623 115.177 63.4512C115.39 63.6425 115.363 64.057 115.551 64.1387C115.615 64.1668 115.678 64.1828 115.737 64.1904C115.739 64.1899 115.742 64.1863 115.744 64.1855C116.051 64.2108 116.298 63.9996 116.521 63.8828C116.627 63.8239 116.311 63.2924 116.318 63.2676C116.473 62.9869 116.948 63.4732 116.587 62.2422C117.982 65.1496 116.598 61.8741 117.162 62.2881C117.209 62.3287 117.812 63.7315 117.805 63.9932C117.803 64.0776 117.769 64.0946 117.722 64.0957C119.177 65.4974 117.353 63.2764 118.079 63.2871C118.141 63.2893 119.11 64.3692 119.129 64.6748C119.147 64.9798 118.678 64.8405 118.726 65.292C118.737 65.3984 119.385 66.7175 119.408 66.8174C119.582 67.5981 118.161 65.955 118.072 65.8779C117.977 65.7969 117.897 65.7397 117.832 65.6992C117.86 65.8115 117.882 65.8891 117.885 65.9092C117.923 66.2287 117.771 66.0114 117.581 65.6562C117.449 65.8147 117.772 66.5579 117.767 66.6729C117.738 67.4206 117.265 67.5146 117.205 68.0957C117.164 68.4749 118.057 69.594 117.889 69.7275C117.333 70.1696 115.899 68.8304 116.565 70.6807C116.708 71.0748 117.797 72.1656 116.678 71.6221C116.604 71.586 115.643 71.0247 115.954 71.7402C115.994 71.8309 116.285 72.1775 116.287 72.2354C116.287 72.2419 116.287 72.2486 116.287 72.2549L116.304 72.2334C116.284 72.6005 115.947 72.4739 115.868 72.8291C115.793 73.1838 115.72 73.6605 115.403 73.792C115.212 73.8712 114.516 73.3984 114.326 73.3018C113.776 73.0311 114.195 74.0134 113.636 73.5615C113.082 73.0995 112.616 71.9855 112.052 71.9111C112.761 72.872 113.475 73.8742 114.179 74.8496C113.5 75.5264 112.634 75.8789 112.011 76.5859C111.936 76.6732 112.39 77.1178 112.318 77.2256C112.005 77.6857 111.421 77.6309 111.144 78.1572C110.928 78.5712 110.991 79.4498 110.767 79.9033C109.813 78.9422 109.599 79.7868 109.204 79.9922C109.062 80.0668 108.867 79.7537 108.717 79.7334C108.152 79.6672 108.971 80.5428 108.991 80.7842C109.076 81.8126 107.52 79.5466 107.127 80.0059C107.108 80.0315 107.626 81.5257 107.635 81.6426C107.708 82.3798 107.314 81.2513 107.096 81.3076C106.706 81.4029 106.325 81.2847 106.217 81.9629C106.187 82.163 106.455 83.1433 105.882 82.7197C105.806 82.6636 105.558 82.241 105.522 82.2354C105.465 82.2294 105.42 82.2345 105.385 82.25C105.395 82.3304 105.36 82.3671 105.298 82.377C105.232 82.7236 105.728 83.6128 105.785 84.0967C105.857 84.7216 104.966 84.1232 104.736 83.9258C104.142 83.4179 104.689 83.5192 104.658 83.4463C104.53 83.1497 104.426 82.9944 104.338 82.9209C104.343 83.0083 104.343 83.0853 104.331 83.1436C104.304 83.1078 104.277 83.0742 104.252 83.042C104.229 83.2423 104.195 83.4291 104.143 83.6016C104.388 84.3 104.284 84.5553 103.81 84.2793C103.673 84.4624 103.506 84.6154 103.306 84.7344C103.291 84.7311 103.029 84.4256 102.916 84.3154C102.914 84.3342 102.909 84.3533 102.896 84.3721C102.839 84.4555 102.781 84.5383 102.723 84.6221C102.747 84.7037 102.763 84.7778 102.76 84.8418C102.754 84.9177 102.737 84.9837 102.719 85.043C102.77 85.2679 102.838 85.5125 102.872 85.7334C102.956 86.3287 102.696 86.4194 101.886 85.7773C101.869 85.8523 101.82 85.9018 101.753 85.9346C101.661 86.0447 101.567 86.1522 101.47 86.2588C101.551 86.3766 101.629 86.4865 101.594 86.5518C101.539 86.6609 101.459 86.7209 101.37 86.7666C101.4 86.8091 101.421 86.8357 101.422 86.8408C101.491 87.4121 101.313 87.571 101.065 87.668C101.081 87.712 101.087 87.7461 101.069 87.7637C100.77 88.0718 100.432 88.2686 100.087 88.458C99.9929 88.6415 99.91 88.8356 99.8542 88.9854C99.7615 89.2448 99.4934 89.1281 99.4538 89.4346C99.4504 89.4777 99.7905 89.8751 99.8005 89.9023C100.024 90.594 99.3089 89.4642 99.1335 89.3145C99.0796 89.2682 99.0261 89.2257 98.9763 89.1836C98.8419 89.3187 98.6904 89.5259 98.5369 89.7373C98.8183 90.2616 99.1608 90.9023 99.1453 91.0156C99.109 91.255 98.7516 90.6625 98.7263 90.9238C98.7262 90.9487 98.9723 91.2814 98.8855 91.3467C98.4793 91.6574 97.9433 91.8622 97.5935 92.2695C97.5466 92.3264 97.9906 92.8063 97.9255 92.8955C97.6168 93.3127 97.2096 93.6739 96.6892 93.7432C96.5594 93.7578 96.3549 93.3167 96.2595 93.2178C95.6812 92.6226 96.1953 93.7963 96.1804 93.8418C95.8839 94.8442 94.957 94.5184 94.5037 95.2393C94.4658 95.3034 94.4315 95.3776 94.4031 95.4639C94.3888 95.5238 94.8215 96.8681 94.1169 96.0049C94.069 95.9466 93.3514 95.0605 93.6648 95.8242C93.6859 95.8731 94.0661 96.3178 93.9119 96.375C93.7592 96.4316 93.7637 96.9493 93.2517 96.541C93.0894 96.4125 92.3567 95.5411 92.6746 96.4707C92.6993 96.5358 93.5319 98.5344 92.6912 97.3887C92.5532 97.1994 91.7764 95.8871 91.9871 96.7227C92.0282 96.8847 92.2727 97.116 92.2839 97.3838C92.3005 97.7966 91.8879 97.6239 92.0486 98.3691C92.0782 98.5004 92.4663 99.5108 91.9499 98.9346C91.8686 98.843 91.6412 98.3793 91.5525 98.3818C91.1272 98.3934 91.0015 98.9415 90.5281 98.8867C90.3619 98.8661 89.9977 98.1119 89.779 98.0117C89.5604 97.9117 89.2363 97.9105 89.3132 98.3291C89.3886 98.7497 90.1713 99.7851 90.0515 100.02C89.5261 101.04 88.3863 100.978 87.5632 101.474C87.4414 101.548 87.7587 101.89 87.5935 102.029C86.9883 102.543 86.0787 103.76 85.073 103.248C84.2693 102.838 84.5551 101.89 84.074 101.832C83.846 101.803 84.3455 103.317 84.3259 103.39C84.1491 104.107 83.5832 103.673 83.3201 104.1C83.2659 104.188 83.6006 104.709 83.5525 104.779C83.3855 105.02 83.0372 104.918 82.8562 105.097C82.7757 105.18 82.9889 105.605 82.8884 105.627C82.6542 105.682 82.392 105.618 82.0232 105.341C82.0279 105.374 82.0261 105.399 82.0095 105.416C81.5833 105.826 81.0772 106.204 80.5271 106.401C80.5416 106.81 80.4838 107.143 80.1667 106.677C80.067 106.53 79.7917 106.055 79.615 105.83C79.5551 105.788 79.5124 105.776 79.4802 105.789C79.5395 105.928 79.7232 106.308 79.6716 106.395C79.6109 106.49 79.5402 106.568 79.4665 106.639C79.4685 106.661 79.4713 106.675 79.4685 106.68C79.3009 106.98 79.101 107.186 78.8855 107.345C78.9504 107.531 79.1272 107.84 79.0505 107.932C78.7635 108.268 78.2839 108.353 77.8796 108.352C77.7815 108.35 77.7086 108.122 77.6619 107.953C77.5865 107.99 77.5126 108.03 77.4392 108.073C77.4592 108.179 77.4752 108.265 77.4695 108.287C77.3483 108.736 77.045 108.549 76.8171 108.608C76.7676 108.672 76.7196 108.74 76.6736 108.814C76.6724 108.817 76.6734 108.821 76.6726 108.825C76.7145 109.007 76.8565 109.318 76.8581 109.361C76.8652 109.722 76.77 109.415 76.6658 109.135C76.6638 109.55 76.6155 110.147 76.0974 109.524C76.0645 109.486 75.7181 109.065 75.5603 109.054C75.4811 109.13 75.739 109.608 75.7253 109.745C75.7773 109.857 75.7956 109.963 75.6951 110.007C75.46 110.108 75.3119 110.717 74.7195 110.343C74.6911 110.325 74.6501 110.29 74.6013 110.247C74.4183 110.268 74.2293 110.264 74.0349 110.226C73.9954 110.217 73.9595 110.148 73.9236 110.06C73.9162 110.135 73.9206 110.238 73.9421 110.375C73.9556 110.447 74.5124 112.627 73.6931 111.447C73.6016 111.315 73.2582 110.64 73.0593 110.508C73.0132 110.557 72.9668 110.606 72.9177 110.651C72.9145 110.694 72.914 110.746 72.9167 110.809C72.9258 110.99 73.1948 111.212 73.1316 111.523C73.0356 112.001 72.5187 111.88 72.5281 112.717C72.531 112.866 72.7818 113.961 72.2361 113.392C72.1506 113.302 71.9699 112.806 71.8474 112.825C71.2639 112.919 70.9418 113.578 70.3142 113.604C70.0925 113.614 69.797 112.812 69.5242 112.739C69.2511 112.667 68.8094 112.73 68.8025 113.2C68.7959 113.671 69.594 114.709 69.3728 115.001C68.5198 116.124 67.2338 116.373 66.0984 116.93C66.3284 117.347 66.4005 117.607 66.4744 117.811C66.5579 118.068 66.6046 118.284 66.6091 118.301C66.7091 118.763 66.6998 118.805 66.7107 118.857C66.7235 118.952 66.7175 118.921 66.7087 118.898C66.6939 118.871 66.1856 118.937 66.1609 118.93C65.9605 118.806 66.3274 118.589 66.1853 118.399C66.132 118.322 65.6357 118.462 65.5818 118.346C65.4369 118.027 66.2781 117.577 65.7029 117.271C65.6774 117.258 65.6455 117.246 65.6081 117.236C65.5755 117.378 65.7927 117.631 65.5798 117.793C65.2762 118.025 64.9162 118.345 64.5271 118.663C64.5873 118.745 64.512 118.816 64.2722 118.868C64.169 118.948 64.064 119.027 63.9578 119.103C63.9424 119.287 63.9424 119.469 63.7927 119.788C63.6733 120.147 63.2913 119.753 63.2351 119.785C63.2076 119.797 63.183 119.802 63.154 119.826C63.0992 119.876 63.1117 120.013 62.7888 120.172C62.6217 120.246 62.389 120.128 62.3581 120.076C62.2938 120.011 62.2673 119.954 62.2507 119.912C62.2316 119.859 62.2268 119.822 62.2253 119.794C62.1201 119.791 62.0151 119.779 61.9119 119.753C60.8919 119.491 61.4592 118.351 60.8074 118.41C60.4942 118.44 60.9027 120.015 60.865 120.102C60.5011 120.95 59.7968 120.616 59.366 121.164C59.2768 121.278 59.6529 121.772 59.574 121.862C59.3073 122.176 58.8514 122.153 58.572 122.405C58.447 122.52 58.6765 122.937 58.5359 122.988C58.2019 123.117 57.8529 123.112 57.3679 122.904C57.3239 122.883 57.249 122.224 57.0183 122.354C56.6443 122.566 56.0148 122.461 55.7956 123.152C55.7309 123.36 56.1867 124.358 55.6042 123.849C55.4821 123.742 54.9987 122.498 55.1687 123.736C55.1965 123.943 55.3223 125.679 54.654 124.948C54.4776 124.756 53.8579 123.889 53.779 124.139C53.7701 124.177 54.0954 124.662 53.9958 124.795C53.6392 125.256 53.1654 125.49 52.7869 125.952C52.6883 126.076 53.1155 126.517 52.9597 126.684C52.5287 127.143 51.8527 127.393 51.2869 127.526C51.079 127.574 50.9988 127.031 50.9636 126.988C50.3959 126.299 50.7566 127.481 50.7165 127.593C50.4586 128.248 49.8919 127.938 49.5525 128.322C49.4591 128.428 49.7625 128.908 49.7624 128.971C49.7319 129.574 49.4945 128.519 49.3054 128.5C49.1372 128.484 48.9788 128.504 48.8298 128.55C48.5095 128.647 48.2301 128.862 47.9763 129.075C47.8407 129.191 48.2668 129.707 48.1423 129.804C47.4101 130.384 46.5785 130.816 45.6697 130.941C45.4991 130.963 45.387 130.434 45.3113 130.343C44.7846 129.708 44.9239 130.925 44.8972 131.066C44.7759 131.707 44.477 131.36 44.2273 131.61C43.0245 132.832 41.2323 133.568 39.8718 134.174C38.1058 134.963 36.6239 135.288 35.0613 136.374C34.9644 136.443 35.3306 137.016 35.2497 137.082C34.1836 137.914 32.9697 138.33 31.9031 139.197C31.8165 139.267 32.1994 139.789 32.0691 139.921C31.8044 140.193 31.4026 140.392 31.0076 140.388C30.8171 140.385 30.8063 139.747 30.6189 139.756C30.1814 139.775 29.7883 139.958 29.4685 140.269C29.3287 140.405 29.821 140.878 29.6189 141.008C28.2613 141.893 26.971 142.793 25.2439 142.822C25.1255 142.822 24.5329 141.616 24.4265 141.978C24.5541 142.335 24.7237 142.743 24.8699 143.119C22.9491 144.505 20.7776 145.244 18.7458 146.352C18.6614 146.398 19.0753 146.979 18.9138 147.072C17.9453 147.628 17.1192 148.339 15.864 148.252C15.7422 148.24 15.3153 147.043 15.1111 147.381C15.0698 147.445 14.6987 147.854 14.6941 148.171C14.6948 148.218 14.993 148.721 14.864 148.816C14.0876 149.371 13.2097 149.726 12.2722 149.857C12.121 149.877 12.0249 149.214 11.9119 149.224C11.135 149.293 10.597 150.15 9.77221 149.977C9.20781 149.865 8.96507 148.762 8.33959 147.901C8.24037 147.786 8.00271 147.898 7.739 147.34C7.10521 145.916 6.59452 144.249 5.90307 142.741C5.77463 142.488 5.62284 142.794 5.5017 142.462C4.93533 142.619 5.40794 142.843 5.15014 143.002C4.88633 143.163 4.63724 142.793 4.46068 143.007C4.0957 143.45 4.06466 144.105 3.96654 144.609C3.92991 144.811 4.48382 144.795 4.49096 144.826C4.5587 145.281 3.92479 145.568 4.94311 146.059C2.15731 145.684 5.16649 146.379 4.51244 146.85C4.45964 146.887 3.15916 146.614 2.99975 146.387C2.84166 146.162 3.29276 145.991 3.03881 145.67C2.97926 145.592 1.82511 144.971 1.75561 144.908C1.23852 144.423 3.18084 144.819 3.29271 144.824C4.47651 144.87 3.23188 144.157 3.15697 144.03C2.81778 143.444 3.1522 143.079 2.91381 142.604C2.75857 142.293 1.49055 142.014 1.55639 141.812C1.77942 141.145 3.59371 141.219 2.13158 140.273C1.81929 140.072 0.404767 139.967 1.56518 139.652C1.64085 139.633 2.68828 139.424 2.07787 139.098C1.99965 139.057 1.59335 138.99 1.56322 138.948C1.36961 138.67 1.71244 138.561 1.58666 138.271C1.46035 137.982 1.26215 137.63 1.43236 137.349C1.53445 137.179 2.31983 137.059 2.51537 136.998C3.07752 136.829 2.22431 136.433 2.88842 136.371C3.365 136.325 3.99127 136.537 4.47924 136.536C4.48453 136.464 4.49011 136.392 4.49877 136.321C3.5933 136.178 2.67339 136.024 1.76928 135.878C1.89208 134.996 2.31399 134.161 2.34057 133.258C2.34158 133.146 1.76352 133.192 1.74877 133.071C1.69837 132.562 2.14088 132.166 2.01732 131.627C1.91929 131.209 1.34383 130.703 1.21947 130.27C2.4569 130.131 2.08457 129.463 2.22436 129.016C2.27316 128.86 2.59827 128.9 2.71166 128.796C3.13112 128.396 2.04095 128.507 1.87768 128.374C1.18263 127.815 3.62742 127.967 3.60131 127.364C3.59922 127.33 2.32013 126.84 2.24096 126.782C1.73064 126.407 2.69639 126.762 2.80443 126.557C3.00044 126.182 3.32454 125.931 2.96459 125.453C2.85628 125.312 2.0628 124.938 2.70092 124.726C2.78467 124.696 3.21467 124.743 3.24193 124.717C3.68337 124.245 2.32982 124.153 1.88353 123.841C1.74716 123.746 1.74183 123.646 1.80736 123.552C1.95687 123.327 2.47254 123.132 2.66186 123.082C3.36751 122.889 2.95341 123.275 3.02123 123.291C3.82864 123.483 3.70102 123.165 3.77904 122.919C5.10806 122.955 5.04079 122.612 3.85424 122.673C3.72539 122.68 3.84109 122.872 3.77904 122.919C2.48482 122.635 2.33165 122.263 3.56225 121.911C3.73082 121.862 3.90655 121.846 4.06518 121.833C4.05667 121.793 4.04584 121.754 4.03881 121.714C4.00265 121.518 3.98661 121.322 3.98412 121.126C3.71432 121.079 3.42961 121.036 3.30932 120.917C2.75394 120.372 3.61939 119.713 3.49096 119.16C3.44373 118.962 2.942 119.146 2.89232 119.011C2.76044 118.649 3.13778 118.335 2.94701 117.972C2.92868 117.939 2.40516 118.016 2.39818 117.902C2.34064 117.045 2.67428 116.293 2.68041 115.383C2.68316 114.954 2.39068 114.151 2.44603 113.703C2.53919 112.902 3.29487 111.928 3.10521 111.243C2.98361 110.806 2.46075 110.904 2.10228 110.716C1.4072 110.347 2.64419 109.701 2.83568 109.603C2.84456 109.609 2.97033 109.984 3.2351 109.778C3.78855 109.654 2.86042 109.608 2.83568 109.603C2.95895 109.528 3.07311 108.794 2.9724 108.632C2.91701 108.549 2.4216 108.6 2.40014 108.557C1.94914 107.549 1.81625 106.515 2.04271 105.481C2.05265 105.463 2.6093 105.486 2.62572 105.443C2.86917 104.846 2.18721 104.451 1.781 103.973C1.37492 103.486 1.50801 103.067 2.46068 102.783C2.33926 102.419 2.75809 101.875 3.01244 101.555C3.26505 101.255 2.19426 101.218 2.16381 101.191C1.4754 100.361 2.09149 99.8477 2.18432 98.9824C2.23013 98.5575 2.07083 97.7353 1.95092 97.2881C1.85436 96.9313 2.10734 96.7111 1.94408 96.374C1.9213 96.3289 1.44489 96.3774 1.42162 96.3643C1.40956 96.3564 1.398 96.3482 1.38744 96.3408C0.893148 96.0141 2.02536 96.1718 2.23217 96.0986C2.99585 95.825 3.40281 95.6561 3.04174 95.1865C2.959 95.0783 1.26242 94.7672 1.16186 94.5654C1.03532 94.3024 1.64326 94.3999 1.49584 94.1357C1.48094 94.1135 1.1093 94.1189 1.12475 93.9561C1.19428 93.1997 1.41044 92.3257 1.37084 91.5449C1.36532 91.4368 0.772309 91.578 0.756582 91.4209C0.684136 90.6783 0.703685 89.8592 0.980214 89.1426C1.05023 88.9649 1.46646 89.0738 1.59057 89.0352C2.33695 88.796 1.25346 88.461 1.23021 88.4043C0.704883 87.0904 1.68634 86.0491 1.21557 84.7236C1.18659 84.6504 0.0218878 84.0891 1.02025 83.832C1.0879 83.8142 2.10776 83.5594 1.40893 83.3379C1.36228 83.326 0.84048 83.48 0.892324 83.2119C0.945364 82.9441 0.593443 82.5117 1.17064 82.1377C1.35264 82.0193 2.37201 81.7371 1.55834 81.3848C1.49448 81.361 -0.334212 80.8147 0.93041 80.624C1.1399 80.5923 2.48129 80.6218 1.79271 80.2061C1.65911 80.1269 1.36076 80.2719 1.17357 80.0625C0.884918 79.7406 1.24284 79.3105 0.644277 78.9111C0.537352 78.8418 -0.372484 78.544 0.318105 78.3057C0.426419 78.2687 0.873981 78.3376 0.92455 78.2139C1.16417 77.6231 0.86443 77.0007 1.17357 76.3926C1.28304 76.1777 2.00624 76.2854 2.19994 76.0605C2.39365 75.8323 2.57991 75.3892 2.24877 75.1562C1.91731 74.9241 0.762765 75.1808 0.669668 74.832C0.266538 73.3064 0.94224 71.8054 1.03978 70.2812C1.05434 70.0568 0.641781 70.2431 0.633535 69.9121C0.601481 68.6885 0.211676 66.5761 1.08861 65.5098C1.79084 64.6578 2.32746 65.7274 2.61303 65.0781C2.74904 64.7651 1.40729 64.4274 1.364 64.3516C0.934396 63.613 1.52794 63.0965 1.34545 62.4307C1.30752 62.2935 0.764231 62.4279 0.73705 62.3115C0.642413 61.9123 0.885255 61.4914 0.840566 61.1094C0.819135 60.9382 0.404003 60.9699 0.435293 60.8125C0.506964 60.435 0.681955 60.1006 1.07103 59.7324C1.10707 59.6992 1.62323 59.9234 1.64232 59.6445C1.67183 59.1928 2.05576 58.6317 1.65893 58.1123C1.53947 57.9582 0.590164 57.9523 1.24584 57.6201C1.386 57.5511 2.52017 57.6384 1.53686 57.2539C1.37166 57.1885 0.0452414 56.5407 0.900136 56.2217C1.12581 56.1374 2.05728 55.9216 1.91186 55.7363C1.88449 55.7123 1.37848 55.8112 1.32885 55.6582C1.16223 55.1164 1.21538 54.5514 1.05541 53.9932C1.01139 53.8447 0.48501 54.0659 0.436269 53.8447C0.302524 53.2348 0.436359 52.474 0.601308 51.8799C0.663301 51.6612 1.10031 51.8117 1.14818 51.7959C1.92072 51.5382 0.879323 51.3862 0.816152 51.3008C0.451687 50.7696 0.942208 50.3649 0.812246 49.877C0.777763 49.7427 0.28215 49.8375 0.235097 49.8115C-0.198797 49.5339 0.694535 49.74 0.793691 49.5645C1.0727 49.0739 1.03234 48.5178 0.968496 48.0186C0.94432 47.835 0.367681 48.0414 0.352285 47.877C0.252392 46.9042 0.306706 45.8894 0.624746 44.9375C0.68584 44.7588 1.13048 44.8702 1.23217 44.833C1.94172 44.5761 0.976212 44.2021 0.881582 44.1152C0.459808 43.725 0.852557 43.5658 0.779043 43.2168C0.41323 41.5137 0.673112 39.4192 0.83373 37.8066C1.04047 35.7239 1.46335 34.0945 1.35326 32.0928C1.34617 31.9671 0.75559 32.0936 0.741933 31.9854C0.599215 30.5721 0.829815 29.1931 0.658925 27.7666C0.645951 27.6511 0.0859097 27.8167 0.0456441 27.6318C-0.0396077 27.252 -0.00936862 26.7759 0.169668 26.3799C0.256424 26.1905 0.736689 26.4444 0.814199 26.2539C0.994515 25.8085 1.03493 25.3368 0.945058 24.8916C0.905511 24.7022 0.331964 24.9878 0.324941 24.7412C0.267982 23.002 0.169169 21.3676 0.911855 19.6133C0.963783 19.496 2.12811 19.3925 1.906 19.1465C1.58243 19.128 1.20105 19.1282 0.855214 19.1201C0.850346 19.0566 0.846598 18.9928 0.842519 18.9297C0.690739 16.5087 1.07463 14.0894 1.13549 11.6699C1.137 11.5673 0.520511 11.744 0.522207 11.5449C0.531256 10.351 0.360835 9.23382 0.974355 8.02051C1.03441 7.9067 2.12115 7.96134 1.95678 7.60254C1.92651 7.53254 1.78121 7.02227 1.54564 6.87793C1.50757 6.85949 1.00317 6.95761 0.988027 6.78223C0.911008 5.79509 1.02684 4.75245 1.33666 3.75391C1.38759 3.59068 1.92729 3.76327 1.96947 3.64844C2.25622 2.83944 1.84538 1.95831 2.33568 1.19043C2.66595 0.669149 3.60013 0.871975 4.51928 0.587891C4.64883 0.551225 4.6696 0.233901 5.20385 0.212891C6.54858 0.169749 8.02146 0.326665 9.45482 0.264648C9.609 0.253326 9.60357 0.143783 9.65209 0.0673828C9.6642 0.0526452 9.67976 0.0294233 9.70189 0.0185547C9.71308 0.0099362 9.72694 0.00961814 9.74193 0.00292969C9.74554 0.00189888 9.74981 0.00139319 9.75365 0.000976562L9.75658 0H9.88451C9.8862 0.000573419 9.88866 0.00079379 9.89037 0.000976562ZM3.17455 148.421C3.45614 147.536 5.73922 147.527 5.29467 148.51C5.21379 148.684 4.67911 147.912 4.43725 148.097C3.99958 148.425 5.29931 149.114 4.47924 149.342C4.32857 149.377 3.15987 148.472 3.17162 148.419C3.17247 148.42 3.17367 148.42 3.17455 148.421ZM9.24291 147.026C9.22708 147.002 9.0421 147.077 9.04662 147.107C9.21514 147.815 9.5922 147.661 9.24291 147.026ZM3.73021 141.639C3.35253 141.702 3.71694 142.164 4.18725 142.086C4.56554 142.022 4.20027 141.558 3.73021 141.639ZM5.39428 139.367C5.3801 139.409 5.35434 139.452 5.30834 139.495C5.06245 139.723 3.84035 139.782 3.65893 140.099C4.83359 140.316 4.7817 140.55 5.03881 141.029C5.07785 141.102 5.34283 141.109 5.47826 141.132C5.38463 140.876 5.1637 140.464 5.1599 140.218C5.16685 139.916 5.44603 140.359 5.4851 139.986C5.50339 139.812 5.44157 139.585 5.39428 139.367ZM5.27904 138.525C5.20095 138.549 5.13633 138.588 5.11791 138.676C5.08793 138.821 5.26047 138.972 5.35228 139.131C5.34495 139.066 5.34348 139.005 5.34936 138.948C5.32566 138.8 5.30522 138.659 5.28002 138.526L5.27904 138.525ZM3.98119 138.215C4.68222 137.888 2.01275 137.417 2.50561 137.949C2.53486 137.98 3.93448 138.233 3.98119 138.215ZM5.12768 135.073C5.13515 135.234 5.15904 135.397 5.20482 135.565C5.2094 135.564 5.21454 135.564 5.2185 135.562C5.68881 135.373 5.39978 135.191 5.12768 135.073ZM3.739 134.344C4.60551 134.079 3.39974 133.682 2.73314 133.859C2.06786 134.035 3.4748 134.423 3.739 134.344ZM9.51537 131.562C9 131.59 9.1508 131.8 9.62572 131.714C9.65395 131.709 9.6755 131.553 9.51537 131.562ZM4.3474 129.903C3.79868 129.92 3.42548 130.024 3.67553 130.443C3.71931 130.516 3.87912 130.604 4.09447 130.703C4.12577 130.618 4.23977 130.539 4.4851 130.478C4.55447 130.459 5.56789 130.203 4.86693 130.005C4.82314 129.993 4.31913 130.148 4.3474 129.903ZM10.6277 129.967C10.4474 130.069 10.1405 129.953 10.0388 130.043C9.62538 130.411 10.1609 130.405 10.7087 130.393C10.7375 130.213 10.7656 130.033 10.7917 129.853C10.7279 129.901 10.6692 129.942 10.6277 129.967ZM10.9402 128.723C10.5553 128.911 10.2316 128.86 9.52807 129.076C8.72798 129.326 10.2591 129.276 10.866 129.323C10.8926 129.124 10.9153 128.923 10.9402 128.723ZM22.5984 127.272C22.5224 127.338 22.4442 127.402 22.364 127.465C22.595 127.584 22.6608 127.492 22.5984 127.272ZM11.3835 126.18C10.947 126.423 9.81713 126.521 10.5271 126.915C10.5678 126.936 10.8539 126.935 11.1667 126.954C11.2177 126.709 11.3039 126.446 11.3835 126.18ZM11.4372 124.938C11.2979 124.986 11.19 125.022 11.1648 125.031C10.8353 125.153 10.0443 125.03 9.97728 125.07C9.62797 125.308 10.7922 125.341 11.5329 125.496C11.5489 125.315 11.5404 125.137 11.488 124.968C11.4835 124.954 11.4646 124.945 11.4372 124.938ZM11.5613 122.58C11.4764 122.839 11.3747 123.097 11.2507 123.363C11.2321 123.394 10.7054 123.337 10.6794 123.399C10.4382 124.005 10.928 124.025 11.657 124.266C11.9395 123.734 11.9428 123.186 11.7937 122.695C11.7704 122.621 11.6732 122.593 11.5613 122.58ZM28.4226 122.409C28.1326 122.567 27.8399 122.726 27.5378 122.889C27.7037 123.07 27.8643 123.225 28.0115 123.335C28.2124 123.192 28.4058 123.007 28.5749 122.804C28.528 122.69 28.47 122.545 28.4226 122.409ZM25.6824 121.753C25.5974 122.059 25.6813 122.456 25.9187 122.729C26.0083 122.776 26.1019 122.82 26.196 122.859C26.2012 122.827 26.2076 122.794 26.2097 122.758C26.2173 122.637 26.0949 122.187 26.1482 121.998C25.9642 121.903 25.7857 121.806 25.6824 121.753ZM10.7859 122.283C9.79909 122.026 9.69305 123.012 10.7312 122.798C10.7848 122.787 10.8352 122.301 10.7859 122.283ZM26.5876 122.194C26.6667 122.319 26.7653 122.487 26.8533 122.576C26.8549 122.578 26.8565 122.579 26.8581 122.581C26.8803 122.467 26.889 122.342 26.8835 122.215C26.8554 122.238 26.8016 122.243 26.7029 122.224C26.6694 122.22 26.6308 122.208 26.5876 122.194ZM11.9431 120.313C11.918 120.793 11.8707 121.272 11.7761 121.749C11.7303 121.989 11.6702 122.219 11.6003 122.448C11.7336 122.453 11.8672 122.452 11.8933 122.418C12.0124 122.26 11.9233 121.956 11.9626 121.833C12.041 121.6 12.0362 121.561 12.0417 121.339C12.0539 121.036 12.301 120.662 12.1882 120.342C12.1767 120.311 12.0677 120.312 11.9431 120.313ZM26.4079 121.331C26.6357 121.57 26.7703 121.715 26.78 121.729C26.7991 121.759 26.8121 121.79 26.8259 121.816C26.7694 121.59 26.6791 121.412 26.5759 121.377C26.5171 121.356 26.461 121.342 26.4079 121.331ZM26.8484 118.552C26.7878 118.743 26.708 118.935 26.6042 119.124C26.5506 119.216 26.0134 119.117 25.9724 119.183C25.8281 119.413 25.8591 119.653 25.864 119.891C26.4848 119.527 27.0816 119.113 27.6511 118.609C27.3867 118.591 27.1187 118.572 26.8484 118.552ZM81.7634 104.766C81.7748 104.836 81.8571 104.97 81.9265 105.101C81.8841 104.968 81.8284 104.818 81.7634 104.766ZM4.15014 100.167C4.66799 99.8717 2.76577 99.8397 3.2224 100.153C3.25232 100.168 4.12142 100.182 4.15014 100.167ZM78.8787 87.1113C78.8925 87.1195 78.9063 87.1267 78.9197 87.1338C78.9007 87.1114 78.8878 87.1029 78.8787 87.1113ZM84.5574 83.8018C84.6222 83.7597 84.668 83.6888 84.6462 83.5312C84.6459 83.5287 84.6434 83.5255 84.6423 83.5215C84.6195 83.5886 84.5615 83.5757 84.4871 83.5205C84.5099 83.6119 84.5346 83.7149 84.5574 83.8018ZM87.3142 83.2803C87.2875 83.2244 87.1234 83.2505 87.1394 83.3066C87.1542 83.3548 87.1696 83.4005 87.1843 83.4443C87.2423 83.4259 87.3001 83.4064 87.3581 83.3867C87.3433 83.3529 87.3308 83.3164 87.3142 83.2803ZM84.0369 83.0498C84.0223 83.0726 84.0447 83.179 84.0798 83.3145C84.1297 83.2941 84.1796 83.272 84.2331 83.2627L84.0828 83.0771C84.0673 83.0689 84.0525 83.0588 84.0369 83.0498ZM87.6121 82.9609C87.5919 82.9693 87.5656 82.9724 87.53 82.9658C87.4573 82.9513 87.4005 82.9102 87.3523 82.8584C87.417 83.0269 87.4955 83.2253 87.5124 83.2363C87.6608 83.3234 87.6697 83.2116 87.6121 82.9609ZM87.9099 82.7217C87.9615 82.8456 88.0142 82.985 88.0652 83.1191C88.0915 83.1081 88.118 83.0972 88.1443 83.0859C88.1105 82.9873 88.0767 82.8821 88.0398 82.7754C87.989 82.7509 87.9464 82.7329 87.9099 82.7217ZM83.5085 82.7988C83.5111 82.7997 83.5138 82.7999 83.5163 82.8008L83.491 82.7266C83.4971 82.7508 83.5026 82.775 83.5085 82.7988ZM89.9578 78.9971C90.4208 80.3093 90.3766 80.5203 89.7654 79.3721C89.7515 79.3905 89.7376 79.4087 89.7224 79.4258C89.6637 79.4933 89.5599 79.435 89.4519 79.3779C89.51 79.5485 89.5573 79.6988 89.5691 79.791C89.626 80.277 89.3788 80.0522 89.1833 79.9375C89.1835 80.0355 89.1491 80.1119 89.032 80.1416C89.1004 80.3219 89.2076 80.5528 89.196 80.6035C89.1498 80.81 88.8963 80.4554 88.8699 80.7246C88.8677 80.7497 89.1133 81.3031 89.0837 81.332C88.9546 81.4505 88.7792 81.4257 88.6042 81.4053C88.6575 81.5472 88.7004 81.6797 88.7068 81.6895C88.9424 82.0164 89.0644 82.2601 89.2068 82.5732C89.2495 82.5504 89.292 82.5272 89.3347 82.5039C89.2179 82.1984 89.1195 81.9366 89.0974 81.8525C89.0228 81.5666 89.362 82.0644 89.4695 82.2451C89.4938 82.2862 89.5167 82.3369 89.5398 82.3906C89.5781 82.3691 89.6168 82.3481 89.655 82.3262C89.4894 81.9059 89.2843 81.41 89.239 81.2197C89.0047 80.2396 89.8224 81.9677 90.0124 82.0742C90.063 82.102 89.8743 81.7108 89.8874 81.6562C89.942 81.4471 90.2343 81.9627 90.156 81.3779C90.1435 81.2823 89.8114 80.1503 90.198 80.8975C90.2538 81.0058 90.4073 81.4656 90.4958 81.5371C90.6284 81.6441 90.7978 81.6643 90.8142 81.4707C90.8254 81.3266 90.4619 80.6363 90.6257 80.8203C90.6991 80.9037 90.815 81.3659 90.9382 81.4854C90.9474 81.4943 90.9581 81.5003 90.9675 81.5068C91.0592 81.4455 91.1513 81.3841 91.2429 81.3213C91.1963 81.1731 91.0886 80.9387 91.0515 80.8525C90.979 80.9138 90.5927 80.2567 90.4734 80.0322C90.0954 79.3249 90.3936 79.6788 90.3679 79.6045C90.1531 78.9929 90.0682 78.8922 90.0046 78.8799C89.9896 78.9194 89.9733 78.9582 89.9578 78.9971ZM87.1433 81.5889C87.1789 81.6108 87.2101 81.6217 87.2361 81.627C87.1765 81.5892 87.1203 81.5559 87.0691 81.5352C87.0927 81.554 87.1172 81.5724 87.1433 81.5889ZM91.2009 78.0566C91.194 78.0643 91.6847 79.5201 91.7058 79.6201C91.8464 80.2475 91.4798 79.1517 91.3699 79.0859C91.1706 78.9719 90.9536 78.6856 90.989 79.1787C90.9995 79.3266 91.2748 80.2491 90.9138 79.624C90.8664 79.5413 90.6777 79.0777 90.6579 79.0547C90.3605 78.7334 90.8006 79.8411 90.989 80.4746C90.9812 80.3542 90.983 80.2606 90.988 80.2539C91.4483 79.8952 92.2928 80.5501 92.6374 79.9492C92.6633 79.9017 92.3944 79.3482 92.3913 79.3262C92.4057 79.1222 92.6423 79.7003 92.8913 80.2646C92.9091 80.2552 92.9263 80.2449 92.9441 80.2354C92.8605 79.9831 92.9257 80.0102 92.947 79.8945C92.9623 79.804 92.7428 79.3657 92.7263 79.3164C92.4902 78.5874 92.9213 79.4498 93.0124 79.625C93.3466 80.2675 93.0482 79.4483 93.2722 79.877C93.2948 79.9201 93.3142 79.9679 93.3367 80.0156C93.3509 80.0069 93.3645 79.9971 93.3787 79.9883C93.3211 79.862 93.2679 79.7391 93.2214 79.6299C93.2197 79.6739 93.2164 79.7128 93.2087 79.7441C92.5193 78.5259 92.532 79.0875 92.3357 79.0635C92.2681 79.055 92.1148 78.7091 92.029 78.6191C91.7095 78.2892 92.2859 79.3898 92.3298 79.5938C92.5167 80.4609 91.3487 77.8839 91.2009 78.0566ZM95.1355 74.3965C95.35 74.8624 95.7524 75.6073 95.6999 75.6064C95.4751 75.5966 94.3745 73.8879 95.1365 75.5381C95.1936 75.6597 95.3334 75.9005 95.4607 76.1221C95.3027 75.9405 94.7543 75.3141 95.0525 75.9072C95.0946 75.9911 95.3472 76.3815 95.3581 76.4238C95.4259 76.6999 95.1789 76.433 95.196 76.6533C95.2133 76.8744 95.2553 77.1875 95.0769 77.1387C94.9688 77.1089 94.4438 76.43 94.3074 76.2705C93.917 75.8091 94.3517 76.7431 93.9255 76.1426C93.8548 76.041 93.7824 75.9265 93.7087 75.8057C93.706 75.8636 93.7022 75.9247 93.697 75.9834C93.9608 76.4466 94.2259 76.909 94.4871 77.3682C94.1756 77.5729 93.7014 77.4495 93.4431 77.709C93.4124 77.7448 93.7488 78.2992 93.7244 78.3525C93.6085 78.5669 93.2562 78.2498 93.1716 78.5352C93.1524 78.6054 93.1558 78.7271 93.1667 78.8682C93.3552 78.6566 93.8127 78.905 94.0369 78.9346C93.9523 78.8257 93.8607 78.723 93.8533 78.6992C93.6373 77.9894 94.1972 78.8335 94.4206 78.832C94.4276 78.8313 94.4347 78.831 94.4421 78.8311C94.5185 78.8174 94.5924 78.7978 94.6648 78.7754C94.6486 78.5752 94.419 78.105 94.3874 77.7861C94.3617 77.5267 94.633 78.0836 94.9099 78.6816C95.0242 78.6281 95.1325 78.5638 95.2351 78.4902C94.9514 77.8764 94.7428 77.4438 94.9568 77.625C94.9743 77.6401 95.1916 78.1746 95.2468 78.207C95.3253 78.2496 95.3992 78.2764 95.4685 78.2979C95.748 78.0366 95.9705 77.7044 96.1384 77.3477C96.1301 77.3252 96.1213 77.3029 96.113 77.2803C96.1226 77.3007 96.1328 77.3207 96.1423 77.3408C96.1643 77.2939 96.1888 77.2478 96.2087 77.2002C96.3474 76.8628 95.4446 76.4109 96.0388 76.543C96.0807 76.553 96.4081 77.0096 96.5027 76.9746C96.5138 76.9705 96.523 76.9619 96.5339 76.9561C96.3582 76.5866 96.2848 76.3851 96.4763 76.5479C96.4861 76.5572 96.5656 76.725 96.6404 76.875C96.6887 76.8258 96.7344 76.7656 96.7771 76.7031C96.6983 76.427 96.5887 76.0918 96.6394 75.9678C96.6969 75.829 97.016 76.0422 97.2517 76.1484C97.2913 76.1021 97.3242 76.0519 97.3689 75.9883C97.2533 75.6605 97.2728 75.5857 97.4685 75.8535C97.4884 75.8269 97.5097 75.801 97.532 75.7754C97.2015 74.9468 96.9384 74.8973 96.6999 74.9688C96.6096 75.0096 96.5219 75.052 96.4314 75.0527C96.306 75.0543 96.209 74.6803 96.0935 74.5918C95.6602 74.2694 96.1539 75.4379 96.1267 75.665C96.043 76.3905 95.5496 75.0198 95.1355 74.3965ZM107.844 74.8867C108.065 75.1387 108.338 75.4217 108.399 75.6035C108.641 76.3325 107.716 76.0775 107.607 76.4873C107.604 76.4977 107.603 76.5091 107.605 76.5205C107.664 76.5959 107.723 76.6734 107.783 76.752C107.897 76.8597 108.023 76.9654 108.015 77.0264C108.014 77.0339 108.012 77.0408 108.01 77.0479C108.539 77.742 109.038 78.334 109.172 77.6572C109.256 77.2769 108.218 75.1868 108.435 74.7666C108.328 74.6921 108.223 74.6117 108.128 74.5342C108.033 74.6527 107.938 74.7703 107.844 74.8867ZM91.8865 76.8701C91.8644 77.0283 91.7886 77.0539 91.6472 76.9404C91.8523 77.3137 91.9922 77.4889 91.9763 77.1914C91.9749 77.1426 91.9396 77.0273 91.8865 76.8701ZM92.9343 76.0068C92.9576 76.1715 92.9929 76.3592 93.0281 76.5459C93.1411 76.7563 93.2669 76.9707 93.3816 77.1328C93.8059 77.7168 93.1185 76.2677 92.9343 76.0068ZM95.4988 76.165C95.7021 76.3916 95.8 76.4841 95.8288 76.4883L95.7097 76.5938C95.7047 76.5508 95.5894 76.3461 95.4607 76.1221C95.4794 76.1436 95.4932 76.1589 95.4988 76.165ZM94.0691 75.1748C94.0237 75.1747 93.9808 75.1845 93.9402 75.207C94.2562 75.7312 94.6308 76.2702 94.531 75.9375C94.5233 75.9152 94.2928 75.5377 94.0691 75.1748ZM111.701 74.5654C110.893 74.0728 111.524 75.3715 112.127 75.7764C112.727 76.182 111.95 74.711 111.701 74.5654ZM98.1443 74.5947C97.9705 74.8702 97.8308 75.3469 97.6579 75.6426C97.8495 75.4555 98.0728 75.2734 98.2204 75.0322C98.0909 74.8393 98.0035 74.6942 98.2576 74.9717C98.2839 74.9219 98.3084 74.87 98.3269 74.8145C98.341 74.7674 98.2474 74.6872 98.1443 74.5947ZM89.3982 68.2139C89.278 67.5581 88.6124 68.9742 88.2048 69.333C88.1537 69.378 88.1113 69.3989 88.0769 69.4004C88.1245 69.7592 88.2821 70.8466 88.2888 70.9307C88.3291 71.4321 88.1075 70.4173 87.9646 69.7422C87.8942 70.1763 87.7992 70.6081 87.6785 71.04C87.7442 71.473 87.8095 71.893 87.78 71.8779C87.7241 71.8453 87.6455 71.6379 87.5681 71.4111C87.5146 71.5819 87.457 71.7527 87.3953 71.9238C87.4901 72.5076 87.6376 73.3161 87.3591 72.3154C87.3543 72.2987 87.3342 72.235 87.3113 72.1504C87.2789 72.2353 87.2451 72.3202 87.2107 72.4053C87.2141 72.4301 87.2186 72.4472 87.2185 72.4541C87.2138 72.5871 87.1867 72.57 87.157 72.5381C87.1151 72.6385 87.0718 72.7391 87.0271 72.8398C87.016 72.8839 87.0026 72.9167 86.9861 72.9316C86.9525 73.0058 86.9187 73.0809 86.8835 73.1553C86.6877 73.5159 86.4709 73.8928 86.2283 74.2715C86.274 74.381 86.3115 74.4806 86.3259 74.499C86.856 75.1827 86.4741 74.0283 86.5095 73.9434C86.9372 73.1261 87.7997 73.6459 88.0486 72.4668C88.057 72.4247 87.613 71.2529 88.1238 71.9961C88.1576 72.0485 88.1781 72.6882 88.4753 72.5625C88.724 72.4564 89.298 72.6544 89.5925 72.2939C89.5849 72.2618 89.5757 72.2247 89.5681 72.1816C89.5033 71.7855 89.5228 70.6661 89.4929 69.5645C89.4894 69.4378 89.4688 69.3975 89.4607 69.041C89.269 69.1871 89.0847 69.263 89.1658 68.7988C89.1834 68.6977 89.4036 68.2526 89.3982 68.2139ZM108.711 74.1035C107.655 73.1352 107.594 73.3814 108.567 74.1934C108.674 74.2813 108.646 74.0849 108.711 74.1035C108.907 74.3281 109.059 74.5229 109.172 74.6807C109.241 74.572 109.318 74.4743 109.399 74.3838C108.855 73.7602 108.847 74.0246 108.711 74.1035ZM109.719 73.4658C109.469 73.4422 109.604 73.6791 109.836 73.9844C109.92 73.9187 110.006 73.8552 110.093 73.793C109.969 73.6878 109.744 73.4703 109.719 73.4658ZM110.632 72.7666C110.364 72.8257 110.029 72.7303 110.17 73.252C110.187 73.3116 110.275 73.4652 110.344 73.6104C110.574 73.4435 110.796 73.2678 110.989 73.0459C110.852 72.9091 110.694 72.7533 110.632 72.7666ZM96.616 72.9609C96.5965 72.9722 96.5773 72.9838 96.5574 72.9941C96.5586 73.0388 96.56 73.0864 96.5613 73.1357C96.587 73.1528 96.6125 73.1605 96.6384 73.1592C96.6381 73.1564 96.6377 73.1532 96.6374 73.1504C96.6338 73.1128 96.6275 73.0455 96.6208 72.9648C96.6192 72.9635 96.6176 72.9623 96.616 72.9609ZM96.7371 73.1045C96.7444 73.0967 96.7512 73.0877 96.7585 73.0781C96.7505 73.0718 96.7421 73.0659 96.7341 73.0596C96.735 73.0742 96.7361 73.0892 96.7371 73.1045ZM96.4675 73.0371C96.4794 73.0542 96.4917 73.0693 96.5037 73.083C96.5025 73.0628 96.5009 73.0423 96.4997 73.0215C96.489 73.0266 96.4784 73.0322 96.4675 73.0371ZM111.384 72.3994C110.923 72.0529 110.325 71.5747 110.236 71.7627C110.235 71.7869 110.85 72.6319 111.07 72.9453C111.191 72.7892 111.299 72.6118 111.384 72.3994ZM96.4538 72.833C96.4544 72.8301 96.4552 72.8272 96.4558 72.8242L96.4538 72.8223V72.833ZM113.912 71.1514C113.17 70.9115 114.985 73.3051 114.927 72.4619C114.919 72.4074 113.955 71.1651 113.912 71.1514ZM111.246 71.6904C111.187 71.7051 111.244 71.7961 111.343 71.917C111.313 71.8467 111.28 71.7688 111.246 71.6904ZM99.3728 71.3379C99.3146 71.3795 99.3034 71.5584 99.3279 71.79C99.3708 71.6552 99.4066 71.5337 99.4333 71.4443C99.4273 71.4306 99.4208 71.4173 99.4148 71.4043C99.4018 71.3842 99.3873 71.3621 99.3728 71.3379ZM100.868 70.2061C100.905 70.6696 100.893 70.2352 100.873 69.748C100.86 69.7212 100.846 69.6954 100.832 69.6709C100.843 69.8605 100.855 70.048 100.868 70.2061ZM112.345 68.9736C112.297 69.0974 112.241 69.2078 112.184 69.3096C112.289 69.5202 112.412 69.7305 112.532 69.8848C112.542 69.8981 112.553 69.9098 112.562 69.9209C112.595 69.8807 112.629 69.8425 112.666 69.8076C112.607 69.5862 112.467 69.2317 112.345 68.9736ZM89.5935 69.2197C89.5874 69.9444 89.6373 70.002 89.6179 69.249C89.6174 69.2188 89.5936 69.1898 89.5935 69.2197ZM112.461 66.6953C112.833 67.4863 113.207 68.2944 113.58 69.0967C113.602 69.0968 113.627 69.0998 113.654 69.1064C114.041 69.1996 114.934 69.8897 115.23 69.7549C115.153 69.6599 115.085 69.5714 115.024 69.4902C114.98 69.5898 114.919 69.6548 114.818 69.6348C114.686 69.6077 114.19 68.8904 114.052 68.7256C113.66 68.2476 113.969 69.2608 113.566 68.6338C113.187 68.0449 112.859 67.0072 112.477 66.6279C112.472 66.6517 112.466 66.674 112.461 66.6953ZM99.7234 68.9336C99.7209 68.9545 99.7225 68.9983 99.7234 69.0586C99.7368 69.0599 99.7503 69.0614 99.7644 69.0615C99.7499 68.8813 99.7384 68.8069 99.7234 68.9336ZM99.8611 69.0439C99.826 68.4964 99.8178 68.5239 99.8435 69.0479C99.849 69.0462 99.8552 69.0458 99.8611 69.0439ZM100.793 68.6611C100.796 68.6604 100.799 68.6599 100.802 68.6592C100.793 68.6007 100.794 68.6074 100.793 68.6611ZM100.971 68.5947C100.979 68.591 100.986 68.5859 100.993 68.582C100.966 68.045 100.938 67.5276 100.903 67.2373C100.926 67.6864 100.949 68.1398 100.971 68.5947ZM100.205 65.418C100.145 65.4496 100.079 65.6912 100.022 65.8691C100.074 65.922 100.139 66.2511 100.207 66.4209C100.224 66.4619 100.223 65.5939 100.289 66.2783C100.325 66.6604 100.376 67.6596 100.423 68.4502C100.452 68.492 100.481 68.533 100.509 68.5693C100.474 67.4166 100.416 65.6832 100.534 67.1895C100.612 66.6713 100.765 67.7175 100.833 66.9814C100.835 66.9507 100.809 66.1902 100.805 65.9346C100.464 66.3408 100.465 65.5592 100.281 65.4316C100.256 65.4267 100.23 65.4224 100.205 65.418ZM113.756 66.7461C113.217 66.2001 114.519 69.0341 114.472 68.3135C114.465 68.2627 113.791 66.7868 113.756 66.7461ZM115.88 67.6699C115.781 67.6098 115.715 67.6217 115.681 67.6748C115.717 67.8164 115.818 68.0666 115.911 68.2979C115.942 68.3254 115.975 68.3516 116.012 68.374C116.356 68.5817 116.307 67.9284 115.88 67.6699ZM100.982 65.6152C100.93 65.7396 100.881 65.8427 100.838 65.8994C100.831 65.908 100.822 65.915 100.816 65.9229C100.835 66.0709 100.862 66.3986 100.873 66.4268C100.93 66.5779 100.952 66.1337 101.004 66.1973C101.023 66.2209 101.045 66.7553 101.068 66.7861C101.091 66.8139 101.069 66.1074 101.116 66.4463C101.152 66.7057 101.25 68.1432 101.288 68.3115C101.234 67.2559 101.231 66.9983 101.24 66.7812C101.18 66.7955 101.177 66.6156 101.238 66.2275C101.23 66.0839 101.222 65.939 101.222 65.9082C101.222 65.6524 101.257 66.0611 101.255 65.7822C101.255 65.768 101.253 65.7364 101.251 65.6943C101.211 65.6827 101.171 65.6716 101.131 65.6602C101.081 65.6447 101.031 65.6302 100.982 65.6152ZM101.651 67.6641C101.64 67.6891 101.628 67.713 101.617 67.7363C101.619 67.8912 101.621 68.0583 101.623 68.1592C101.643 68.1484 101.662 68.1372 101.682 68.1279C101.677 68.0253 101.673 67.9551 101.672 67.9355C101.665 67.8279 101.657 67.7382 101.651 67.6641ZM101.402 68.0127C101.419 68.2137 101.427 68.1786 101.427 68.0244C101.416 68.0258 101.409 68.0235 101.402 68.0127ZM102.099 66.625C102.049 66.7306 101.992 66.8606 101.934 66.999C101.937 67.1573 101.941 67.2708 101.94 67.2949C101.927 67.2758 101.913 67.2002 101.897 67.0869C101.861 67.1744 101.823 67.2634 101.787 67.3506C101.8 67.6362 101.811 67.8799 101.81 67.9609C101.807 68.1936 101.757 67.7021 101.755 68.0654C101.755 68.0711 101.754 68.082 101.755 68.0977C101.794 68.084 101.834 68.0735 101.875 68.0674C101.897 68.064 101.917 68.0708 101.935 68.084C102.219 67.6433 102.537 67.2799 102.834 66.8896C102.786 66.7457 102.716 66.6803 102.528 66.8955C102.438 67.0001 102.028 67.8568 102.149 67.1055C102.158 67.0525 102.207 66.889 102.252 66.7441C102.201 66.7064 102.15 66.6668 102.099 66.625ZM88.1199 67.7744C88.12 67.8168 88.1182 67.8591 88.1179 67.9014C88.1395 67.8401 88.1576 67.8005 88.1755 67.7773C88.1713 67.7641 88.1671 67.7508 88.1628 67.7373C88.1483 67.7491 88.1348 67.7626 88.1199 67.7744ZM88.6111 67.3203C88.535 67.3995 88.4521 67.4853 88.3572 67.5713C88.3682 67.6524 88.3782 67.7331 88.3884 67.8105C88.5242 67.5832 88.5899 67.4304 88.6111 67.3203ZM99.7693 66.2812C99.8431 67.3815 99.9208 68.2034 99.9275 67.4404C99.9274 67.41 99.8857 66.4036 99.9001 66.4043C99.9247 66.4299 99.9689 66.6386 99.9929 66.6328C100.002 66.6212 99.975 66.1615 99.9675 66.0195C99.957 66.0404 99.9476 66.0543 99.9382 66.0586C99.8313 66.1056 99.7891 65.9809 99.738 65.8857C99.7441 65.952 99.7554 66.0741 99.7693 66.2812ZM101.397 67.374C101.369 67.02 101.361 67.2872 101.381 67.6904C101.385 67.6179 101.393 67.5391 101.402 67.46C101.4 67.4315 101.399 67.4028 101.397 67.374ZM98.5847 65.7441C98.6193 66.4117 98.6545 66.935 98.6843 67.2803C98.7071 67.2808 98.7305 67.2803 98.7546 67.2793C98.7469 67.0473 98.7364 66.7682 98.7331 66.5342C98.7312 66.3835 98.7771 66.8723 98.7634 66.5352C98.7543 66.3097 98.7419 66.0789 98.7312 65.8584C98.6878 65.8091 98.6444 65.7613 98.5954 65.7217C98.592 65.7295 98.5881 65.7368 98.5847 65.7441ZM98.2165 65.6328C98.1829 65.6366 98.1483 65.6396 98.114 65.6436C98.1398 66.1437 98.1653 66.6622 98.1785 66.8662C98.2094 67.349 98.1906 66.8515 98.2117 67.1162C98.2119 67.1191 98.2114 67.1221 98.2117 67.125C98.2311 67.1395 98.2513 67.1532 98.2722 67.166C98.2706 66.9513 98.2669 66.7207 98.2595 66.5371C98.2471 66.2273 98.2306 65.9134 98.2165 65.6328ZM98.5749 65.7666C98.5054 65.9109 98.4565 65.9559 98.4187 65.9434C98.4536 66.0298 98.4903 66.1261 98.5281 66.2764C98.5418 66.3319 98.5655 66.991 98.574 67.0322C98.6454 67.3714 98.6077 66.6973 98.5749 65.7666ZM101.615 66.0908C101.54 66.2688 101.473 66.4125 101.418 66.5225C101.424 66.6721 101.43 66.8082 101.445 66.8955C101.452 66.9374 101.462 66.9724 101.469 67.0029C101.474 66.979 101.477 66.9572 101.48 66.9385C101.52 66.7327 101.551 66.611 101.576 66.543V66.5283C101.581 66.4967 101.586 66.4966 101.593 66.5068C101.616 66.4582 101.628 66.4625 101.64 66.4834C101.643 66.4189 101.642 66.3084 101.637 66.126C101.63 66.1145 101.623 66.1026 101.615 66.0908ZM116.99 64.4424C116.346 63.2616 116.741 64.8156 116.727 64.9482C116.681 65.3907 116.483 65.4298 116.342 65.5947C116.336 65.5971 116.318 65.609 116.312 65.6113C116.267 65.6671 116.227 65.7429 116.21 65.8633C116.191 65.9811 116.278 66.2802 116.376 66.5957C116.792 66.3867 117.106 65.94 117.398 65.6191C117.532 65.466 117.062 65.1119 117.072 65.0791C117.103 65.0021 117.151 64.9456 117.203 64.8955C117.092 64.6603 117.007 64.4747 116.99 64.4424ZM101.679 66.5684C101.681 66.5686 101.683 66.5676 101.685 66.5625C101.692 66.5445 101.698 66.526 101.705 66.5088C101.702 66.3999 101.698 66.2951 101.697 66.21C101.683 66.1908 101.667 66.1724 101.653 66.1523C101.663 66.3123 101.672 66.4502 101.679 66.5684ZM101.737 66.4199C101.751 66.3822 101.765 66.347 101.777 66.3135C101.76 66.293 101.744 66.2706 101.727 66.249C101.73 66.2974 101.733 66.3553 101.737 66.4199ZM97.573 65.4199C97.5564 65.4273 97.5399 65.4342 97.5232 65.4404C97.5745 66.1692 97.5438 65.2914 97.5788 65.791C97.5909 65.9622 97.5982 66.1622 97.6072 66.3506C97.6127 66.3572 97.6174 66.3644 97.6228 66.3711C97.6041 66.0384 97.5841 65.6748 97.573 65.4199ZM99.7087 65.8379C99.7331 66.1656 99.7284 65.9697 99.7292 65.8682C99.7228 65.8572 99.7157 65.8473 99.7087 65.8379ZM97.4812 65.4551C97.4614 65.4613 97.4416 65.467 97.4216 65.4717C97.4268 65.5685 97.4327 65.6706 97.4382 65.7744C97.4471 65.8109 97.4557 65.8463 97.4646 65.8809C97.4606 65.6737 97.4737 65.7181 97.4861 65.6328C97.4893 65.6092 97.4845 65.5399 97.4812 65.4551ZM101.323 65.7529C101.325 65.7412 101.328 65.7295 101.331 65.7178C101.327 65.7166 101.323 65.715 101.319 65.7139C101.32 65.7274 101.322 65.7404 101.323 65.7529ZM98.3015 65.624C98.3133 65.6629 98.3251 65.6974 98.3367 65.7295C98.3321 65.6957 98.3259 65.6599 98.323 65.623C98.3159 65.6233 98.3087 65.6236 98.3015 65.624ZM115.303 64.8193C115.068 64.4725 115.07 65.0417 115.364 65.4717C115.598 65.8187 115.593 65.2528 115.303 64.8193ZM97.3699 65.4834C97.3739 65.503 97.3794 65.522 97.3835 65.541C97.3872 65.5335 97.3927 65.526 97.3962 65.5166C97.3975 65.5125 97.3945 65.4985 97.3943 65.4775C97.3861 65.4792 97.378 65.482 97.3699 65.4834ZM117.516 64.1309C117.496 64.1608 117.484 64.211 117.485 64.293C117.485 64.3158 117.508 64.4114 117.541 64.5459C117.579 64.4497 117.58 64.3228 117.516 64.1309ZM117.435 60.7207C117.554 60.7166 117.519 61.6138 117.73 61.7617C118.109 62.0346 117.688 60.4226 118.232 61.1143C118.256 61.1456 118.289 61.2642 118.325 61.4258C118.428 61.6685 118.532 62.2397 118.753 62.2314C119.291 62.2098 118.494 60.7947 119.308 61.0938C119.457 61.1519 120.038 62.6877 119.998 62.7275C119.997 62.7263 119.997 62.7248 119.997 62.7236C119.649 63.0496 118.976 62.8288 118.51 62.459C118.541 62.6665 118.561 62.8216 118.557 62.8477C118.037 62.9974 116.771 60.7601 117.435 60.7207ZM114.517 61.3281C113.973 60.7219 114.837 58.1953 115.387 59.0146C115.485 59.1622 114.716 59.4944 114.759 59.8232C114.834 60.4197 115.827 59.2063 115.684 60.1855C115.656 60.3648 114.547 61.365 114.514 61.3301C114.515 61.3294 114.516 61.3288 114.517 61.3281ZM101.085 58.8936C100.914 58.9981 100.741 59.1036 100.59 59.1592C100.627 59.2368 100.656 59.3253 100.673 59.4199C100.803 59.2612 100.819 59.4348 100.674 60.0459C100.657 60.0258 100.636 60.0102 100.618 59.9932C100.577 60.0869 100.518 60.1718 100.439 60.2422C100.475 60.2851 100.517 60.2991 100.57 60.2832C100.603 60.2092 100.639 60.1314 100.674 60.0479C100.7 60.073 100.73 60.0915 100.76 60.1094C100.826 59.9302 100.961 59.3862 101.085 58.8936ZM110.249 58.3799C110.291 57.9244 109.859 58.2549 109.8 58.8154C109.749 59.2638 110.187 58.9407 110.249 58.3799ZM70.2019 56.4072C69.9025 56.8728 69.2759 57.9782 69.1384 58.0068C68.9149 58.0469 69.2385 57.4257 68.9958 57.4824C68.974 57.4909 68.8172 57.8936 68.7165 57.8154C68.2347 57.4465 67.7757 56.8952 67.2224 56.6289C67.1489 56.5947 66.985 57.2889 66.8747 57.2461C66.7792 57.2086 66.6841 57.1643 66.5886 57.1172C66.5526 57.4255 66.5168 57.7355 66.4802 58.0469C66.4456 58.3377 66.3359 58.6574 66.239 58.9844C67.2674 58.7198 68.3409 58.5841 69.4187 58.5898C69.5167 58.2781 69.6221 57.9545 69.738 57.6172C69.8684 57.2664 70.0162 56.8543 70.2019 56.4072ZM100.302 58.5537C100.287 58.6531 100.273 58.7519 100.262 58.8389C100.311 58.8702 100.361 58.9002 100.411 58.9326C100.431 58.946 100.45 58.9623 100.468 58.9805C100.492 58.7715 100.494 58.6051 100.48 58.4707C100.426 58.4949 100.366 58.5219 100.302 58.5537ZM100.04 58.6963C100.052 58.7037 100.063 58.7122 100.075 58.7197C100.083 58.7159 100.093 58.714 100.102 58.709C100.108 58.7048 100.114 58.6826 100.121 58.6494C100.094 58.6642 100.067 58.6801 100.04 58.6963ZM104.234 57.1201C104.221 56.8 104.125 56.8059 104.01 56.9775C104.082 57.033 104.157 57.0799 104.234 57.1201ZM105.904 56.9199C105.96 56.9429 106.016 56.9678 106.072 56.9932C106.138 56.7218 106.169 56.4728 106.117 56.2686C106.048 56.4853 105.975 56.7018 105.904 56.9199ZM98.5046 56.2969C98.5167 56.3041 98.5289 56.3057 98.5447 56.2949C98.551 56.2897 98.5585 56.2471 98.5691 56.1865C98.5481 56.2227 98.5263 56.2594 98.5046 56.2969ZM96.7458 55.3916C96.6513 55.12 96.5118 55.2421 96.3513 55.5029C96.4672 55.5418 96.5912 55.5424 96.7302 55.4707C96.7408 55.4293 96.748 55.4005 96.7458 55.3916ZM95.7322 54.4131C95.6798 54.5643 95.4908 54.9674 95.6628 55.043C95.6658 55.0443 95.6686 55.0465 95.6716 55.0479C95.8305 54.647 95.809 54.4991 95.7322 54.4131ZM91.6736 53.709C91.7845 53.8557 91.8962 54.0078 92.0066 54.167C92.0334 54.1168 92.0587 54.0667 92.0837 54.0186C91.9404 53.9275 91.8301 53.7402 91.6804 53.6738C91.6782 53.6857 91.6761 53.6974 91.6736 53.709ZM95.613 54.0127C95.9094 52.8925 95.7311 52.8229 95.4744 53.748C95.5229 53.8252 95.5686 53.9128 95.613 54.0127ZM94.6091 52.9033C94.4954 52.921 94.3797 53.1781 94.2615 53.4619C94.4326 53.5705 94.5934 53.7263 94.7722 53.7598C94.8777 53.2443 95.012 52.8396 94.6091 52.9033ZM92.5857 53.4414C92.5464 53.4387 92.516 53.4718 92.489 53.5234C92.6091 53.497 92.7119 53.5111 92.8064 53.5508C92.7375 53.4892 92.6656 53.447 92.5857 53.4414ZM72.7341 52.3125C72.6668 52.5047 72.6099 52.692 72.5847 52.8535C72.6109 52.8294 72.6381 52.8062 72.6648 52.7822C72.7184 52.6431 72.7654 52.5309 72.8074 52.4404C72.7816 52.4001 72.7571 52.3577 72.7341 52.3125ZM72.7165 51.6221C72.7309 51.6262 72.7451 51.6163 72.7615 51.5986C72.7634 51.5945 72.7645 51.59 72.7663 51.5859C72.6776 51.5736 72.5891 51.5604 72.5007 51.5479C72.5712 51.5756 72.6427 51.6016 72.7165 51.6221ZM51.6726 49.2949C51.7924 49.267 51.8547 49.2368 51.7869 49.1973C51.7402 49.1959 51.692 49.1963 51.6433 49.1953C51.6526 49.2278 51.6631 49.2608 51.6726 49.2949ZM69.1843 49.1064C69.2216 49.0916 69.257 49.0799 69.2878 49.0703C69.262 49.0434 69.2352 49.0178 69.2087 48.9922C69.2017 49.0304 69.193 49.0683 69.1843 49.1064ZM91.3328 47.2266C91.727 46.6256 91.9622 46.6393 91.8406 47.5615C91.6744 47.4351 91.5004 47.3497 91.3328 47.2266ZM64.406 47.3184C64.3987 47.3516 64.3888 47.3853 64.3767 47.4189C64.4047 47.4194 64.4327 47.4195 64.4607 47.4199C64.4417 47.3876 64.4239 47.3535 64.406 47.3184ZM64.4236 45.5732C64.2921 45.9279 64.1449 46.3493 64.0085 46.7305C63.8872 46.7022 63.7705 46.6616 63.657 46.6133C63.6089 46.8553 63.5295 47.0833 63.4392 47.4023C63.5411 47.4045 63.6434 47.4059 63.7458 47.4082C63.9336 46.9955 64.1216 46.5798 64.1951 46.4941C64.2208 46.4645 64.2437 46.4534 64.2644 46.4551C64.3682 46.0583 64.5472 45.428 64.4236 45.5732ZM61.9968 45.4814C61.9011 45.9807 61.834 46.4106 62.2302 46.0146C62.249 45.9954 62.297 45.8914 62.363 45.7471C62.2422 45.654 62.12 45.5649 61.9968 45.4814ZM60.7478 45.6289C60.7075 45.7153 60.6827 45.7769 60.6824 45.7979C60.6847 45.9741 60.7619 45.9155 60.8835 45.7363C60.8366 45.707 60.7907 45.673 60.7478 45.6289ZM60.6453 43.8203C60.6201 43.9109 60.5984 44.0022 60.5749 44.0928C60.5992 44.0597 60.6245 44.0257 60.6501 43.9902C60.6623 43.8943 60.6645 43.8301 60.6453 43.8203ZM79.5085 43.3408C79.1815 43.961 79.494 44.1848 79.6716 43.4561C79.6757 43.4256 79.5221 43.3161 79.5085 43.3408ZM53.1648 34.665C52.9942 34.3989 52.2202 35.748 52.1482 35.7686C52.1311 35.7734 52.1138 35.7747 52.0974 35.7783C52.0046 36.1936 51.9233 36.6064 51.8523 37.0195C52.0515 37.1639 52.2476 37.3184 52.4353 37.4863C52.9277 37.9256 53.3788 38.4423 53.7771 39.0273C53.8938 39.1977 53.602 39.5471 53.5701 39.623C53.6944 39.6154 53.8222 39.6054 53.9519 39.5938C53.991 39.5441 54.0217 39.5114 54.0339 39.5098C54.1131 39.5041 54.178 39.5264 54.2361 39.5625C54.2906 39.5555 54.3456 39.5506 54.4001 39.542C54.5295 39.5262 54.5507 39.3572 55.0847 39.3477C55.8591 39.3348 56.6763 39.3547 57.5037 39.3691C57.1001 39.0006 56.702 38.6126 56.2644 38.332C56.1088 38.2328 56.0789 38.7552 55.8376 38.6406C54.9502 38.2213 53.281 37.8633 52.8689 36.5029C52.5383 35.4132 53.5166 35.2212 53.1648 34.665ZM69.0339 38.3076C69.0417 38.2758 68.9405 38.1907 68.8787 38.3457C68.9178 38.3748 68.9585 38.3993 68.9997 38.4209C69.0104 38.3855 69.024 38.3483 69.0339 38.3076ZM27.0466 30.25C26.9018 30.9533 26.7856 31.6522 26.6863 32.3555C26.7111 32.3164 26.7356 32.2769 26.7605 32.2383C26.9643 31.9255 27.2133 32.2913 27.3533 32.3525C27.3538 32.4368 27.3548 32.5297 27.3601 32.6572C27.367 32.8118 27.3785 32.982 27.3992 33.1709C27.5205 33.0295 27.6438 32.8895 27.7663 32.749C27.8222 32.6479 27.8896 32.5461 27.9704 32.4443C27.9795 32.4333 28.0102 32.4253 28.0554 32.418C28.2484 32.1998 28.4446 31.9842 28.6413 31.7686C28.6099 31.7459 28.5774 31.7254 28.5417 31.7129C28.5049 31.7016 27.9989 31.761 27.9841 31.6553C27.958 31.4378 27.9561 31.2171 27.9744 30.9951C27.8883 30.9198 27.8007 30.8459 27.7126 30.7725C27.8117 31.0331 28.2277 32.1973 27.3962 32.3604C27.3835 32.3627 27.369 32.3594 27.3533 32.3525C27.3529 32.2987 27.3527 32.2476 27.3533 32.1934C27.3569 31.9298 27.3715 31.7203 27.3884 31.5459C27.4055 31.3719 27.4246 31.2321 27.4431 31.1152C27.4569 31.0271 27.4683 30.9612 27.4802 30.8984C27.5028 30.7815 27.5223 30.6936 27.5388 30.6289C27.3767 30.4981 27.2129 30.3703 27.0466 30.25ZM15.7605 28.2686C15.9332 28.2867 16.0968 28.2948 16.2478 28.292C16.4378 28.267 16.3156 28.2459 16.1765 28.248C16.0654 28.2486 15.9212 28.2572 15.7605 28.2686ZM9.02709 27.3477C8.99462 27.5989 8.9287 27.8685 8.8933 28.1396C9.01566 27.9026 9.14103 27.6668 9.27221 27.4336C9.19156 27.4081 9.1101 27.3787 9.02709 27.3477ZM20.3533 27.1299C20.4947 27.2764 20.6645 27.4325 20.8728 27.5938C21.1161 27.8178 21.4579 27.9718 21.8396 28.0635C21.6587 27.9504 21.4797 27.8373 21.3015 27.7236C21.2451 27.6921 21.1914 27.6584 21.1404 27.6221C20.8803 27.4557 20.6191 27.2908 20.3552 27.123C20.3545 27.1253 20.354 27.1276 20.3533 27.1299ZM10.1579 14.7021C10.1097 15.3384 10.0623 15.9773 10.0163 16.6211C10.0546 16.6316 10.0929 16.6408 10.1296 16.6514C10.2219 16.6785 10.314 16.708 10.406 16.7383C10.557 16.6977 10.7065 16.6511 10.8552 16.6006C10.8711 16.3262 10.8824 16.0391 10.8747 15.75C10.8712 15.5974 10.7047 15.546 10.7253 14.9688C10.5326 14.8954 10.3432 14.8061 10.1579 14.7021ZM11.5388 15.5361C11.459 15.8182 11.4568 16.0062 11.4861 16.0791C11.5013 16.0903 11.5161 16.1001 11.532 16.1084C11.5827 16.0842 11.6513 15.9259 11.6843 15.6045C11.6888 15.5746 11.5485 15.5087 11.5388 15.5361ZM4.80541 1.62305C4.20129 1.4997 4.15276 1.96294 4.781 1.86523C4.80625 1.85824 4.83044 1.62591 4.80541 1.62305ZM2.95971 0.00195312C2.9511 0.00311854 2.94121 0.00423301 2.93139 0.00488281C2.91191 0.0061943 2.88983 0.00533964 2.86498 0.00292969C2.85875 0.00234866 2.85204 0.00156417 2.84545 0.000976562L2.8435 0H2.96557C2.96362 0.000843493 2.96172 0.0017222 2.95971 0.00195312Z" fill="black"/>
</svg>
