<svg width="120" height="120" viewBox="0 0 120 120" fill="none" xmlns="http://www.w3.org/2000/svg">
<path d="M79.6182 0.0184434C80.026 0.107492 80.2015 0.990275 80.6533 1.6786C80.725 1.77055 80.8965 1.68126 81.0869 2.12782C81.5447 3.26642 81.9137 4.60037 82.4131 5.80653C82.5056 6.00882 82.6128 5.76638 82.7002 6.02919C83.1135 5.90346 82.7708 5.72632 82.957 5.59852C83.1477 5.46931 83.3275 5.76555 83.4551 5.59462C83.7189 5.24018 83.7416 4.71577 83.8125 4.31239C83.8388 4.15237 83.4433 4.1642 83.4336 4.13954C83.3845 3.77597 83.8425 3.54529 83.1074 3.15321C85.1187 3.45254 82.9464 2.89681 83.418 2.5204C83.4561 2.49083 84.3957 2.70894 84.5107 2.89051C84.6249 3.07054 84.2992 3.2067 84.4824 3.46376C84.5254 3.52607 85.357 4.022 85.4092 4.07313C85.7827 4.46145 84.3794 4.14469 84.2988 4.14051C83.4446 4.10441 84.3428 4.6738 84.3975 4.77528C84.6425 5.24439 84.401 5.53626 84.5732 5.91688C84.6855 6.165 85.6005 6.3883 85.5537 6.54969C85.3926 7.08394 84.0817 7.02507 85.1377 7.78114C85.3633 7.94252 86.385 8.02545 85.5469 8.27723C85.4922 8.29266 84.7358 8.46015 85.1768 8.72157C85.2332 8.75429 85.5265 8.8073 85.5488 8.84071C85.6887 9.06368 85.4404 9.15115 85.5312 9.3827C85.6225 9.61465 85.7655 9.89615 85.6426 10.121C85.5682 10.2562 85.0014 10.3526 84.8604 10.4013C84.4546 10.5368 85.0711 10.8541 84.5908 10.9032C84.246 10.94 83.7931 10.7709 83.4404 10.7723C83.4366 10.8296 83.4329 10.8862 83.4268 10.9423C84.0812 11.0572 84.7459 11.1811 85.3994 11.2977C85.3107 12.0033 85.0065 12.671 84.9873 13.3934C84.9863 13.4829 85.4036 13.4462 85.4141 13.5429C85.4505 13.9506 85.1315 14.267 85.2207 14.6981C85.2882 15.0169 85.6657 15.4002 85.7793 15.7352C86.1617 15.4889 86.5733 15.3134 87.0098 15.247C87.1326 15.2304 87.2129 15.6517 87.2676 15.7255C87.648 16.2335 87.5481 15.2596 87.5674 15.1464C87.655 14.6347 87.8705 14.9114 88.0508 14.7118C88.9196 13.7341 90.2146 13.1457 91.1973 12.661C92.473 12.0299 93.5431 11.7694 94.6719 10.9003C94.7418 10.8454 94.4783 10.3887 94.5361 10.3348C95.3062 9.66948 96.1827 9.33572 96.9531 8.64247C97.0157 8.58684 96.7395 8.16853 96.834 8.06337C97.0251 7.84544 97.3144 7.68624 97.5996 7.68934C97.7375 7.69067 97.7454 8.20201 97.8809 8.1952C98.1968 8.17958 98.4809 8.03385 98.7119 7.78505C98.8129 7.67576 98.4574 7.29704 98.6025 7.19325C99.5831 6.48507 100.516 5.76564 101.764 5.74208C101.85 5.74426 102.277 6.70661 102.354 6.41786C102.261 6.13221 102.139 5.80541 102.033 5.50477C103.421 4.39587 104.989 3.80366 106.457 2.91786C106.518 2.88096 106.219 2.41593 106.336 2.34169C107.035 1.89742 107.632 1.32877 108.539 1.39833C108.627 1.4099 108.936 2.36505 109.083 2.09559C109.112 2.04459 109.381 1.71635 109.384 1.46278C109.383 1.42519 109.169 1.0235 109.262 0.947154C109.823 0.503488 110.457 0.218999 111.134 0.114147C111.243 0.0991907 111.312 0.628659 111.394 0.620983C111.955 0.565822 112.343 -0.120128 112.938 0.0184434C113.346 0.107492 113.522 0.990275 113.974 1.6786C114.045 1.77055 114.217 1.68126 114.407 2.12782C114.865 3.26642 115.234 4.60037 115.733 5.80653C115.826 6.00882 115.933 5.76638 116.021 6.02919C116.434 5.90346 116.091 5.72632 116.277 5.59852C116.468 5.46931 116.648 5.76555 116.775 5.59462C117.039 5.24018 117.062 4.71577 117.133 4.31239C117.159 4.15237 116.764 4.1642 116.754 4.13954C116.705 3.77597 117.163 3.54529 116.428 3.15321C118.439 3.45254 116.267 2.89681 116.738 2.5204C116.776 2.49083 117.716 2.70894 117.831 2.89051C117.945 3.07054 117.619 3.2067 117.803 3.46376C117.846 3.52607 118.677 4.022 118.729 4.07313C119.103 4.46145 117.7 4.14469 117.619 4.14051C116.765 4.10441 117.663 4.6738 117.718 4.77528C117.963 5.24439 117.721 5.53626 117.894 5.91688C118.006 6.165 118.921 6.3883 118.874 6.54969C118.713 7.08394 117.402 7.02507 118.458 7.78114C118.684 7.94252 119.705 8.02545 118.867 8.27723C118.813 8.29266 118.056 8.46015 118.497 8.72157C118.554 8.75429 118.847 8.8073 118.869 8.84071C119.009 9.06368 118.761 9.15115 118.852 9.3827C118.943 9.61465 119.086 9.89615 118.963 10.121C118.889 10.2562 118.322 10.3526 118.181 10.4013C117.775 10.5368 118.391 10.8541 117.911 10.9032C117.566 10.94 117.113 10.7709 116.761 10.7723C116.757 10.8296 116.753 10.8862 116.747 10.9423C117.402 11.0572 118.066 11.1811 118.72 11.2977C118.631 12.0033 118.327 12.671 118.308 13.3934C118.307 13.4829 118.724 13.4462 118.734 13.5429C118.771 13.9506 118.452 14.267 118.541 14.6981C118.612 15.0328 119.027 15.4376 119.117 15.7841C118.223 15.8949 118.492 16.4291 118.391 16.787C118.355 16.9113 118.121 16.8796 118.039 16.9628C117.736 17.2827 118.524 17.1946 118.642 17.3007C119.144 17.7483 117.378 17.6261 117.396 18.1083C117.398 18.1358 118.322 18.5281 118.379 18.5741C118.748 18.8745 118.051 18.5901 117.973 18.7548C117.831 19.0544 117.596 19.2556 117.856 19.6376C117.935 19.7509 118.508 20.0499 118.047 20.2196C117.986 20.2428 117.676 20.2057 117.656 20.2265C117.337 20.6042 118.314 20.6782 118.637 20.9276C118.735 21.0031 118.74 21.0828 118.692 21.1581C118.584 21.338 118.212 21.4943 118.075 21.5341C117.565 21.6883 117.864 21.3799 117.815 21.3671C117.233 21.214 117.325 21.4674 117.269 21.664C116.309 21.6354 116.357 21.9106 117.214 21.8622C117.307 21.8566 117.223 21.7009 117.269 21.664C118.203 21.8913 118.314 22.1889 117.425 22.4706C117.303 22.5095 117.176 22.5234 117.062 22.5341C117.068 22.5657 117.076 22.5971 117.081 22.6288C117.107 22.785 117.117 22.9416 117.119 23.0985C117.314 23.1358 117.52 23.1706 117.607 23.2655C118.009 23.7018 117.384 24.2294 117.477 24.6718C117.511 24.8299 117.873 24.6826 117.909 24.7909C118.005 25.0802 117.731 25.332 117.869 25.6229C117.885 25.6487 118.26 25.5873 118.266 25.6776C118.307 26.3635 118.066 26.9654 118.062 27.6932C118.06 28.0362 118.271 28.6783 118.231 29.037C118.164 29.678 117.618 30.4572 117.755 31.0048C117.843 31.3547 118.22 31.2757 118.479 31.4266C118.981 31.7219 118.09 32.2376 117.95 32.3173C117.944 32.3137 117.853 32.012 117.661 32.1776C117.259 32.2772 117.939 32.3134 117.95 32.3173C117.861 32.376 117.779 32.9638 117.852 33.0936C117.891 33.16 118.246 33.1202 118.264 33.1542C118.589 33.9599 118.686 34.787 118.522 35.6141C118.515 35.6286 118.113 35.6114 118.102 35.6454C117.926 36.123 118.418 36.4391 118.711 36.8222C119.004 37.2113 118.909 37.5463 118.221 37.7733C118.308 38.0647 118.006 38.4993 117.822 38.7557C117.639 38.996 118.416 39.0258 118.436 39.0468C118.932 39.7111 118.487 40.1214 118.42 40.8134C118.387 41.1531 118.502 41.8109 118.589 42.1688C118.659 42.4542 118.476 42.6307 118.594 42.9003C118.61 42.9364 118.954 42.8985 118.971 42.9091C118.979 42.9153 118.988 42.9217 118.996 42.9276C119.352 43.1887 118.533 43.0622 118.385 43.121C117.833 43.3398 117.54 43.4749 117.801 43.8505C117.861 43.937 119.085 44.1861 119.158 44.3475C119.25 44.558 118.811 44.4797 118.918 44.6913C118.93 44.709 119.197 44.705 119.186 44.8348C119.135 45.4399 118.979 46.139 119.008 46.7636C119.012 46.85 119.441 46.7374 119.452 46.8632C119.504 47.4574 119.49 48.1131 119.29 48.6864C119.239 48.8284 118.938 48.7403 118.849 48.7714C118.31 48.9627 119.092 49.2308 119.109 49.2763C119.489 50.3273 118.78 51.1603 119.12 52.2206C119.141 52.2791 119.982 52.7288 119.261 52.9345C119.21 52.9494 118.476 53.1522 118.979 53.329C119.011 53.3394 119.391 53.2151 119.354 53.4306C119.315 53.6448 119.569 53.9908 119.152 54.2899C119.021 54.3846 118.284 54.6106 118.872 54.8925C118.918 54.9115 120.239 55.3484 119.325 55.5009C119.173 55.5262 118.206 55.5025 118.703 55.8348C118.8 55.898 119.015 55.7821 119.15 55.9491C119.359 56.2066 119.1 56.5515 119.532 56.871C119.609 56.9264 120.267 57.1646 119.769 57.3554C119.69 57.3849 119.367 57.3297 119.33 57.4286C119.157 57.9012 119.374 58.3992 119.15 58.8856C119.071 59.0575 118.549 58.9716 118.409 59.1513C118.269 59.3338 118.134 59.6884 118.373 59.8749C118.613 60.0607 119.447 59.8555 119.514 60.1347C119.805 61.3551 119.317 62.556 119.247 63.7753C119.237 63.9545 119.534 63.8055 119.54 64.0702C119.563 65.049 119.845 66.7386 119.212 67.5917C118.705 68.2738 118.317 67.4176 118.11 67.9374C118.012 68.1878 118.981 68.4577 119.013 68.5184C119.323 69.1094 118.894 69.5228 119.026 70.0556C119.054 70.1652 119.446 70.0578 119.465 70.1513C119.533 70.4706 119.358 70.8067 119.391 71.1122C119.406 71.2492 119.707 71.2243 119.684 71.3505C119.632 71.6524 119.505 71.9193 119.224 72.2138C119.196 72.2396 118.825 72.0613 118.812 72.2841C118.79 72.6455 118.513 73.0942 118.8 73.5097C118.886 73.6329 119.572 73.6377 119.099 73.9032C118.999 73.9588 118.176 73.8892 118.888 74.1972C119.007 74.2495 119.965 74.7671 119.348 75.0223C119.185 75.0898 118.511 75.2628 118.617 75.411C118.638 75.4298 119.002 75.3509 119.038 75.4725C119.159 75.9061 119.12 76.3589 119.235 76.8056C119.267 76.9241 119.647 76.7473 119.683 76.9237C119.779 77.4116 119.683 78.0207 119.563 78.496C119.519 78.6708 119.202 78.5506 119.168 78.5634C118.61 78.7696 119.364 78.8916 119.408 78.9598C119.671 79.3847 119.317 79.7082 119.411 80.0985C119.437 80.2054 119.794 80.1297 119.828 80.1503C120.142 80.3724 119.496 80.2078 119.425 80.3485C119.223 80.7409 119.252 81.1855 119.298 81.5848C119.315 81.7317 119.732 81.5668 119.743 81.6981C119.815 82.4763 119.777 83.2882 119.547 84.0497C119.503 84.1928 119.181 84.1029 119.107 84.1327C118.595 84.3385 119.294 84.6389 119.361 84.7079C119.666 85.0201 119.381 85.1475 119.435 85.4266C119.699 86.7892 119.512 88.4648 119.396 89.7548C119.246 91.421 118.941 92.7246 119.021 94.3261C119.027 94.4257 119.451 94.325 119.462 94.411C119.565 95.5418 119.398 96.6457 119.521 97.787C119.532 97.8789 119.936 97.7467 119.965 97.8944C120.026 98.1982 120.004 98.5786 119.875 98.8954C119.813 99.0473 119.466 98.8442 119.41 98.997C119.28 99.3534 119.25 99.7306 119.315 100.087C119.344 100.238 119.758 100.01 119.763 100.207C119.804 101.598 119.875 102.906 119.339 104.309C119.301 104.403 118.461 104.486 118.621 104.683C118.855 104.697 119.13 104.698 119.38 104.704C119.383 104.755 119.387 104.805 119.39 104.855C119.499 106.792 119.222 108.728 119.178 110.664C119.177 110.746 119.622 110.604 119.621 110.764C119.615 111.719 119.737 112.613 119.294 113.584C119.249 113.675 118.465 113.631 118.584 113.918C118.606 113.974 118.711 114.381 118.881 114.497C118.907 114.512 119.273 114.433 119.284 114.574C119.34 115.364 119.256 116.198 119.032 116.997C118.995 117.128 118.606 116.989 118.575 117.081C118.368 117.728 118.665 118.433 118.311 119.048C118.072 119.464 117.397 119.302 116.733 119.529C116.64 119.559 116.624 119.813 116.238 119.83C115.267 119.864 114.203 119.738 113.168 119.788C113.057 119.797 113.061 119.885 113.025 119.946C113.017 119.958 113.006 119.977 112.99 119.985C112.982 119.992 112.972 119.993 112.961 119.998C112.958 119.999 112.956 119.999 112.953 119.999L112.95 120H112.858C112.857 119.999 112.856 119.999 112.854 119.999C112.852 119.999 112.849 119.998 112.847 119.998C112.837 119.997 112.826 119.993 112.814 119.992C112.769 119.982 112.714 119.963 112.646 119.941C112.619 119.933 112.511 119.783 112.381 119.687C112.3 119.846 112.209 119.974 112.066 119.947C111.424 119.822 110.871 119.35 110.468 118.889C110.344 118.745 110.507 118.484 110.428 118.372C110.266 118.151 110.054 118.208 109.9 117.965C109.851 117.882 110.073 117.45 110.021 117.376C109.738 116.98 109.356 116.912 109.039 116.621C107.439 115.163 105.812 114.041 104.132 112.84C103.579 112.445 103.015 111.619 102.366 111.473C102.291 111.456 102.198 111.893 102.174 111.92C101.801 112.325 102.138 111.528 102.038 111.341C101.945 111.168 101.841 111.014 101.728 110.877C101.383 110.443 100.918 110.186 100.493 110.089C100.255 110.035 100.207 110.979 100.137 110.393C100.133 110.351 100.328 109.946 100.283 109.865C100.182 109.683 99.8962 109.614 99.7998 109.517C99.6126 109.329 99.5846 109.318 99.3955 109.204C99.1393 109.045 98.8955 108.648 98.5752 108.583C98.5074 108.572 98.4412 109.065 98.3223 109.089C98.2036 109.112 97.9647 108.93 97.9131 108.775C97.862 108.62 98.0121 108.287 98.0234 108.197C98.1204 107.443 97.519 108.22 97.4717 108.223C96.659 108.231 96.2255 107.344 95.5908 106.982C95.0996 106.704 94.5125 106.58 94.0566 106.29C93.5058 105.938 93.1182 105.427 92.5625 105.158C92.504 105.131 92.3999 105.694 92.3281 105.662C91.5642 105.297 90.8472 104.819 90.2285 104.041C90.1675 103.962 90.4128 103.552 90.3604 103.446C90.0341 102.807 89.6102 101.477 88.6885 103.346C88.4089 103.092 88.0625 102.796 87.9189 102.23C87.8285 101.867 88.163 101.46 87.8779 101.552C87.8137 101.572 87.7329 102.049 87.6475 102.048C87.2873 102.033 86.9962 101.697 86.6152 101.749C86.5674 101.756 86.5044 101.911 86.4551 102.045C86.4219 102.791 86.3144 103.536 86.0186 104.309C85.9804 104.403 85.1406 104.486 85.3008 104.683C85.5345 104.697 85.8098 104.698 86.0596 104.704C86.0631 104.755 86.0664 104.805 86.0693 104.855C86.179 106.792 85.9014 108.728 85.8574 110.664C85.8568 110.746 86.302 110.604 86.3008 110.764C86.2942 111.719 86.417 112.613 85.9736 113.584C85.929 113.675 85.145 113.631 85.2637 113.918C85.2855 113.974 85.3906 114.381 85.5605 114.497C85.5862 114.512 85.9531 114.433 85.9639 114.574C86.0195 115.364 85.9358 116.198 85.7119 116.997C85.6751 117.128 85.2855 116.989 85.2549 117.081C85.0478 117.728 85.3444 118.433 84.9902 119.048C84.7515 119.464 84.0768 119.302 83.4131 119.529C83.3195 119.559 83.3041 119.813 82.918 119.83C81.9467 119.864 80.8829 119.738 79.8477 119.788C79.7364 119.797 79.7402 119.885 79.7051 119.946C79.6964 119.958 79.6858 119.977 79.6699 119.985C79.6618 119.992 79.6515 119.993 79.6406 119.998C79.6382 119.999 79.6354 119.999 79.6328 119.999L79.6299 120H79.5381C79.537 119.999 79.5353 119.999 79.5342 119.999C79.5318 119.999 79.5288 119.998 79.5264 119.998C79.5163 119.997 79.5054 119.993 79.4941 119.992C79.4488 119.982 79.3934 119.963 79.3262 119.941C79.2989 119.933 79.1908 119.783 79.0605 119.687C78.9794 119.846 78.8889 119.974 78.7461 119.947C78.1034 119.822 77.5502 119.35 77.1475 118.889C77.0234 118.745 77.187 118.484 77.1074 118.372C76.9453 118.151 76.7333 118.208 76.5801 117.965C76.5309 117.882 76.7528 117.45 76.7002 117.376C76.418 116.98 76.0355 116.912 75.7188 116.621C74.1182 115.163 72.4913 114.041 70.8115 112.84C70.259 112.445 69.6947 111.619 69.0459 111.473C68.9703 111.456 68.8775 111.893 68.8535 111.92C68.4806 112.325 68.8174 111.528 68.7178 111.341C68.6251 111.168 68.5207 111.014 68.4072 110.877C68.0625 110.443 67.598 110.186 67.1729 110.089C66.9344 110.035 66.8864 110.979 66.8164 110.393C66.813 110.351 67.0073 109.946 66.9629 109.865C66.8614 109.683 66.5759 109.614 66.4795 109.517C66.2923 109.329 66.2643 109.318 66.0752 109.204C65.819 109.045 65.5752 108.648 65.2549 108.583C65.1871 108.572 65.1209 109.065 65.002 109.089C64.8833 109.112 64.6444 108.93 64.5928 108.775C64.5417 108.62 64.6918 108.287 64.7031 108.197C64.8001 107.443 64.1987 108.22 64.1514 108.223C63.3387 108.231 62.9052 107.344 62.2705 106.982C61.7793 106.704 61.1922 106.58 60.7363 106.29C60.1854 105.938 59.7979 105.427 59.2422 105.158C59.1837 105.131 59.0796 105.694 59.0078 105.662C58.2439 105.297 57.5269 104.819 56.9082 104.041C56.8472 103.962 57.0925 103.552 57.04 103.446C56.7138 102.807 56.2899 101.477 55.3682 103.346C55.0885 103.092 54.7422 102.796 54.5986 102.23C54.5082 101.867 54.8427 101.46 54.5576 101.552C54.4934 101.572 54.4126 102.049 54.3271 102.048C53.967 102.033 53.6759 101.697 53.2949 101.749C53.2171 101.761 53.1045 102.166 53.0635 102.228C52.7262 102.721 52.7915 101.626 52.7607 101.524C52.5215 100.772 52.1557 100.804 51.7773 100.572C51.6899 100.52 51.6216 101.11 51.5312 101.079C51.0655 100.902 50.6241 100.594 50.2676 100.109C50.189 100 50.4249 99.5976 50.3955 99.5214C50.2606 99.1947 49.9373 100.026 49.8037 99.7294C49.7753 99.6679 49.9242 99.293 49.9307 99.246C50.0318 98.5091 49.621 99.4002 49.584 99.4042C49.1114 99.4717 49.1897 98.3419 48.7764 98.2704C48.7267 98.2641 48.6656 98.8102 48.5361 98.7606C47.6698 98.4247 46.841 97.7893 46.1543 96.9286C46.0479 96.7955 46.2573 96.4784 46.2646 96.4276C46.3659 95.6421 45.9719 96.5472 45.9189 96.5595C45.5094 96.6304 45.4643 95.6567 44.874 96.6649C44.3414 96.1604 43.7494 95.8416 43.1641 95.5048C42.7046 95.5805 42.2566 95.2957 41.9785 94.9774C41.925 94.9175 41.9373 94.7891 41.9463 94.6766C41.6035 94.3779 41.2813 94.0131 41.001 93.5263C40.9955 93.5111 41.0434 93.3774 41.0859 93.2499C41.0743 93.2402 41.0612 93.2318 41.0498 93.2206C40.9578 93.1295 40.8652 93.0419 40.7744 92.9559C40.6071 93.1518 40.4166 93.5922 40.0879 94.0184C39.9459 94.2013 40.0836 93.0058 40.0908 92.914C40.1009 92.7877 40.1527 92.6142 40.21 92.4432C40.1622 92.4016 40.1149 92.36 40.0674 92.3192C39.8316 92.852 39.5363 93.5701 39.3896 93.4882C39.3829 93.4797 39.5545 93.0735 39.5469 93.0184C39.523 92.8475 39.4018 92.9781 39.3838 92.7948C39.3442 92.3703 39.6547 91.2164 39.2148 91.7391C39.158 91.8095 38.7777 93.1425 38.5703 92.9511C38.4873 92.8729 38.081 92.6675 37.9932 92.5165C37.9077 92.3666 38.1223 91.9886 38.1201 91.9657C38.0295 91.4288 38.1064 91.1961 38.2002 90.7509C38.1445 90.6805 38.0886 90.6028 38.0332 90.5243C37.8957 90.9032 37.7482 91.3334 37.6895 91.4149C37.5563 91.598 37.483 91.0097 37.4805 90.8182C37.4782 90.627 37.6329 90.3977 37.6143 90.2792C37.4855 89.5035 37.157 91.1741 36.9502 91.4257C36.4627 92.0214 36.7354 90.4509 36.5527 90.1766C36.5031 90.1029 36.4462 90.4629 36.3809 90.4628C36.1237 90.4557 36.1393 89.9258 35.7568 90.2011C35.6941 90.2457 35.2113 91.0088 35.2871 90.2899C35.2986 90.1866 35.4688 89.8538 35.4014 89.7186C35.3005 89.5163 35.0745 89.2923 34.8857 89.328C34.7464 89.3556 34.6782 90.0258 34.5996 89.7606C34.5654 89.6422 34.7929 89.3577 34.7188 89.1649C34.6439 88.9721 34.3475 88.8205 34.2295 88.7675C34.1122 88.7155 34.0269 89.205 34.0078 89.2304C33.8954 89.3735 33.6082 89.4691 33.5889 89.4579C32.612 88.9655 31.9759 87.6944 30.9541 87.412C30.8744 87.3919 30.7687 87.8961 30.7549 87.8983C30.4395 87.9545 31.0483 86.7945 31.0107 86.2684C30.7222 87.255 30.6747 87.0206 30.4648 87.0272C30.3638 87.0329 30.2887 87.4336 30.2686 87.4677C29.959 87.9677 30.1102 87.1809 30.1367 87.0165C30.2308 86.4125 29.9273 87.0157 29.9893 86.6122C30.0506 86.2108 30.3589 85.7392 30.1855 85.6483C30.0253 85.9688 29.859 86.9499 29.6816 87.0243C29.0158 87.3048 28.3348 86.0742 27.9707 85.7792C27.6136 85.4887 27.4549 85.4742 27.2686 85.2196C26.9305 84.7592 26.864 85.5192 26.5127 85.6854C26.1624 85.8515 26.8177 84.2608 26.8965 83.8827C26.9767 83.5062 26.8164 83.8489 26.834 83.6268C26.8515 83.405 27.0279 83.2183 26.9443 83.0839C26.8597 82.9497 26.3657 83.4198 26.209 83.7723C25.8765 84.5191 25.7394 85.4226 25.5566 84.9745C25.5464 84.9482 25.7375 84.5408 25.6914 84.4618C25.6223 84.3492 25.5493 84.2469 25.4746 84.1522L25.5 84.1659C25.1379 83.7561 24.7365 83.4861 24.4111 83.0409C24.3572 82.9642 24.5565 82.5007 24.5264 82.4511C24.2018 81.9273 24.1113 82.8341 23.6201 83.6454C24.022 82.4396 24.1077 81.6211 23.7979 81.4569C23.6121 81.3583 23.4914 81.9131 23.2637 82.2323C23.1954 82.3269 23.1694 81.8936 23.0742 82.1347C22.7604 82.9225 22.6233 83.911 22.3994 83.3778C22.3917 83.3495 22.5637 82.9238 22.5225 82.871C22.2533 82.5317 21.9692 83.3783 21.6016 83.3143C21.3243 83.2694 20.973 82.4918 20.6992 82.2577C21.0957 80.874 20.7238 81.0509 20.3379 81.9491C20.1455 81.809 19.9134 81.755 19.7598 81.5282C19.7078 81.4496 19.8628 81.0717 19.8672 81.0233C19.9315 80.2798 19.5845 81.1678 19.5322 81.1835C18.9725 81.3092 18.7805 80.4125 18.1543 80.8876C18.1291 80.9123 17.8361 81.8524 17.9121 81.0927C17.9179 81.0403 18.1891 80.6744 17.9873 80.536C17.7815 80.3958 17.5502 79.6945 17.126 79.994C17.0245 80.0665 16.6272 80.7607 16.6562 80.08C16.6608 79.9873 16.7587 79.7207 16.7744 79.5536C16.823 79.0208 16.5033 79.9713 16.6318 79.0936C16.7664 78.2182 16.7068 77.4832 16.2588 77.913C16.2438 77.9282 15.9623 78.6625 15.875 78.6083C15.7397 78.5192 15.5688 78.2531 15.4131 78.1825C15.3393 78.1519 15.2547 78.6428 15.2383 78.6552C14.6779 78.6868 14.4325 78.0806 13.9619 77.6405C13.8705 77.5592 13.4104 78.0751 13.3711 77.4696C13.3483 77.14 13.5472 76.4194 13.6768 75.8163C13.5047 75.7288 13.3383 75.6068 13.1875 75.4794C12.7886 76.2661 12.2542 77.3975 12.3164 76.1659C11.5411 76.2248 11.1476 75.1343 10.3291 75.3563C10.2899 75.3702 9.96372 76.1523 9.89648 76.1073C9.79705 76.0376 9.84999 75.6209 9.78418 75.5585C9.49662 75.2837 9.11793 75.4751 8.83594 75.2753C8.72357 75.1975 8.87714 74.8156 8.74707 74.7245C8.62037 74.6367 8.37539 75.1159 8.26465 74.7675C8.18764 74.5043 8.35319 73.3503 8.21777 73.1337C7.89903 74.1932 7.7705 74.102 7.46777 74.2645C7.4071 74.296 7.3432 74.6885 7.30859 74.7225C7.16471 74.8659 7.18066 74.5198 7.04004 74.6825C7.00578 74.7216 6.89326 75.0816 6.85742 75.1337C6.5496 75.5853 6.58437 74.6535 6.5918 74.4901C6.62333 73.8766 6.39966 74.2977 6.36035 74.0243C6.32438 73.7516 6.57262 73.5879 6.49219 73.3866C6.33082 72.9872 6.01498 72.8297 5.77832 72.6415C5.77074 72.6351 5.76322 72.6284 5.75586 72.622C5.65951 72.5407 5.52778 73.0343 5.50781 73.0399C5.24676 72.9876 5.26082 72.3485 4.73145 73.1298C5.66738 70.7459 4.50153 73.2466 4.42383 72.539C4.41855 72.4819 4.91712 71.4015 5.07812 71.3192C5.23835 71.2369 5.20532 71.6791 5.44043 71.5341C5.49712 71.5015 6.12704 70.6259 6.17578 70.579C6.55937 70.2332 5.84682 71.8685 5.81543 71.9677C5.64988 72.4912 5.74369 72.5193 5.8877 72.41L5.87402 72.3983C6.01114 72.2818 6.19283 72.0272 6.23438 72.0048C6.60439 71.807 6.71346 72.1701 7.01074 72.0331C7.04471 72.0166 7.0826 71.9653 7.12695 71.8954C6.89547 71.5548 6.64274 71.2126 6.1582 70.1327C5.95837 69.6647 5.75359 68.9818 5.66602 68.1747C5.6361 68.4239 5.58011 68.5728 5.49609 68.4882C5.44623 68.4382 5.6525 67.8206 5.59766 67.621C5.49574 67.263 5.33431 68.5584 5.24902 67.8788C5.21758 67.9154 5.18529 67.9469 5.14551 67.9657C5.06131 68.006 4.92743 67.6135 4.82715 67.661C4.72774 67.7108 4.87368 68.2479 4.64844 68.1024C4.47712 67.9899 3.96154 67.0486 3.79102 67.0184C4.19916 68.0224 4.10481 68.0651 4.05859 68.4403C4.05016 68.5135 4.22341 68.8399 4.22656 68.8925C4.24199 69.1137 4.07153 68.8623 4.0957 69.0975C4.10161 69.1554 4.23764 69.4977 4.25 69.5643C4.35691 70.1387 3.89092 69.4726 3.81348 69.3534C3.51226 68.9078 3.63848 69.3899 3.48242 69.2391C3.32817 69.0862 3.3473 68.7549 3.21191 68.6893C3.16506 68.6668 3.11987 68.6535 3.07715 68.6473C3.07606 68.6478 3.07346 68.6506 3.07227 68.6513C2.85077 68.6311 2.6722 68.8 2.51074 68.8934C2.43466 68.9406 2.66257 69.3657 2.65723 69.3856C2.54559 69.6102 2.20277 69.2211 2.46387 70.2059C1.45574 67.8795 2.45574 70.5015 2.04785 70.1688C2.01289 70.1344 1.57869 69.0153 1.58301 68.8056C1.58434 68.741 1.60761 68.7247 1.63867 68.7225C0.592544 67.6066 1.90911 69.3783 1.38574 69.37C1.34067 69.3682 0.640072 68.5041 0.626953 68.2597C0.614246 68.016 0.953105 68.1269 0.917969 67.7655C0.908574 67.6776 0.442102 66.6254 0.425781 66.5458C0.299761 65.9214 1.32572 67.2344 1.39062 67.2968C1.45862 67.3612 1.51636 67.407 1.56348 67.4393C1.54308 67.3501 1.52817 67.2883 1.52637 67.2723C1.49893 67.0174 1.6071 67.1897 1.74414 67.4725C1.83773 67.3438 1.60775 66.7524 1.61133 66.661C1.63271 66.0632 1.97296 65.9881 2.0166 65.5233C2.04646 65.2201 1.40159 64.3245 1.52246 64.2177C1.92455 63.8641 2.95982 64.9353 2.47852 63.455C2.37503 63.1394 1.58974 62.268 2.39648 62.702C2.44919 62.7304 3.1445 63.1806 2.91992 62.6083C2.89099 62.536 2.68305 62.2591 2.68066 62.2118C2.68063 62.2065 2.68055 62.2003 2.68066 62.1952L2.66699 62.2128C2.68167 61.9191 2.92496 62.0204 2.98242 61.7362C3.03662 61.4525 3.08949 61.0709 3.31836 60.9657C3.45664 60.9026 3.95977 61.2811 4.09668 61.3583C4.49409 61.5748 4.19126 60.7896 4.59473 61.1513C4.99497 61.5211 5.33123 62.411 5.73828 62.4706C5.22623 61.7019 4.71102 60.9003 4.20215 60.12C4.69255 59.5786 5.31889 59.2969 5.76855 58.7313C5.82276 58.6615 5.495 58.3059 5.54688 58.2196C5.77302 57.8514 6.19465 57.8953 6.39453 57.4745C6.55115 57.1434 6.50541 56.4399 6.66699 56.077C7.35608 56.8459 7.5102 56.1701 7.7959 56.0057C7.89792 55.9458 8.03889 56.1969 8.14746 56.2138C8.55549 56.2671 7.96526 55.5666 7.9502 55.3729C7.88866 54.55 9.01148 56.3613 9.2959 55.995C9.31045 55.9769 8.9362 54.7774 8.92969 54.6854C8.87758 54.0957 9.161 54.9991 9.31836 54.954C9.60039 54.8776 9.87548 54.9723 9.9541 54.4296C9.97556 54.2697 9.78221 53.485 10.1963 53.8241C10.2506 53.8693 10.4286 54.2052 10.4551 54.2118C10.4971 54.2167 10.5285 54.2081 10.5537 54.1952C10.5488 54.1348 10.5732 54.1056 10.6162 54.0975C10.6634 53.82 10.3065 53.1095 10.2656 52.7225C10.2138 52.2226 10.8575 52.7013 11.0234 52.8593C11.4523 53.2656 11.058 53.1847 11.0801 53.2431C11.1723 53.4795 11.2469 53.604 11.3105 53.663C11.3066 53.5931 11.3065 53.5318 11.3154 53.4852C11.3342 53.5127 11.3545 53.5376 11.3721 53.5624C11.3884 53.4047 11.4155 53.258 11.4521 53.122C11.2741 52.5602 11.3499 52.3546 11.6934 52.577C11.7927 52.4305 11.9124 52.308 12.0566 52.2128C12.0711 52.2202 12.2561 52.4562 12.3379 52.5448C12.3396 52.5306 12.3437 52.516 12.3525 52.5018C12.3936 52.4349 12.4349 52.3678 12.4766 52.3007C12.4595 52.2359 12.4484 52.1766 12.4512 52.1259C12.4551 52.0681 12.4657 52.0173 12.4775 51.9716C12.4411 51.7901 12.3944 51.5915 12.3701 51.413C12.3092 50.9368 12.4975 50.8642 13.082 51.3778C13.0945 51.3181 13.1293 51.2781 13.1777 51.2518C13.2436 51.1638 13.3114 51.0773 13.3809 50.9921C13.3231 50.8983 13.2684 50.8106 13.293 50.7587C13.3326 50.6715 13.3902 50.6224 13.4541 50.5858C13.4326 50.5524 13.4184 50.5313 13.418 50.5272C13.3679 50.0711 13.4957 49.9427 13.6738 49.8651C13.6626 49.8304 13.6596 49.803 13.6719 49.789C13.8877 49.5425 14.1316 49.3838 14.3809 49.2323C14.4485 49.0857 14.5096 48.931 14.5498 48.8114C14.6168 48.604 14.8103 48.6972 14.8389 48.452C14.8411 48.4173 14.5973 48.1013 14.5889 48.078C14.4276 47.5247 14.9437 48.429 15.0703 48.5487C15.109 48.5854 15.1479 48.6188 15.1836 48.6522C15.2808 48.5438 15.3899 48.3772 15.501 48.2079C15.298 47.7891 15.0506 47.2784 15.0615 47.1874C15.0877 46.9958 15.346 47.4697 15.3643 47.2606C15.3638 47.24 15.1872 46.9748 15.25 46.9227C15.5434 46.6742 15.93 46.5103 16.1826 46.1845C16.2182 46.1404 15.8963 45.755 15.9434 45.6835C16.1664 45.3497 16.4601 45.0611 16.8359 45.0057C16.9297 44.9936 17.0775 45.3466 17.1465 45.4257C17.564 45.9016 17.1937 44.9639 17.2041 44.9266C17.4183 44.1246 18.0875 44.3852 18.415 43.8085C18.4424 43.7572 18.4667 43.6978 18.4873 43.6288C18.4982 43.5827 18.1849 42.5049 18.6943 43.1962C18.7309 43.2454 19.2464 43.9504 19.0205 43.3407C19.0062 43.3027 18.7308 42.9465 18.8418 42.9003C18.9524 42.8557 18.9492 42.4397 19.3193 42.7665C19.4366 42.8693 19.965 43.5669 19.7354 42.8231C19.7156 42.7662 19.1176 41.1742 19.7236 42.0888C19.8233 42.2402 20.3848 43.2899 20.2324 42.621C20.2024 42.4914 20.0257 42.3066 20.0176 42.0927C20.0057 41.7626 20.3044 41.9005 20.1885 41.3046C20.1672 41.1997 19.8858 40.3914 20.2588 40.8524C20.3173 40.9252 20.4814 41.2941 20.5459 41.2938C20.8531 41.2847 20.9442 40.8468 21.2861 40.8905C21.4061 40.9065 21.6692 41.5105 21.8271 41.5907C21.985 41.6708 22.2194 41.6715 22.1641 41.3368C22.1096 41.0003 21.5443 40.1718 21.6309 39.9843C22.0104 39.1683 22.8332 39.2177 23.4277 38.8212C23.5166 38.7619 23.2863 38.4872 23.4062 38.3759C23.8434 37.9651 24.5003 36.9919 25.2266 37.4013C25.8069 37.729 25.601 38.4873 25.9482 38.5341C26.1129 38.5573 25.7524 37.3458 25.7666 37.288C25.8943 36.7142 26.303 37.0615 26.4932 36.7206C26.5324 36.6499 26.2894 36.231 26.3252 36.1757C26.4459 35.9834 26.6975 36.0655 26.8281 35.9227C26.8866 35.8564 26.7321 35.5152 26.8047 35.4979C26.9736 35.4539 27.163 35.5049 27.4287 35.7255C27.4257 35.7001 27.4277 35.6799 27.4395 35.6669C27.7472 35.3388 28.1126 35.0361 28.5098 34.8778C28.4994 34.551 28.5417 34.2851 28.7705 34.6581C28.8422 34.7748 29.0402 35.1542 29.168 35.3348C29.2117 35.3691 29.2412 35.3756 29.2646 35.3651C29.2204 35.2511 29.0908 34.9519 29.1279 34.8837C29.1722 34.8064 29.2236 34.7434 29.2773 34.6864C29.2761 34.6701 29.2735 34.6597 29.2754 34.6561C29.3964 34.4163 29.5397 34.25 29.6953 34.1229C29.6481 33.9733 29.5215 33.7274 29.5771 33.6542C29.7845 33.3848 30.1308 33.318 30.4229 33.3192C30.4934 33.3205 30.5453 33.5007 30.5791 33.6356C30.6336 33.6063 30.6871 33.5744 30.7402 33.5399C30.7259 33.4555 30.7156 33.3877 30.7197 33.37C30.8077 33.0095 31.0266 33.1579 31.1914 33.1083C31.2263 33.0587 31.2615 33.0062 31.2939 32.9481C31.2952 32.9458 31.2932 32.9407 31.2939 32.9345C31.2624 32.7887 31.1614 32.5447 31.1602 32.5106C31.1551 32.2235 31.223 32.4663 31.2979 32.6893C31.2995 32.3576 31.3369 31.8835 31.71 32.3798C31.7337 32.4108 31.9835 32.746 32.0977 32.7557C32.1537 32.6937 31.9682 32.3141 31.9775 32.204C31.9401 32.1146 31.9284 32.0298 32.001 31.995C32.1708 31.914 32.2772 31.4266 32.7051 31.7255C32.7251 31.7393 32.7519 31.7683 32.7861 31.8016C32.9196 31.7843 33.0573 31.7885 33.1992 31.8192C33.2276 31.8259 33.2535 31.8798 33.2793 31.9501C33.2844 31.8898 33.282 31.8076 33.2666 31.6991C33.2552 31.6341 32.8559 29.9005 33.4463 30.8417C33.512 30.947 33.7594 31.4846 33.9033 31.5927C33.9367 31.5528 33.9713 31.5149 34.0068 31.4784C34.0091 31.4442 34.0098 31.4029 34.0078 31.3534C34.0013 31.208 33.8069 31.0302 33.8525 30.7811C33.9218 30.3987 34.2947 30.4958 34.2881 29.827C34.2862 29.7091 34.1048 28.8305 34.499 29.286C34.5608 29.3579 34.6918 29.7553 34.7803 29.7391C35.2018 29.6645 35.4343 29.1369 35.8877 29.1161C36.0478 29.1095 36.261 29.7507 36.458 29.8085C36.6552 29.8661 36.9745 29.8155 36.9795 29.4393C36.984 29.0626 36.4075 28.2328 36.5674 27.9989C37.1834 27.1009 38.1116 26.8998 38.9316 26.455C38.766 26.1216 38.7144 25.9138 38.6611 25.7509C38.6008 25.5453 38.5667 25.3728 38.5635 25.3593C38.4913 24.9898 38.4981 24.9555 38.4902 24.914C38.481 24.8387 38.4849 24.863 38.4912 24.8807C38.4983 24.9035 38.8708 24.8504 38.8877 24.8563C39.032 24.9551 38.7673 25.1284 38.8701 25.2802C38.9086 25.3417 39.2666 25.2299 39.3057 25.3231C39.4103 25.5778 38.8027 25.938 39.2178 26.1825C39.2356 26.1932 39.2582 26.2022 39.2842 26.2098C39.3074 26.0962 39.154 25.8952 39.3076 25.7655C39.5268 25.5799 39.7856 25.3226 40.0664 25.0682C40.0244 25.0031 40.08 24.9448 40.2539 24.9032C40.3273 24.84 40.402 24.7781 40.4775 24.7186C40.4887 24.5707 40.4892 24.425 40.5977 24.1688C40.684 23.8816 40.9605 24.1974 41.001 24.1718C41.0209 24.1621 41.0386 24.1579 41.0596 24.1386C41.099 24.0983 41.0902 23.9894 41.3232 23.8622C41.4435 23.803 41.6104 23.8965 41.6338 23.9384C41.6803 23.9903 41.6999 24.0366 41.7119 24.0702C41.7254 24.1117 41.7283 24.1406 41.7295 24.163C41.8057 24.1653 41.8813 24.1761 41.9561 24.1972C42.6933 24.4063 42.2837 25.3189 42.7549 25.2714C42.9808 25.247 42.6856 23.9883 42.7129 23.9188C42.9757 23.2399 43.4846 23.5072 43.7959 23.0682C43.86 22.9773 43.5896 22.584 43.6455 22.5106C43.8381 22.2596 44.1673 22.2772 44.3691 22.0761C44.4595 21.9844 44.2939 21.6506 44.3955 21.6093C44.6367 21.5067 44.889 21.5103 45.2393 21.6766C45.2711 21.6974 45.3254 22.2195 45.4912 22.1171C45.7613 21.9474 46.2156 22.0307 46.374 21.4784C46.421 21.3127 46.0921 20.5135 46.5127 20.9208C46.6009 21.0061 46.95 22.0012 46.8271 21.0106C46.807 20.8447 46.7166 19.4562 47.1992 20.0409C47.3266 20.1947 47.7742 20.8884 47.8311 20.6884C47.8361 20.656 47.6031 20.2702 47.6748 20.164C47.9324 19.7951 48.2744 19.6077 48.5479 19.2382C48.6194 19.1389 48.3096 18.7856 48.4229 18.6522C48.7343 18.2846 49.223 18.085 49.6318 17.9784C49.7818 17.941 49.8398 18.3752 49.8652 18.4091C50.2753 18.9602 50.0149 18.0144 50.0439 17.9257C50.2303 17.4013 50.6386 17.6493 50.8838 17.3417C50.9513 17.2572 50.7322 16.8732 50.7324 16.8231C50.7545 16.3407 50.9259 17.1841 51.0625 17.2001C51.184 17.2127 51.2986 17.1965 51.4062 17.16C51.6376 17.082 51.8391 16.9098 52.0225 16.7391C52.1202 16.6468 51.8139 16.2355 51.9023 16.1571C52.4313 15.6926 53.0329 15.3469 53.6895 15.247C53.8123 15.2304 53.8926 15.6517 53.9473 15.7255C54.3277 16.2335 54.2278 15.2596 54.2471 15.1464C54.3346 14.6347 54.5502 14.9114 54.7305 14.7118C55.5992 13.7341 56.8943 13.1457 57.877 12.661C59.1526 12.0299 60.2228 11.7694 61.3516 10.9003C61.4215 10.8454 61.158 10.3887 61.2158 10.3348C61.9858 9.66948 62.8624 9.33572 63.6328 8.64247C63.6954 8.58684 63.4192 8.16853 63.5137 8.06337C63.7048 7.84544 63.9941 7.68624 64.2793 7.68934C64.4171 7.69067 64.4251 8.20201 64.5605 8.1952C64.8765 8.17958 65.1606 8.03385 65.3916 7.78505C65.4926 7.67576 65.1371 7.29704 65.2822 7.19325C66.2628 6.48507 67.1958 5.76564 68.4434 5.74208C68.5295 5.74426 68.9564 6.70661 69.0332 6.41786C68.941 6.13221 68.8185 5.80541 68.7129 5.50477C70.1004 4.39587 71.6691 3.80366 73.1367 2.91786C73.1977 2.88096 72.899 2.41593 73.0156 2.34169C73.7151 1.89742 74.3122 1.32877 75.2188 1.39833C75.3071 1.4099 75.6153 2.36505 75.7627 2.09559C75.7921 2.04459 76.0604 1.71635 76.0635 1.46278C76.0629 1.42519 75.8483 1.0235 75.9414 0.947154C76.5022 0.503488 77.1363 0.218999 77.8135 0.114147C77.9225 0.0991907 77.9917 0.628659 78.0732 0.620983C78.6343 0.565822 79.0225 -0.120128 79.6182 0.0184434ZM84.6084 119.998C84.6128 119.998 84.6174 119.998 84.6221 119.999L84.624 120H84.5352C84.5366 119.999 84.5385 119.998 84.54 119.998C84.5461 119.997 84.5527 119.996 84.5596 119.996C84.5737 119.995 84.5903 119.996 84.6084 119.998ZM117.929 119.998C117.933 119.998 117.938 119.998 117.942 119.999L117.944 120H117.855C117.857 119.999 117.859 119.998 117.86 119.998C117.866 119.997 117.873 119.996 117.88 119.996C117.894 119.995 117.911 119.996 117.929 119.998ZM83.2246 118.508C83.2065 118.513 83.1885 118.697 83.2061 118.701C83.6425 118.8 83.6781 118.43 83.2246 118.508ZM116.545 118.508C116.527 118.513 116.509 118.697 116.526 118.701C116.963 118.8 116.998 118.43 116.545 118.508ZM79.165 106.607C79.0541 106.64 78.9442 106.677 78.835 106.719C78.8235 106.938 78.8168 107.169 78.8223 107.4C78.825 107.522 78.9433 107.563 78.9287 108.023C79.0684 108.082 79.2056 108.154 79.3398 108.237C79.3747 107.728 79.4072 107.217 79.4404 106.702C79.4137 106.694 79.387 106.687 79.3613 106.679C79.2955 106.657 79.2306 106.631 79.165 106.607ZM112.485 106.607C112.374 106.64 112.264 106.677 112.155 106.719C112.144 106.938 112.137 107.169 112.143 107.4C112.145 107.522 112.264 107.563 112.249 108.023C112.389 108.082 112.526 108.154 112.66 108.237C112.695 107.728 112.728 107.217 112.761 106.702C112.734 106.694 112.707 106.687 112.682 106.679C112.616 106.657 112.551 106.631 112.485 106.607ZM78.3467 107.111C78.31 107.13 78.2611 107.259 78.2373 107.516C78.2348 107.541 78.3365 107.593 78.3428 107.57C78.4006 107.344 78.4014 107.193 78.3799 107.136C78.3687 107.127 78.3583 107.118 78.3467 107.111ZM111.667 107.111C111.63 107.13 111.581 107.259 111.558 107.516C111.555 107.541 111.657 107.593 111.663 107.57C111.721 107.344 111.722 107.193 111.7 107.136C111.689 107.127 111.679 107.118 111.667 107.111ZM71.292 97.8212C71.3257 97.8421 71.3576 97.865 71.3887 97.8886C71.5821 98.0256 71.7764 98.1615 71.9727 98.2997C71.9731 98.298 71.9741 98.2965 71.9746 98.2948C71.8726 98.1779 71.7506 98.0533 71.6006 97.9247C71.4245 97.745 71.1768 97.621 70.9004 97.5477C71.032 97.6388 71.1624 97.7296 71.292 97.8212ZM104.612 97.8212C104.646 97.8421 104.678 97.865 104.709 97.8886C104.902 98.0256 105.097 98.1615 105.293 98.2997C105.293 98.298 105.294 98.2965 105.295 98.2948C105.193 98.1779 105.071 98.0533 104.921 97.9247C104.745 97.745 104.497 97.621 104.221 97.5477C104.352 97.6388 104.483 97.7296 104.612 97.8212ZM80.166 97.6727C80.1051 97.8 80.0434 97.9268 79.9795 98.0526C80.0377 98.073 80.0963 98.0981 80.1562 98.1229C80.1713 97.9938 80.1949 97.8583 80.2178 97.7206C80.2004 97.7048 80.1833 97.6888 80.166 97.6727ZM113.482 97.6825C113.423 97.8066 113.362 97.9299 113.3 98.0526C113.358 98.073 113.417 98.0981 113.477 98.1229C113.5 97.9207 113.549 97.7036 113.574 97.4852L113.482 97.6825ZM74.9414 97.3661C74.8041 97.3861 74.8927 97.403 74.9932 97.4013C75.0734 97.4008 75.1779 97.3937 75.2939 97.3847C75.1691 97.3702 75.0505 97.3638 74.9414 97.3661ZM108.262 97.3661C108.124 97.3861 108.213 97.403 108.313 97.4013C108.394 97.4008 108.498 97.3937 108.614 97.3847C108.489 97.3702 108.371 97.3638 108.262 97.3661ZM66.6221 93.7968C66.5814 93.8788 66.5329 93.9613 66.4736 94.0438C66.4672 94.0528 66.4446 94.0594 66.4111 94.0653C66.2718 94.2397 66.1303 94.4124 65.9883 94.5848C66.011 94.603 66.0347 94.6187 66.0605 94.6288C66.0863 94.638 66.4532 94.591 66.4639 94.6757C66.4827 94.8494 66.4838 95.0257 66.4707 95.203C66.5327 95.2631 66.5958 95.3221 66.6592 95.3807C66.5869 95.1698 66.2893 94.2414 66.8887 94.1112C66.8979 94.1094 66.9085 94.1125 66.9199 94.1181C66.9202 94.161 66.9203 94.2017 66.9199 94.245C66.9173 94.4561 66.9058 94.624 66.8936 94.7636C66.8812 94.9025 66.8678 95.0139 66.8545 95.1073C66.8446 95.1778 66.8367 95.2309 66.8281 95.2811C66.8119 95.3745 66.7961 95.4442 66.7842 95.496C66.9011 95.6005 67.0197 95.7016 67.1396 95.7977C67.2442 95.2353 67.3277 94.6765 67.3994 94.1141C67.3814 94.1454 67.3657 94.1779 67.3477 94.2089C67.2005 94.4593 67.021 94.1673 66.9199 94.1181C66.9195 94.0506 66.9189 93.9761 66.915 93.8739C66.9101 93.7502 66.9007 93.6139 66.8857 93.4628C66.7988 93.5749 66.7098 93.6854 66.6221 93.7968ZM99.9424 93.7968C99.9017 93.8788 99.8532 93.9613 99.7939 94.0438C99.7875 94.0528 99.7649 94.0594 99.7314 94.0653C99.5921 94.2397 99.4506 94.4124 99.3086 94.5848C99.3313 94.603 99.355 94.6187 99.3809 94.6288C99.4066 94.638 99.7735 94.591 99.7842 94.6757C99.803 94.8494 99.8041 95.0257 99.791 95.203C99.853 95.2631 99.9161 95.3221 99.9795 95.3807C99.9072 95.1698 99.6096 94.2414 100.209 94.1112C100.218 94.1094 100.229 94.1125 100.24 94.1181C100.24 94.161 100.241 94.2017 100.24 94.245C100.238 94.4561 100.226 94.624 100.214 94.7636C100.202 94.9025 100.188 95.0139 100.175 95.1073C100.165 95.1778 100.157 95.2309 100.148 95.2811C100.132 95.3745 100.116 95.4442 100.104 95.496C100.221 95.6005 100.34 95.7016 100.46 95.7977C100.565 95.2353 100.648 94.6765 100.72 94.1141C100.702 94.1454 100.686 94.1779 100.668 94.2089C100.521 94.4593 100.341 94.1673 100.24 94.1181C100.24 94.0506 100.239 93.9761 100.235 93.8739C100.23 93.7502 100.221 93.6139 100.206 93.4628C100.119 93.5749 100.03 93.6854 99.9424 93.7968ZM47.9814 88.3007C47.8915 88.3068 47.7989 88.3138 47.7051 88.3231C47.6768 88.3629 47.6564 88.3909 47.6475 88.3925C47.5895 88.3971 47.5423 88.378 47.5 88.3485C47.461 88.3541 47.4218 88.3593 47.3828 88.3661C47.2892 88.3787 47.2738 88.5138 46.8877 88.5214C46.328 88.5317 45.7376 88.5154 45.1396 88.5038C45.4315 88.7989 45.7197 89.1102 46.0361 89.3348C46.1482 89.4132 46.1699 88.9957 46.3438 89.0868C46.9847 89.4223 48.1905 89.7094 48.4883 90.7977C48.7268 91.6691 48.0208 91.8229 48.2744 92.2675C48.3976 92.4807 48.9567 91.4011 49.0088 91.3847C49.021 91.3808 49.0332 91.3787 49.0449 91.3759C49.1119 91.0436 49.1704 90.7132 49.2217 90.3827C49.0784 90.2676 48.9368 90.1445 48.8018 90.0106C48.446 89.6592 48.1198 89.2453 47.832 88.7772C47.7483 88.6404 47.9593 88.3604 47.9814 88.3007ZM36.8125 89.3534C36.8069 89.3787 36.8771 89.4458 36.9219 89.3251C36.8934 89.3017 36.865 89.2809 36.835 89.2636C36.8274 89.2915 36.8196 89.3214 36.8125 89.3534ZM29.2461 85.327C29.4822 84.8311 29.2562 84.6518 29.1279 85.2343C29.1243 85.2583 29.2363 85.3469 29.2461 85.327ZM42.8672 84.8095C42.859 84.8818 42.8581 84.9312 42.8701 84.9423C42.8875 84.8731 42.9027 84.8035 42.9189 84.7343C42.9027 84.7589 42.8843 84.7832 42.8672 84.8095ZM41.8936 83.6141C41.9627 83.2148 42.0129 82.8714 41.7266 83.1884C41.713 83.2038 41.6773 83.2855 41.6299 83.4003C41.7172 83.4747 41.8046 83.5473 41.8936 83.6141ZM40.6299 82.0731C40.4943 82.4031 40.3606 82.7361 40.3076 82.8046C40.2888 82.8286 40.2719 82.8364 40.2568 82.8348C40.1819 83.1523 40.0531 83.6575 40.1426 83.5409C40.2375 83.2573 40.344 82.9208 40.4424 82.6161C40.5293 82.6386 40.613 82.6697 40.6943 82.7079C40.729 82.5147 40.7875 82.3327 40.8525 82.078C40.7785 82.0762 40.7043 82.075 40.6299 82.0731ZM42.8447 83.3612C42.843 83.2206 42.7869 83.2671 42.6992 83.41C42.7327 83.4331 42.7653 83.4604 42.7959 83.495C42.8248 83.4264 42.8445 83.3779 42.8447 83.3612ZM20.3379 81.9501C20.458 82.0513 20.5839 82.1201 20.7051 82.2186C20.4202 82.6995 20.2499 82.6882 20.3379 81.9501ZM40.1533 82.1434C40.1586 82.117 40.1661 82.0901 40.1748 82.0634C40.1546 82.063 40.1345 82.0618 40.1143 82.0614C40.1281 82.0874 40.1402 82.1151 40.1533 82.1434ZM36.6279 80.7421C36.6463 80.7633 36.6667 80.7824 36.6855 80.8026C36.6906 80.7729 36.697 80.7434 36.7031 80.7138C36.6761 80.7256 36.6503 80.7344 36.6279 80.7421ZM49.3516 80.5624C49.2656 80.5847 49.2216 80.61 49.2705 80.6415C49.3039 80.6426 49.3382 80.6417 49.373 80.6425C49.3663 80.6164 49.3585 80.5898 49.3516 80.5624ZM34.1523 78.702C34.1418 78.6987 34.1301 78.7061 34.1182 78.7206C34.1168 78.7238 34.1156 78.7271 34.1143 78.7304C34.1796 78.7404 34.2446 78.7514 34.3096 78.7616C34.2582 78.7391 34.2061 78.7186 34.1523 78.702ZM34.1885 77.7743C34.1499 77.8853 34.1152 77.9745 34.085 78.0468C34.1035 78.0788 34.1212 78.1124 34.1377 78.1483C34.1862 77.9948 34.2279 77.8457 34.2461 77.7167C34.2271 77.736 34.2078 77.7551 34.1885 77.7743ZM18.2197 76.9911C18.1435 77.4037 18.047 77.7274 18.3379 77.6766C18.4202 77.6625 18.5023 77.4559 18.5879 77.2284C18.4647 77.1413 18.3486 77.0172 18.2197 76.9911ZM17.6123 76.789C17.398 77.6859 17.5263 77.7413 17.7119 76.9999C17.6771 76.9384 17.6442 76.8685 17.6123 76.789ZM19.6387 77.1581C19.6889 77.2082 19.7415 77.2424 19.7998 77.247C19.8282 77.2491 19.8496 77.222 19.8691 77.1806C19.7818 77.2017 19.7073 77.1905 19.6387 77.1581ZM20.1611 76.785C20.2647 76.8574 20.3453 77.0057 20.4531 77.0595C20.4547 77.0499 20.4562 77.0405 20.458 77.0311C20.3781 76.9141 20.2972 76.7929 20.2178 76.6659C20.1983 76.7063 20.1793 76.7463 20.1611 76.785ZM17.5703 75.9598C17.4543 76.2836 17.4719 76.402 17.5283 76.4706C17.5657 76.3504 17.702 76.0252 17.5771 75.9647C17.5747 75.9635 17.5728 75.9611 17.5703 75.9598ZM17.0791 75.5966C16.9955 75.5658 16.9059 75.5655 16.8057 75.6229C16.7981 75.656 16.7934 75.6792 16.7949 75.6864C16.8633 75.9038 16.9631 75.8056 17.0791 75.5966ZM15.4951 74.9638C15.4908 74.9679 15.4875 74.9988 15.4805 75.0429C15.4945 75.016 15.509 74.9886 15.5234 74.9608C15.515 74.9561 15.506 74.9554 15.4951 74.9638ZM10.0576 74.4042C10.01 74.6216 9.98768 74.8217 10.0254 74.9852C10.0754 74.8117 10.1277 74.6375 10.1787 74.4628C10.1382 74.4444 10.0981 74.4244 10.0576 74.4042ZM38.6279 72.8651C38.4757 72.9044 38.3224 72.94 38.168 72.9706C38.1325 73.0156 38.0936 73.068 38.0518 73.1298C38.0718 73.0786 38.0892 73.029 38.1074 72.9823C37.5907 73.0805 37.0631 73.1309 36.5342 73.1278C36.4634 73.3772 36.3874 73.6363 36.3037 73.9061C36.2093 74.1874 36.1013 74.5174 35.9668 74.8759C36.1826 74.5046 36.6368 73.6168 36.7363 73.5936C36.8977 73.5616 36.6641 74.0584 36.8389 74.0136C36.8537 74.0101 36.9679 73.685 37.041 73.7479C37.3889 74.043 37.7206 74.4831 38.1201 74.6962C38.1731 74.7242 38.2914 74.1696 38.3711 74.203C38.4402 74.233 38.5091 74.2678 38.5781 74.3056C38.6041 74.059 38.6308 73.8113 38.6572 73.5624C38.6756 73.3911 38.7224 73.2069 38.7744 73.0175C38.7161 72.984 38.6717 72.9223 38.6279 72.8651ZM11.3848 74.3016C11.3943 74.5602 11.4638 74.555 11.5469 74.4169C11.4947 74.3723 11.441 74.3339 11.3848 74.3016ZM7.36523 72.9472C7.40201 72.5885 7.08555 72.8471 7.04102 73.2958C7.01084 73.6602 7.32239 73.3957 7.36523 72.9472ZM14.1045 72.8114C14.0874 72.9799 14.0868 73.1143 14.0967 73.2225C14.136 73.2032 14.1801 73.1826 14.2266 73.1571C14.2368 73.0776 14.2461 72.9982 14.2539 72.9286C14.219 72.9038 14.1828 72.8801 14.1475 72.8544C14.1319 72.8429 14.1187 72.8273 14.1045 72.8114ZM14.3711 73.0321C14.3667 73.0353 14.3624 73.0533 14.3574 73.08C14.3766 73.0682 14.3953 73.0547 14.415 73.0419C14.4062 73.0358 14.3975 73.0295 14.3887 73.0233C14.3831 73.0262 14.3769 73.0285 14.3711 73.0321ZM3.95801 70.9374C4.35078 71.4225 3.72801 73.4427 3.33008 72.788C3.25952 72.6699 3.81441 72.4037 3.7832 72.1405C3.72829 71.6641 3.01193 72.6347 3.11523 71.8515C3.1353 71.7086 3.93229 70.9117 3.95996 70.9354L3.95801 70.9374ZM14.127 71.8056C14.1009 71.7714 14.0705 71.7595 14.0322 71.7723C14.0085 71.8318 13.983 71.8947 13.958 71.9618C13.9385 71.9412 13.9166 71.9256 13.8945 71.911C13.8463 72.0537 13.7496 72.4893 13.6602 72.8837C13.7833 72.8001 13.908 72.7152 14.0176 72.6708C13.9909 72.6091 13.97 72.5387 13.958 72.4638C13.864 72.5908 13.8529 72.4524 13.958 71.9638C13.9699 71.9793 13.9843 71.9915 13.9971 72.0048C14.0264 71.9298 14.0697 71.8618 14.127 71.8056ZM0 69.8202C0.251424 69.5598 0.737633 69.7357 1.07422 70.0311C1.05174 69.8659 1.03706 69.7424 1.04004 69.7216C1.41604 69.6019 2.33018 71.3922 1.85059 71.4237C1.76502 71.4272 1.79022 70.7097 1.6377 70.5907C1.36382 70.3724 1.66811 71.6623 1.27441 71.1083C1.25716 71.0827 1.23258 70.9846 1.20605 70.8515C1.13279 70.6536 1.0568 70.2091 0.899414 70.2147C0.510474 70.232 1.08592 71.3638 0.498047 71.1249C0.404262 71.086 0.0700002 70.1374 0.0078125 69.8807L0 69.8202ZM2.61523 66.7235C2.3148 66.8908 2.08809 67.2483 1.87695 67.5048C1.78118 67.6272 2.11911 67.9091 2.11328 67.9364C2.09107 67.998 2.05513 68.0428 2.01758 68.0829C2.09772 68.2717 2.15946 68.4207 2.17188 68.4462C2.63661 69.3895 2.35343 68.151 2.3623 68.0419C2.39578 67.6878 2.53837 67.6562 2.64062 67.5243C2.64491 67.5224 2.65653 67.5127 2.66113 67.5106C2.69398 67.466 2.72267 67.4059 2.73535 67.3095C2.74887 67.2155 2.68594 66.9762 2.61523 66.7235ZM1.77441 68.3612C1.74673 68.4375 1.74513 68.5385 1.79004 68.6903C1.8039 68.6661 1.81556 68.6285 1.81445 68.5653C1.81433 68.5469 1.79831 68.4697 1.77441 68.3612ZM3.34668 67.6229C3.17748 67.3453 3.18127 67.7976 3.39062 68.1444C3.5604 68.4215 3.55854 67.9668 3.34668 67.6229ZM16.1611 66.9013C16.1747 67.1692 16.1883 67.4624 16.1963 67.6669C16.2089 67.6605 16.2206 67.6526 16.2334 67.6473C16.1964 67.0646 16.2187 67.7665 16.1934 67.3671C16.1846 67.2294 16.1784 67.0683 16.1719 66.9169C16.1681 66.9118 16.1649 66.9064 16.1611 66.9013ZM14.0801 65.1493C14.1049 66.0715 14.144 67.4508 14.0586 66.2479C14.0019 66.6624 13.8918 65.826 13.8428 66.414C13.8409 66.4355 13.8588 67.0446 13.8613 67.2509C14.106 66.9285 14.1085 67.5429 14.2383 67.6522C14.2565 67.6562 14.2747 67.6604 14.293 67.664C14.337 67.644 14.3861 67.4484 14.4277 67.3036C14.3904 67.2578 14.3437 66.9978 14.2949 66.8632C14.2822 66.8306 14.2836 67.5243 14.2363 66.9774C14.2099 66.6717 14.1715 65.8717 14.1377 65.2391C14.118 65.2079 14.0985 65.1769 14.0801 65.1493ZM16.2744 67.2841C16.2779 67.4625 16.2699 67.4242 16.2607 67.494C16.2584 67.5135 16.2632 67.5694 16.2656 67.6376C16.2794 67.6328 16.2927 67.6276 16.3066 67.6239C16.3029 67.5459 16.2989 67.4635 16.2949 67.3798C16.2877 67.347 16.2817 67.3149 16.2744 67.2841ZM16.3252 67.5868C16.3243 67.5902 16.326 67.6014 16.3262 67.6181C16.3323 67.6167 16.3386 67.6144 16.3447 67.6132C16.3417 67.5969 16.3371 67.5812 16.334 67.5653C16.3312 67.5716 16.3279 67.5788 16.3252 67.5868ZM13.5146 65.3505C13.5539 66.1957 13.5524 66.4014 13.5459 66.5751C13.5912 66.5574 13.5935 66.6993 13.5498 67.0116C13.5556 67.1286 13.5616 67.2482 13.5615 67.2733C13.5615 67.4777 13.5367 67.1509 13.5381 67.3739C13.5382 67.3851 13.5388 67.4101 13.54 67.4432C13.5693 67.4527 13.5985 67.4622 13.6279 67.4716C13.6632 67.4837 13.6986 67.495 13.7334 67.5067C13.7712 67.4074 13.8075 67.3255 13.8389 67.2802C13.8444 67.2721 13.8511 67.2649 13.8564 67.2577C13.843 67.1377 13.8222 66.8806 13.8145 66.8583C13.7729 66.7373 13.7567 67.0929 13.7197 67.0419C13.7057 67.023 13.6896 66.5968 13.6729 66.5712C13.6561 66.5489 13.6727 67.1137 13.6387 66.8427C13.6128 66.6349 13.5423 65.485 13.5146 65.3505ZM15.6455 67.414C15.6489 67.4415 15.6531 67.4707 15.6553 67.5009C15.6604 67.5007 15.6656 67.5002 15.6709 67.4999C15.6622 67.4682 15.654 67.44 15.6455 67.414ZM15.7021 66.7704C15.7111 67.0179 15.7223 67.2688 15.7324 67.4931C15.7565 67.49 15.7812 67.4874 15.8057 67.4843C15.7871 67.0844 15.7692 66.6698 15.7598 66.5067C15.7374 66.1209 15.7515 66.5184 15.7363 66.3075C15.7361 66.3047 15.7355 66.3015 15.7354 66.2987C15.7222 66.2879 15.7084 66.2781 15.6943 66.2684C15.6955 66.4398 15.6969 66.624 15.7021 66.7704ZM13.4814 67.4247C13.4847 67.4257 13.488 67.4266 13.4912 67.4276C13.4903 67.4158 13.4901 67.4044 13.4893 67.3934C13.4874 67.404 13.4834 67.4141 13.4814 67.4247ZM15.3438 66.1757C15.3493 66.3614 15.358 66.5849 15.3604 66.7723C15.3618 66.8931 15.328 66.5017 15.3379 66.7714C15.3445 66.9523 15.3526 67.1375 15.3604 67.3143C15.3915 67.3535 15.4239 67.3902 15.459 67.4218C15.4613 67.4161 15.4636 67.4106 15.4658 67.4052C15.4408 66.8696 15.4161 66.45 15.3945 66.1737C15.3781 66.1733 15.3612 66.1749 15.3438 66.1757ZM15.4746 66.3739C15.423 66.1028 15.45 66.6421 15.4736 67.3866C15.5232 67.2725 15.5587 67.2354 15.5859 67.244C15.5609 67.1752 15.5349 67.0979 15.5078 66.9784C15.4979 66.9322 15.4807 66.4069 15.4746 66.3739ZM14.6553 67.329C14.6377 67.0671 14.6402 67.2244 14.6396 67.3056C14.6442 67.3143 14.6503 67.3216 14.6553 67.329ZM14.6113 66.9745C14.558 66.0943 14.5019 65.4369 14.4971 66.0477C14.4971 66.0721 14.527 66.8774 14.5166 66.8768C14.4988 66.8568 14.4665 66.6874 14.4492 66.6942C14.4433 66.7099 14.4622 67.0661 14.4678 67.1815C14.4751 67.1658 14.4827 67.1554 14.4893 67.1522C14.5661 67.1151 14.5961 67.2149 14.6328 67.2909C14.6284 67.2378 14.6213 67.1398 14.6113 66.9745ZM13.375 66.4491C13.346 66.6151 13.3224 66.7124 13.3047 66.7665C13.3049 66.7724 13.3057 66.7761 13.3057 66.7772C13.3017 66.804 13.2986 66.8026 13.293 66.7929C13.2748 66.8363 13.2682 66.8288 13.2588 66.8085C13.2567 66.8592 13.2583 66.9481 13.2617 67.0975C13.2673 67.1067 13.2719 67.1165 13.2773 67.1259C13.3315 66.9828 13.3797 66.8672 13.4199 66.7792C13.4157 66.6605 13.4122 66.5526 13.4014 66.4833C13.3958 66.4481 13.3881 66.4187 13.3828 66.3934C13.3795 66.4141 13.3778 66.4331 13.375 66.4491ZM13.2266 66.7499C13.2219 66.7631 13.2173 66.7762 13.2129 66.789C13.2152 66.8767 13.2169 66.9613 13.2178 67.0302C13.2279 67.0451 13.2392 67.0595 13.249 67.0751C13.2421 66.9478 13.2357 66.8381 13.2305 66.744C13.2292 66.7444 13.2278 66.7463 13.2266 66.7499ZM13.1592 66.9481C13.1717 66.9644 13.1831 66.9818 13.1953 66.9989C13.1932 66.9599 13.1911 66.9133 13.1885 66.8612C13.1781 66.892 13.1679 66.9208 13.1592 66.9481ZM13.1758 65.5204C13.1477 65.5312 13.1194 65.5409 13.0898 65.5458C13.0738 65.5485 13.0595 65.543 13.0459 65.5321C12.8411 65.8848 12.6121 66.1758 12.3975 66.4882C12.4319 66.6032 12.4828 66.6554 12.6182 66.4833C12.6834 66.3995 12.9792 65.7144 12.8916 66.3153C12.8854 66.3576 12.8493 66.4877 12.8174 66.6034C12.8539 66.6335 12.891 66.6648 12.9277 66.6981C12.9644 66.6134 13.005 66.5092 13.0469 66.3983C13.0446 66.2728 13.0426 66.1831 13.043 66.164C13.0523 66.1791 13.0617 66.2387 13.0732 66.328C13.1001 66.2563 13.1284 66.1835 13.1553 66.1122C13.1456 65.8867 13.1368 65.6949 13.1377 65.6307C13.1402 65.4453 13.1748 65.8381 13.1768 65.5477C13.1768 65.5432 13.176 65.5338 13.1758 65.5204ZM3.44336 64.1962C3.49907 64.2717 3.54691 64.3425 3.59082 64.4071C3.62257 64.3273 3.66819 64.2759 3.74121 64.2919C3.83718 64.3142 4.19469 64.8877 4.29395 65.0194C4.57707 65.4018 4.35424 64.5911 4.64551 65.0927C4.91934 65.5631 5.15555 66.3917 5.43066 66.6962C5.43448 66.6772 5.43888 66.6594 5.44238 66.6425C5.17319 66.0094 4.90331 65.3626 4.63379 64.7206C4.61844 64.7203 4.60101 64.7199 4.58203 64.7147C4.30242 64.6405 3.65757 64.0882 3.44336 64.1962ZM4.50879 66.6034C4.89676 67.0383 3.95669 64.7729 3.99023 65.3485C3.99267 65.3827 4.48326 66.5708 4.50879 66.6034ZM13.4307 66.0106C13.4325 66.0403 13.4334 66.0703 13.4355 66.1005C13.4555 66.3831 13.4607 66.171 13.4463 65.8495C13.4432 65.9006 13.4362 65.9551 13.4307 66.0106ZM13.7266 65.1337C13.7459 65.5634 13.7665 65.9775 13.792 66.2098C13.7754 65.8506 13.7587 65.4879 13.7422 65.1239C13.7368 65.1269 13.7319 65.1305 13.7266 65.1337ZM22.832 65.7479C22.7334 65.9306 22.6864 66.054 22.6709 66.1425C22.7256 66.0795 22.7854 66.0116 22.8535 65.9432C22.8454 65.8771 22.8395 65.811 22.832 65.7479ZM2.87793 65.3007C2.63016 65.1348 2.66619 65.6574 2.97461 65.8641C3.04534 65.9117 3.09151 65.9021 3.11621 65.8602C3.09012 65.7466 3.01763 65.5458 2.9502 65.3602C2.92793 65.3387 2.90415 65.3182 2.87793 65.3007ZM13.2285 65.496C13.2328 65.5789 13.2364 65.6355 13.2373 65.6513C13.2423 65.7348 13.249 65.8049 13.2529 65.8632C13.2605 65.8447 13.268 65.8268 13.2754 65.8095C13.2738 65.6849 13.2725 65.5508 13.2715 65.4706C13.257 65.4793 13.2433 65.4885 13.2285 65.496ZM23.0283 65.6727C23.0121 65.7247 22.9987 65.7579 22.9854 65.7772C22.9884 65.7878 22.9911 65.7987 22.9941 65.8095C23.0048 65.7999 23.0155 65.7897 23.0264 65.7802C23.0263 65.7443 23.0281 65.7085 23.0283 65.6727ZM13.4307 65.5888C13.4187 65.4295 13.4138 65.4569 13.4141 65.579C13.4214 65.5781 13.4256 65.5808 13.4307 65.5888ZM24.3223 60.4003C23.9387 59.8524 24.2151 60.7804 24.1885 60.8456C23.8795 61.4989 23.2569 61.0832 23.0771 62.0263C23.0711 62.0599 23.3921 62.9971 23.0234 62.4032C23.0005 62.3641 22.9857 61.9101 22.8066 61.9374L22.7246 61.9647C22.5281 62.0129 22.1588 61.8972 21.9619 62.163C21.9675 62.189 21.9749 62.2188 21.9805 62.2538C22.0273 62.5706 22.0126 63.467 22.0342 64.3485C22.0367 64.45 22.0479 64.4819 22.0537 64.7684C22.1932 64.65 22.3285 64.5869 22.2695 64.9608C22.2566 65.042 22.0988 65.3973 22.1025 65.4286C22.1894 65.9532 22.6704 64.8212 22.9648 64.5341C23.0018 64.4981 23.0318 64.4805 23.0566 64.4794C23.0222 64.1918 22.9088 63.3195 22.9043 63.2548C22.8752 62.8529 23.0345 63.6698 23.1377 64.2098C23.1884 63.8626 23.2577 63.5173 23.3447 63.1718C23.2969 62.823 23.2496 62.4837 23.2715 62.4979C23.3122 62.5245 23.3686 62.6923 23.4248 62.8749C23.4631 62.7393 23.5037 62.6035 23.5479 62.4677C23.4794 62.0002 23.3731 61.3431 23.5752 62.1473C23.5787 62.1611 23.5931 62.2148 23.6104 62.285C23.6342 62.2156 23.6572 62.1456 23.6826 62.0761C23.6801 62.0558 23.6766 62.0415 23.6768 62.036C23.6802 61.9295 23.7001 61.9439 23.7217 61.9696C23.7505 61.893 23.7818 61.8169 23.8125 61.7401C23.8222 61.6933 23.8336 61.6584 23.8496 61.6493C23.8731 61.5919 23.8944 61.533 23.9189 61.4755C24.0603 61.1872 24.2165 60.8856 24.3916 60.5829C24.3586 60.4954 24.3327 60.4152 24.3223 60.4003ZM13.8652 65.0712C13.8712 65.1197 13.8694 65.1142 13.8701 65.0702C13.8685 65.0706 13.8668 65.0707 13.8652 65.0712ZM14.6133 64.7489C14.6238 64.8942 14.6337 64.9547 14.6445 64.8534C14.6463 64.8366 14.6442 64.8008 14.6436 64.7518C14.6337 64.7508 14.6236 64.7489 14.6133 64.7489ZM5.29492 64.1522C5.33689 64.329 5.43855 64.6132 5.52637 64.8202C5.56174 64.7209 5.60259 64.6323 5.64355 64.5507C5.56781 64.3825 5.47938 64.2149 5.39258 64.0917C5.3843 64.0799 5.37547 64.07 5.36816 64.0604C5.34469 64.0927 5.32173 64.1243 5.29492 64.1522ZM21.9619 64.6239C21.9663 64.0443 21.9293 63.9981 21.9434 64.6005C21.9437 64.6247 21.9618 64.6479 21.9619 64.6239ZM13.8174 63.8348C13.7904 63.4642 13.7998 63.8115 13.8145 64.2011C13.8239 64.2223 13.8325 64.2432 13.8428 64.2626C13.8348 64.111 13.8266 63.9611 13.8174 63.8348ZM6.46289 63.872C6.46334 63.8732 6.46339 63.8746 6.46387 63.8759C6.46575 63.8711 6.46685 63.866 6.46875 63.8612C6.46645 63.8645 6.46519 63.8686 6.46289 63.872ZM4.39551 63.079C4.93133 63.2707 3.62047 61.3558 3.66211 62.0302C3.66797 62.0735 4.36433 63.068 4.39551 63.079ZM14.9277 62.5741C14.8976 62.6788 14.8715 62.7727 14.8525 62.8427C14.8573 62.8547 14.8624 62.8665 14.8672 62.8778C14.8759 62.8927 14.8859 62.9089 14.8955 62.9266C14.937 62.8936 14.9446 62.7563 14.9277 62.5741ZM6.32031 62.6464C6.3643 62.6352 6.32208 62.5628 6.24902 62.4647C6.27114 62.5211 6.29579 62.5834 6.32031 62.6464ZM6.44727 61.6425C6.35968 61.7673 6.28375 61.9103 6.22266 62.08C6.55519 62.3571 6.98673 62.7399 7.05078 62.5897C7.05238 62.5711 6.60533 61.8922 6.44727 61.6425ZM6.97363 61.1093C6.80743 61.2432 6.6457 61.3842 6.50586 61.5624C6.605 61.672 6.71936 61.7965 6.76465 61.786C6.95793 61.7386 7.20049 61.8157 7.09863 61.3983C7.08636 61.3504 7.02365 61.2259 6.97363 61.1093ZM16.874 61.4794C16.8767 61.5095 16.88 61.5633 16.8848 61.6278C16.8858 61.6288 16.8867 61.6298 16.8877 61.6307C16.9016 61.6218 16.9154 61.6126 16.9297 61.6044C16.9288 61.5684 16.9286 61.5299 16.9277 61.4901C16.9096 61.477 16.8913 61.4707 16.873 61.4716C16.8733 61.4741 16.8738 61.4768 16.874 61.4794ZM16.9707 61.5839C16.979 61.5795 16.9877 61.5763 16.9961 61.5722C16.9868 61.5574 16.978 61.5438 16.9688 61.5321C16.9696 61.549 16.9698 61.5663 16.9707 61.5839ZM16.7842 61.537C16.7899 61.542 16.796 61.5466 16.8018 61.5516C16.8011 61.5399 16.8005 61.5278 16.7998 61.5155C16.7945 61.5218 16.7895 61.5292 16.7842 61.537ZM7.33887 60.8114C7.27726 60.8645 7.21456 60.9154 7.15137 60.9657C7.24043 61.0493 7.4058 61.2237 7.42383 61.2274C7.60491 61.2463 7.5065 61.0561 7.33887 60.8114ZM7.81836 60.2538C7.76805 60.341 7.71309 60.4195 7.6543 60.4921C8.04841 60.9921 8.0536 60.7799 8.15234 60.7167C8.91499 61.4914 8.95867 61.2951 8.25586 60.6454C8.17902 60.5751 8.19933 60.7316 8.15234 60.7167C8.01018 60.5362 7.9001 60.3803 7.81836 60.2538ZM18.8848 57.0399C19.0417 57.6108 18.6326 56.9253 18.4727 56.9325C18.4675 56.933 18.4625 56.9346 18.457 56.9345C18.4029 56.9453 18.3502 56.9599 18.2988 56.9774C18.3092 57.1365 18.4762 57.5152 18.499 57.7714C18.5175 57.9786 18.3202 57.5323 18.1201 57.0536C18.0373 57.0966 17.9591 57.1488 17.8848 57.2079C18.0897 57.6991 18.2415 58.0443 18.0869 57.8993C18.0727 57.8826 17.9182 57.4624 17.8779 57.4345C17.8209 57.4002 17.7671 57.3774 17.7168 57.3602C17.5149 57.5693 17.3537 57.8355 17.2324 58.121C17.2386 58.1393 17.2459 58.1572 17.252 58.1757C17.245 58.1592 17.2374 58.1431 17.2305 58.1268C17.2147 58.1642 17.198 58.2012 17.1836 58.2391C17.0828 58.5091 17.7351 58.8712 17.3057 58.7655C17.2745 58.7559 17.0389 58.3929 16.9707 58.4208C16.9625 58.4242 16.9553 58.4297 16.9473 58.4345C17.0743 58.7304 17.1277 58.8919 16.9893 58.7616C16.982 58.7536 16.9241 58.6189 16.8701 58.4989C16.8351 58.5384 16.8024 58.5874 16.7715 58.6376C16.8284 58.8584 16.9086 59.1262 16.8721 59.2255C16.8307 59.3369 16.6 59.166 16.4297 59.0809C16.4004 59.1189 16.3751 59.1591 16.3418 59.2118C16.4248 59.4729 16.414 59.5309 16.2725 59.3163C16.2582 59.3374 16.2425 59.3575 16.2266 59.3778C16.4655 60.0421 16.6558 60.0824 16.8281 60.0253C16.8934 59.9926 16.957 59.9584 17.0225 59.9579C17.113 59.957 17.1831 60.2565 17.2666 60.327C17.579 60.584 17.2225 59.6493 17.2422 59.4677C17.3024 58.8895 17.6566 59.9764 17.9551 60.4774C17.8002 60.106 17.5151 59.519 17.5498 59.5145C17.7117 59.5211 18.5087 60.89 17.958 59.5692C17.9167 59.472 17.8156 59.2797 17.7236 59.1024C17.8378 59.2478 18.2341 59.7481 18.0186 59.2733C17.988 59.206 17.8057 58.8966 17.7969 58.8612C17.7479 58.6403 17.9264 58.8537 17.9141 58.6776C17.9016 58.5006 17.8716 58.2494 18.001 58.289C18.0793 58.3132 18.4581 58.8558 18.5566 58.9833C18.8385 59.3522 18.5242 58.6055 18.832 59.0858C18.8831 59.1671 18.9351 59.2587 18.9883 59.3554C18.9902 59.3104 18.9954 59.2633 18.999 59.2177C18.8078 58.8457 18.6161 58.474 18.4268 58.1054C18.6518 57.9415 18.9941 58.0396 19.1807 57.8319C19.2009 57.8004 18.9586 57.3579 18.9775 57.3173C19.0612 57.146 19.3158 57.3999 19.377 57.1718C19.3909 57.1154 19.3869 57.0176 19.3789 56.9042C19.2433 57.0733 18.9155 56.877 18.7529 56.8524C18.8137 56.939 18.8792 57.0207 18.8848 57.0399ZM5.68457 59.3788C5.25119 59.0548 5.8124 60.2307 5.99219 60.3475C6.57612 60.7418 6.12005 59.7027 5.68457 59.3788ZM8.65918 58.3632C8.27693 57.8072 7.91613 57.332 7.81934 57.8739C7.75846 58.178 8.50636 59.8487 8.34961 60.1854C8.42749 60.2452 8.50383 60.3097 8.57324 60.372C8.64154 60.2777 8.70894 60.1843 8.77637 60.0917C8.61741 59.8901 8.42233 59.6619 8.37793 59.5165C8.20365 58.9335 8.87199 59.1378 8.9502 58.8095C8.95256 58.7995 8.94855 58.7895 8.94629 58.7782C8.90503 58.7194 8.86318 58.6588 8.82129 58.5975C8.73903 58.5117 8.65007 58.4274 8.65527 58.3788C8.65585 58.3733 8.65834 58.3683 8.65918 58.3632ZM16.1348 59.4872C15.9969 59.6361 15.8357 59.7806 15.7295 59.9725C15.8235 60.1275 15.8865 60.2454 15.7021 60.0223C15.6832 60.062 15.6667 60.1041 15.6533 60.1483C15.6433 60.1859 15.7109 60.2494 15.7852 60.3231C15.9101 60.1032 16.0106 59.7236 16.1348 59.4872ZM18.8213 59.8339C18.593 59.4147 18.3224 58.9838 18.3945 59.2499C18.4001 59.2677 18.5653 59.5686 18.7266 59.8583C18.76 59.8587 18.7914 59.8522 18.8213 59.8339ZM19.2246 58.2938C18.9183 57.827 19.4145 58.9847 19.5479 59.1942C19.531 59.0627 19.5059 58.9127 19.4805 58.7636C19.3988 58.5951 19.3076 58.4237 19.2246 58.2938ZM17.5439 58.7245C17.5472 58.7584 17.6304 58.9227 17.7236 59.1024C17.7102 59.0853 17.7005 59.0733 17.6963 59.0682C17.5499 58.8876 17.4793 58.8135 17.458 58.8095L17.5439 58.7245ZM20.4756 58.4452C20.3282 58.1484 20.2287 58.0096 20.2402 58.247C20.2414 58.286 20.2656 58.3779 20.3037 58.5028C20.3197 58.3778 20.3751 58.357 20.4756 58.4452ZM20.9512 55.6122C20.9575 55.7146 20.957 55.7945 20.9531 55.7968C20.6206 56.0834 20.0115 55.5601 19.7627 56.0409C19.7446 56.0799 19.9373 56.5213 19.9395 56.539C19.929 56.7017 19.758 56.2394 19.5781 55.788C19.5653 55.7955 19.5529 55.8038 19.54 55.8114C19.6006 56.0135 19.5545 55.9914 19.5391 56.0839C19.5276 56.1557 19.6864 56.5073 19.6982 56.5468C19.8687 57.1298 19.5571 56.4398 19.4912 56.2997C19.25 55.7861 19.4654 56.441 19.3037 56.0985C19.2877 56.0647 19.2737 56.0274 19.2578 55.9901C19.2473 55.9972 19.237 56.0044 19.2266 56.0116C19.2678 56.1118 19.3065 56.209 19.3398 56.2958C19.3411 56.2607 19.3441 56.2299 19.3496 56.205C19.8474 57.1791 19.8388 56.73 19.9805 56.7489C20.0293 56.7557 20.1402 57.0324 20.2021 57.1044C20.4328 57.3681 20.0177 56.4893 19.9854 56.3251C19.8505 55.6319 20.692 57.6894 20.7998 57.5546C20.8048 57.5484 20.4508 56.3836 20.4355 56.3036C20.334 55.8018 20.5994 56.6781 20.6787 56.7304C20.8226 56.8216 20.9787 57.0515 20.9531 56.6571C20.9458 56.5395 20.7468 55.8 21.0078 56.3007C21.0419 56.3665 21.1772 56.7346 21.1924 56.7557C21.4083 57.0141 21.0861 56.1176 20.9512 55.6122ZM22.2402 53.9403C22.2094 53.9585 22.1783 53.9764 22.1475 53.995C22.2322 54.2406 22.3035 54.4514 22.3193 54.5184C22.3729 54.7465 22.1285 54.3488 22.0508 54.204C22.0331 54.1709 22.0158 54.1301 21.999 54.0868C21.9714 54.104 21.9436 54.1211 21.916 54.1386C22.0357 54.475 22.1841 54.872 22.2168 55.0243C22.3859 55.8082 21.7953 54.4254 21.6582 54.3407C21.6217 54.3186 21.7585 54.6311 21.749 54.6747C21.7097 54.8423 21.4981 54.4295 21.5547 54.8973C21.5637 54.9738 21.8037 55.8798 21.5244 55.2821C21.4843 55.196 21.3736 54.8285 21.3096 54.7704C21.2138 54.6848 21.091 54.6682 21.0791 54.8231C21.0709 54.9383 21.3342 55.4909 21.2158 55.3436C21.1628 55.2775 21.0783 54.907 20.9893 54.8114C20.983 54.8047 20.9761 54.7998 20.9697 54.7948C20.9033 54.844 20.8348 54.8909 20.7686 54.9413C20.8019 55.0594 20.8801 55.2475 20.9072 55.3173C20.9587 55.2654 21.24 55.7948 21.3262 55.9745C21.5989 56.5398 21.3831 56.2572 21.4014 56.3163C21.556 56.8039 21.6182 56.8851 21.6641 56.8954C21.6749 56.8639 21.6861 56.8326 21.6973 56.8016C21.3628 55.7517 21.3954 55.5837 21.8379 56.5048C21.8483 56.4893 21.8577 56.4732 21.8691 56.4589C21.9112 56.4054 21.9851 56.4506 22.0625 56.496C22.0207 56.3602 21.987 56.2404 21.9785 56.1669C21.9374 55.7775 22.1175 55.9581 22.2588 56.0497C22.2587 55.9716 22.2822 55.9096 22.3662 55.8856C22.3167 55.7414 22.2395 55.5566 22.248 55.5165C22.2816 55.3517 22.4654 55.6355 22.4844 55.4198C22.4854 55.3985 22.308 54.9551 22.3301 54.9335C22.423 54.8395 22.549 54.8586 22.6748 54.8749C22.6365 54.7617 22.6061 54.6561 22.6016 54.6483C22.4312 54.3865 22.3432 54.1913 22.2402 53.9403ZM23.6641 54.6972C23.6996 54.7221 23.7339 54.7433 23.7656 54.7597C23.7539 54.75 23.744 54.7381 23.7314 54.7294C23.7055 54.7116 23.683 54.7013 23.6641 54.6972ZM23.0078 53.5341C23.0316 53.6108 23.0551 53.6924 23.0811 53.7753C23.1194 53.796 23.1504 53.8128 23.1777 53.8222C23.1407 53.7235 23.1011 53.6134 23.0645 53.5067C23.0455 53.5156 23.0268 53.5251 23.0078 53.5341ZM26.3691 53.8182C26.3646 53.7986 26.3608 53.7789 26.3564 53.7597C26.3541 53.7588 26.3519 53.7576 26.3496 53.7567C26.3565 53.7766 26.3621 53.7972 26.3691 53.8182ZM23.4639 53.411C23.357 53.3416 23.3503 53.4303 23.3916 53.6298C23.4062 53.6229 23.4262 53.6225 23.4521 53.6278C23.504 53.6394 23.5445 53.6711 23.5791 53.7118C23.5323 53.5767 23.4757 53.4185 23.4639 53.411ZM25.9414 53.3495C25.906 53.3657 25.8701 53.3814 25.832 53.3886C25.8713 53.4401 25.9099 53.4923 25.9424 53.538C25.9531 53.5443 25.9628 53.5526 25.9736 53.5595C25.9846 53.542 25.9669 53.4583 25.9414 53.3495ZM23.6982 53.244C23.6568 53.2586 23.6156 53.2744 23.5742 53.2899C23.5851 53.3173 23.5952 53.3466 23.6074 53.3759C23.6269 53.4203 23.7449 53.3992 23.7334 53.3544C23.7226 53.3155 23.709 53.2793 23.6982 53.244ZM25.5996 52.9579C25.5526 52.9915 25.5194 53.0485 25.5352 53.1747C25.5353 53.1763 25.5366 53.1783 25.5371 53.1806C25.5539 53.1288 25.5963 53.14 25.6494 53.1835C25.6329 53.1104 25.6161 53.0274 25.5996 52.9579ZM29.6709 50.2919C29.6852 50.3108 29.6935 50.3172 29.7002 50.3095C29.6904 50.303 29.6804 50.2975 29.6709 50.2919ZM117 39.8661C116.626 40.1023 118 40.1275 117.671 39.8768C117.651 39.8648 117.02 39.8541 117 39.8661ZM27.4951 35.9061C27.5254 36.0126 27.5679 36.136 27.6152 36.1825C27.604 36.1228 27.545 36.0111 27.4951 35.9061ZM67.9941 24.0858C67.5452 24.3769 67.1149 24.7108 66.7031 25.1141C66.8938 25.1291 67.0873 25.1427 67.2822 25.1591C67.326 25.0055 67.3849 24.8523 67.46 24.7011C67.4977 24.6271 67.8868 24.7066 67.917 24.6542C68.0215 24.4693 67.9976 24.2762 67.9941 24.0858ZM101.315 24.0858C100.866 24.377 100.435 24.7106 100.023 25.1141C100.214 25.1291 100.408 25.1427 100.603 25.1591C100.646 25.0055 100.705 24.8523 100.78 24.7011C100.818 24.6271 101.207 24.7063 101.237 24.6542C101.342 24.4693 101.319 24.2762 101.315 24.0858ZM111.618 22.0399C111.522 22.0361 111.426 22.038 111.407 22.0653C111.321 22.1913 111.385 22.4343 111.356 22.5331C111.3 22.7192 111.304 22.7509 111.3 22.9286C111.291 23.171 111.112 23.4704 111.193 23.7265C111.202 23.7514 111.281 23.7497 111.371 23.7489C111.389 23.3656 111.424 22.9824 111.492 22.6005C111.525 22.4085 111.568 22.2236 111.618 22.0399ZM67.2988 22.5438C67.3396 22.7264 67.4056 22.8703 67.4805 22.8983C67.5227 22.915 67.5634 22.926 67.6016 22.9345C67.4385 22.7449 67.3421 22.6295 67.334 22.6171C67.3195 22.5913 67.3091 22.5662 67.2988 22.5438ZM100.619 22.5438C100.66 22.7264 100.726 22.8703 100.801 22.8983C100.843 22.915 100.884 22.926 100.922 22.9345C100.759 22.7449 100.662 22.6295 100.654 22.6171C100.64 22.5913 100.629 22.5662 100.619 22.5438ZM67.7451 21.7938C67.7397 21.8903 67.8271 22.2484 67.7891 22.4003C67.9214 22.4756 68.0509 22.5516 68.126 22.5946C68.1865 22.3498 68.126 22.0325 67.9541 21.8153C67.8894 21.7771 67.8218 21.742 67.7539 21.7108C67.7501 21.737 67.7467 21.7646 67.7451 21.7938ZM101.065 21.7938C101.06 21.8903 101.147 22.2484 101.109 22.4003C101.242 22.4756 101.371 22.5516 101.446 22.5946C101.507 22.3498 101.446 22.0325 101.274 21.8153C101.21 21.7771 101.142 21.742 101.074 21.7108C101.07 21.737 101.067 21.7646 101.065 21.7938ZM67.2764 21.9345C67.2601 22.0264 67.2536 22.1285 67.2578 22.2313C67.2773 22.2108 67.3154 22.2054 67.3896 22.2216C67.4135 22.2248 67.4411 22.2323 67.4717 22.2431C67.4147 22.1436 67.3435 22.0105 67.2803 21.9393C67.2789 21.9378 67.2777 21.936 67.2764 21.9345ZM100.597 21.9345C100.58 22.0264 100.574 22.1285 100.578 22.2313C100.598 22.2108 100.636 22.2054 100.71 22.2216C100.734 22.2248 100.761 22.2323 100.792 22.2431C100.735 22.1436 100.664 22.0105 100.601 21.9393C100.599 21.9378 100.598 21.936 100.597 21.9345ZM112.207 22.1727C112.92 22.3789 112.996 21.5899 112.246 21.7616C112.208 21.7724 112.172 22.1588 112.207 22.1727ZM79.4297 21.8681C79.3696 21.7668 79.2045 21.6978 78.9258 21.7616C78.8983 21.7693 78.8721 21.9683 78.8721 22.0868C79.0393 22.0079 79.2534 21.9874 79.4297 21.8681ZM66.4414 21.3329C66.2973 21.4466 66.1585 21.5939 66.0371 21.7557C66.0712 21.8473 66.114 21.9644 66.1484 22.0741C66.3579 21.9477 66.568 21.8185 66.7861 21.6884C66.666 21.543 66.548 21.421 66.4414 21.3329ZM99.7617 21.3329C99.6176 21.4466 99.4788 21.5939 99.3574 21.7557C99.3916 21.8473 99.4343 21.9644 99.4688 22.0741C99.6782 21.9477 99.8883 21.8185 100.106 21.6884C99.9863 21.543 99.8683 21.421 99.7617 21.3329ZM111.58 20.5868C111.375 21.0125 111.371 21.4504 111.479 21.8436C111.495 21.9028 111.566 21.9245 111.646 21.9345C111.708 21.7278 111.782 21.5219 111.871 21.3095C111.883 21.2849 112.264 21.3298 112.283 21.2802C112.457 20.7958 112.106 20.7788 111.58 20.5868ZM78.2598 20.5868C78.106 20.9065 78.066 21.2323 78.1016 21.5419C78.2021 21.5489 78.3101 21.574 78.4297 21.62C78.4666 21.5175 78.5067 21.4143 78.5508 21.3095C78.5631 21.2849 78.9439 21.3298 78.9629 21.2802C79.137 20.7958 78.7854 20.7788 78.2598 20.5868ZM78.3457 19.6015C78.334 19.7467 78.342 19.8891 78.3799 20.0253C78.3831 20.0363 78.3959 20.043 78.415 20.0487C78.5165 20.0096 78.5956 19.9817 78.6133 19.9745C78.8515 19.8771 79.423 19.9754 79.4707 19.9432C79.7233 19.7533 78.8807 19.726 78.3457 19.6015ZM111.666 19.6015C111.654 19.7467 111.662 19.8891 111.7 20.0253C111.703 20.0363 111.716 20.043 111.735 20.0487C111.837 20.0096 111.916 19.9817 111.934 19.9745C112.172 19.8771 112.743 19.9754 112.791 19.9432C113.044 19.7533 112.201 19.726 111.666 19.6015ZM78.6104 18.4345C78.5736 18.6307 78.5118 18.8419 78.4541 19.0556C78.7691 18.8607 79.5869 18.7832 79.0732 18.4677C79.0438 18.4506 78.8368 18.4499 78.6104 18.4345ZM111.931 18.4345C111.894 18.6307 111.832 18.8419 111.774 19.0556C112.089 18.8607 112.907 18.7832 112.394 18.4677C112.364 18.4506 112.157 18.4499 111.931 18.4345ZM70.5225 18.0272C70.3568 17.9332 70.3091 18.0061 70.3535 18.1806C70.4082 18.1281 70.4647 18.0771 70.5225 18.0272ZM103.843 18.0272C103.677 17.9332 103.629 18.0061 103.674 18.1806C103.729 18.1281 103.785 18.0771 103.843 18.0272ZM85.6768 15.8036C84.9277 15.9463 85.1664 16.4462 85.0703 16.787C85.0351 16.9113 84.8007 16.8796 84.7188 16.9628C84.6211 17.0659 84.637 17.1265 84.707 17.1649C84.7134 17.1629 84.7202 17.1622 84.7266 17.16C84.9579 17.082 85.1595 16.9098 85.3428 16.7391C85.4406 16.6468 85.1343 16.2355 85.2227 16.1571C85.3683 16.0292 85.5205 15.9108 85.6768 15.8036ZM78.7734 17.0214C79.052 16.8699 79.286 16.9115 79.7949 16.7382C80.3732 16.5382 79.266 16.5786 78.8281 16.5409C78.8089 16.7005 78.7914 16.8607 78.7734 17.0214ZM112.094 17.0214C112.372 16.8699 112.606 16.9115 113.115 16.7382C113.693 16.5382 112.586 16.5786 112.148 16.5409C112.129 16.7005 112.112 16.8607 112.094 17.0214ZM78.9424 15.6845C78.9217 15.8278 78.9036 15.9714 78.8848 16.1151C78.9299 16.0771 78.9715 16.0454 79.001 16.0263C79.1311 15.9445 79.3521 16.037 79.4258 15.9657C79.7248 15.6715 79.3382 15.6748 78.9424 15.6845ZM112.263 15.6845C112.242 15.8278 112.224 15.9714 112.205 16.1151C112.25 16.0771 112.292 16.0454 112.321 16.0263C112.451 15.9445 112.672 16.037 112.746 15.9657C113.045 15.6715 112.658 15.6748 112.263 15.6845ZM83.7178 15.4393C83.694 15.5063 83.6132 15.5695 83.4385 15.6181C83.3895 15.6329 82.6553 15.8376 83.1621 15.996C83.194 16.0056 83.5566 15.881 83.5361 16.077C83.9333 16.0641 84.2036 15.9806 84.0225 15.6444C83.9905 15.5865 83.8735 15.5187 83.7178 15.4393ZM117.038 15.4393C117.014 15.5063 116.934 15.5695 116.759 15.6181C116.71 15.6329 115.976 15.8376 116.482 15.996C116.514 16.0056 116.877 15.881 116.856 16.077C117.254 16.0641 117.524 15.9806 117.343 15.6444C117.311 15.5865 117.194 15.5187 117.038 15.4393ZM79.7246 14.6288C79.7042 14.6328 79.689 14.7574 79.8047 14.7509C80.1766 14.7281 80.0676 14.5595 79.7246 14.6288ZM113.045 14.6288C113.025 14.6328 113.009 14.7574 113.125 14.7509C113.497 14.7281 113.388 14.5595 113.045 14.6288ZM83.9766 12.5253C83.3507 12.737 84.2227 13.0551 84.7041 12.913C85.1841 12.7723 84.1666 12.4617 83.9766 12.5253ZM117.297 12.5253C116.671 12.737 117.543 13.0551 118.024 12.913C118.504 12.7723 117.487 12.4617 117.297 12.5253ZM82.9082 11.5497C82.5691 11.7011 82.7765 11.8459 82.9727 11.9403C82.9672 11.8118 82.9501 11.6812 82.917 11.5468C82.914 11.5478 82.9108 11.5484 82.9082 11.5497ZM116.229 11.5497C115.889 11.7011 116.097 11.8459 116.293 11.9403C116.288 11.8118 116.27 11.6812 116.237 11.5468C116.234 11.5478 116.231 11.5484 116.229 11.5497ZM83.8018 9.42762C83.2953 9.68913 85.2232 10.0663 84.8672 9.64051C84.8404 9.6148 83.8354 9.41351 83.8018 9.42762ZM117.122 9.42762C116.616 9.68913 118.544 10.0663 118.188 9.64051C118.161 9.6148 117.156 9.41351 117.122 9.42762ZM82.8105 8.69325C82.8159 8.74517 82.8166 8.79439 82.8125 8.83973L82.8633 9.1786C82.92 9.1598 82.9671 9.12957 82.9805 9.05946C83.0025 8.94254 82.8766 8.821 82.8105 8.69325ZM116.131 8.69325C116.136 8.74517 116.137 8.79439 116.133 8.83973L116.184 9.1786C116.24 9.1598 116.287 9.12957 116.301 9.05946C116.323 8.94254 116.197 8.821 116.131 8.69325ZM82.7188 7.09364C82.7862 7.29843 82.9476 7.62881 82.9502 7.82606C82.9451 8.06747 82.7441 7.71257 82.7158 8.01063C82.7026 8.14956 82.7461 8.33059 82.7803 8.50477C82.7906 8.47163 82.8107 8.43745 82.8438 8.40321C83.0224 8.22131 83.9047 8.17438 84.0352 7.92079C83.1863 7.74688 83.2239 7.55945 83.0381 7.17567C83.0092 7.1178 82.8158 7.11195 82.7188 7.09364ZM116.039 7.09364C116.107 7.29843 116.268 7.62881 116.271 7.82606C116.265 8.06747 116.064 7.71257 116.036 8.01063C116.023 8.14956 116.066 8.33059 116.101 8.50477C116.111 8.47163 116.131 8.43745 116.164 8.40321C116.343 8.22131 117.225 8.17438 117.355 7.92079C116.507 7.74688 116.544 7.55945 116.358 7.17567C116.33 7.1178 116.136 7.11195 116.039 7.09364ZM83.6533 6.33094C83.38 6.38201 83.6438 6.75283 83.9834 6.68837C84.2558 6.63732 83.9928 6.26912 83.6533 6.33094ZM116.974 6.33094C116.7 6.38201 116.964 6.75283 117.304 6.68837C117.576 6.63732 117.313 6.26912 116.974 6.33094ZM80.1436 2.31337C80.0218 1.7479 79.7487 1.87157 80.001 2.3788C80.0125 2.3983 80.1468 2.33795 80.1436 2.31337ZM113.464 2.31337C113.342 1.7479 113.069 1.87157 113.321 2.3788C113.333 2.3983 113.467 2.33795 113.464 2.31337ZM83.4414 0.526256C83.5497 0.497555 84.395 1.22157 84.3867 1.26454L84.3848 1.26258C84.1814 1.97043 82.5324 1.97848 82.8535 1.19227C82.9118 1.05228 83.2979 1.67008 83.4727 1.52235C83.7882 1.2599 82.8502 0.708881 83.4414 0.526256ZM116.762 0.526256C116.87 0.497555 117.715 1.22157 117.707 1.26454L117.705 1.26258C117.502 1.97043 115.853 1.97848 116.174 1.19227C116.232 1.05228 116.618 1.67008 116.793 1.52235C117.109 1.2599 116.171 0.708881 116.762 0.526256Z" fill="black"/>
</svg>
